<svg width="305" height="132" viewBox="0 0 305 132" fill="none" xmlns="http://www.w3.org/2000/svg">
<path d="M51.364 28.8273C51.1931 29.1007 51.0109 29.3057 50.8172 29.4424C50.635 29.5791 50.3958 29.6475 50.0996 29.6475C49.8376 29.6475 49.5529 29.5677 49.2453 29.4083C48.9491 29.2374 48.6074 29.0495 48.2201 28.8444C47.8442 28.6394 47.4114 28.4571 46.9216 28.2977C46.4318 28.1268 45.8736 28.0414 45.2472 28.0414C44.165 28.0414 43.3563 28.2749 42.8209 28.7419C42.297 29.1975 42.035 29.8183 42.035 30.6043C42.035 31.1055 42.1944 31.5212 42.5134 31.8516C42.8323 32.1819 43.2481 32.4667 43.7607 32.7059C44.2846 32.9451 44.877 33.1672 45.5376 33.3722C46.2097 33.5659 46.8931 33.788 47.588 34.0386C48.2828 34.2778 48.9605 34.5626 49.6212 34.8929C50.2933 35.2232 50.8856 35.6447 51.3982 36.1573C51.9221 36.6699 52.3436 37.2963 52.6625 38.0367C52.9815 38.7658 53.1409 39.6485 53.1409 40.6851C53.1409 41.8356 52.9416 42.912 52.5429 43.9144C52.1442 44.9167 51.5633 45.7938 50.8001 46.5456C50.0484 47.286 49.1143 47.8726 47.998 48.3055C46.8931 48.727 45.6344 48.9377 44.222 48.9377C43.4474 48.9377 42.6558 48.8579 41.847 48.6985C41.0497 48.539 40.2751 48.3169 39.5233 48.0321C38.7715 47.736 38.0653 47.3885 37.4046 46.9899C36.744 46.5912 36.1687 46.1469 35.6789 45.6571L37.3875 42.9575C37.5128 42.7525 37.6894 42.5873 37.9172 42.462C38.145 42.3367 38.3899 42.2741 38.6519 42.2741C38.9936 42.2741 39.3354 42.3823 39.6771 42.5987C40.0302 42.8152 40.4232 43.0544 40.856 43.3164C41.3003 43.5783 41.8072 43.8175 42.3767 44.034C42.9462 44.2504 43.6183 44.3586 44.3929 44.3586C45.4408 44.3586 46.2552 44.1308 46.8362 43.6752C47.4171 43.2081 47.7076 42.4734 47.7076 41.4711C47.7076 40.8901 47.5481 40.4174 47.2291 40.0529C46.9102 39.6884 46.4887 39.3865 45.9648 39.1473C45.4522 38.9081 44.8656 38.6974 44.2049 38.5152C43.5442 38.3329 42.8665 38.1336 42.1717 37.9171C41.4768 37.6893 40.7991 37.4159 40.1384 37.097C39.4777 36.7667 38.8854 36.3395 38.3615 35.8156C37.8489 35.2802 37.4331 34.6195 37.1142 33.8336C36.7952 33.0362 36.6358 32.0566 36.6358 30.8948C36.6358 29.9607 36.8237 29.0495 37.1996 28.161C37.5755 27.2725 38.1279 26.4808 38.857 25.786C39.586 25.0912 40.4801 24.5387 41.5395 24.1287C42.5988 23.7072 43.8119 23.4965 45.1788 23.4965C45.942 23.4965 46.6824 23.5591 47.4 23.6844C48.129 23.7983 48.8182 23.9749 49.4674 24.2141C50.1167 24.4419 50.7204 24.721 51.2786 25.0513C51.8481 25.3702 52.355 25.7347 52.7992 26.1448L51.364 28.8273Z" fill="#1A1919"/>
<path d="M62.9139 30.6726C64.0872 30.6726 65.1579 30.8549 66.1261 31.2194C67.1057 31.5839 67.9429 32.1136 68.6378 32.8084C69.344 33.5032 69.8907 34.3575 70.278 35.3713C70.6767 36.3737 70.876 37.5128 70.876 38.7885C70.876 39.1872 70.859 39.5118 70.8248 39.7624C70.7906 40.013 70.728 40.2124 70.6368 40.3605C70.5457 40.5085 70.4204 40.6111 70.2609 40.668C70.1129 40.725 69.9192 40.7534 69.68 40.7534H59.4625C59.6334 42.2342 60.0833 43.3107 60.8123 43.9827C61.5413 44.6434 62.4811 44.9737 63.6315 44.9737C64.2466 44.9737 64.7763 44.8997 65.2205 44.7516C65.6648 44.6035 66.0578 44.4383 66.3995 44.2561C66.7526 44.0738 67.0715 43.9087 67.3563 43.7606C67.6525 43.6125 67.96 43.5385 68.279 43.5385C68.7004 43.5385 69.0194 43.6922 69.2358 43.9998L70.7735 45.8964C70.2268 46.5228 69.6345 47.0354 68.9966 47.4341C68.3701 47.8214 67.7208 48.1289 67.0488 48.3568C66.3881 48.5732 65.7217 48.7213 65.0497 48.801C64.389 48.8921 63.7568 48.9377 63.1531 48.9377C61.9115 48.9377 60.744 48.7383 59.6505 48.3397C58.5684 47.9296 57.6172 47.3259 56.7971 46.5285C55.9884 45.7312 55.3448 44.7402 54.8664 43.5556C54.3993 42.3709 54.1658 40.9926 54.1658 39.4207C54.1658 38.2361 54.3652 37.1141 54.7638 36.0548C55.1739 34.9954 55.7548 34.0671 56.5066 33.2697C57.2698 32.4724 58.1868 31.8402 59.2575 31.3732C60.3396 30.9061 61.5584 30.6726 62.9139 30.6726ZM63.0164 34.3291C62.0027 34.3291 61.211 34.6195 60.6415 35.2005C60.0719 35.77 59.696 36.5958 59.5138 37.6779H66.1261C66.1261 37.2565 66.0692 36.8464 65.9552 36.4477C65.8527 36.0491 65.6762 35.6959 65.4256 35.3884C65.1864 35.0695 64.8674 34.8132 64.4688 34.6195C64.0701 34.4259 63.586 34.3291 63.0164 34.3291Z" fill="#1A1919"/>
<path d="M78.6996 30.946V48.6643H73.4029V30.946H78.6996ZM79.3147 26.0936C79.3147 26.515 79.2293 26.9137 79.0584 27.2896C78.8876 27.6541 78.654 27.9787 78.3579 28.2635C78.0617 28.5369 77.7143 28.759 77.3156 28.9299C76.9284 29.0893 76.5126 29.1691 76.0684 29.1691C75.6355 29.1691 75.2311 29.0893 74.8552 28.9299C74.4793 28.759 74.1433 28.5369 73.8472 28.2635C73.5624 27.9787 73.3346 27.6541 73.1637 27.2896C73.0042 26.9137 72.9245 26.515 72.9245 26.0936C72.9245 25.6607 73.0042 25.2563 73.1637 24.8804C73.3346 24.5045 73.5624 24.1742 73.8472 23.8894C74.1433 23.6047 74.4793 23.3826 74.8552 23.2231C75.2311 23.0636 75.6355 22.9839 76.0684 22.9839C76.5126 22.9839 76.9284 23.0636 77.3156 23.2231C77.7143 23.3826 78.0617 23.6047 78.3579 23.8894C78.654 24.1742 78.8876 24.5045 79.0584 24.8804C79.2293 25.2563 79.3147 25.6607 79.3147 26.0936Z" fill="#1A1919"/>
<path d="M82.293 48.6643V30.946H85.4369C85.6989 30.946 85.9153 30.9688 86.0861 31.0144C86.2684 31.0599 86.4165 31.134 86.5304 31.2365C86.6557 31.3276 86.7468 31.4529 86.8038 31.6124C86.8721 31.7718 86.9291 31.9655 86.9746 32.1933L87.2651 33.8506C87.9144 32.8483 88.6434 32.0566 89.4521 31.4757C90.2609 30.8948 91.1436 30.6043 92.1005 30.6043C92.9092 30.6043 93.5585 30.7979 94.0483 31.1852L93.3648 35.0808C93.3193 35.3201 93.2281 35.4909 93.0914 35.5934C92.9548 35.6846 92.7725 35.7301 92.5447 35.7301C92.3511 35.7301 92.1232 35.7073 91.8613 35.6618C91.5993 35.6048 91.2689 35.5763 90.8703 35.5763C89.4806 35.5763 88.3871 36.3167 87.5897 37.7975V48.6643H82.293Z" fill="#1A1919"/>
<path d="M95.7256 48.6643V23.0864H101.022V32.8255C101.683 32.1762 102.429 31.6579 103.261 31.2706C104.104 30.872 105.089 30.6726 106.217 30.6726C107.139 30.6726 107.993 30.872 108.779 31.2706C109.565 31.6693 110.243 32.2559 110.813 33.0305C111.382 33.7937 111.826 34.7334 112.145 35.8497C112.476 36.966 112.641 38.2361 112.641 39.6599C112.641 40.9926 112.453 42.2228 112.077 43.3505C111.713 44.4782 111.194 45.4578 110.522 46.2893C109.862 47.1209 109.064 47.7701 108.13 48.2371C107.208 48.7042 106.182 48.9377 105.055 48.9377C104.531 48.9377 104.058 48.8864 103.637 48.7839C103.226 48.6814 102.845 48.539 102.492 48.3568C102.15 48.1631 101.831 47.9353 101.535 47.6733C101.25 47.4113 100.971 47.1266 100.698 46.819L100.51 47.7075C100.43 48.072 100.282 48.3226 100.066 48.4593C99.8605 48.596 99.5871 48.6643 99.2454 48.6643H95.7256ZM104.371 34.6537C103.984 34.6537 103.631 34.6936 103.312 34.7733C103.004 34.8416 102.714 34.9442 102.44 35.0808C102.178 35.2175 101.934 35.3941 101.706 35.6105C101.478 35.8156 101.25 36.0548 101.022 36.3281V43.846C101.421 44.2903 101.854 44.6035 102.321 44.7858C102.788 44.9566 103.278 45.042 103.79 45.042C104.28 45.042 104.73 44.9452 105.14 44.7516C105.55 44.5579 105.903 44.2504 106.199 43.8289C106.507 43.3961 106.746 42.8379 106.917 42.1545C107.088 41.4711 107.173 40.6395 107.173 39.6599C107.173 38.7259 107.105 37.9399 106.968 37.302C106.832 36.6642 106.638 36.1516 106.387 35.7643C106.148 35.3656 105.858 35.0808 105.516 34.91C105.174 34.7391 104.793 34.6537 104.371 34.6537Z" fill="#1A1919"/>
<path d="M114.865 48.6643V23.0864H120.161V32.5008C120.799 31.9541 121.488 31.5155 122.229 31.1852C122.981 30.8435 123.875 30.6726 124.911 30.6726C125.88 30.6726 126.734 30.8435 127.474 31.1852C128.226 31.5155 128.858 31.9826 129.371 32.5863C129.883 33.1786 130.271 33.8905 130.533 34.722C130.795 35.5422 130.926 36.4363 130.926 37.4046V48.6643H125.629V37.4046C125.629 36.5389 125.43 35.8668 125.031 35.3884C124.632 34.8986 124.046 34.6537 123.271 34.6537C122.69 34.6537 122.143 34.779 121.631 35.0296C121.118 35.2802 120.628 35.6162 120.161 36.0377V48.6643H114.865Z" fill="#1A1919"/>
<path d="M139.471 30.946V48.6643H134.175V30.946H139.471ZM143.76 23.4965L139.318 27.9901C139.056 28.2521 138.805 28.44 138.566 28.554C138.327 28.6565 138.008 28.7077 137.609 28.7077H134.431L136.755 24.5216C136.948 24.1913 137.176 23.9407 137.438 23.7698C137.7 23.5876 138.099 23.4965 138.634 23.4965H143.76Z" fill="#1A1919"/>
<path d="M153.897 34.8246C153.761 35.041 153.613 35.1948 153.453 35.2859C153.305 35.377 153.111 35.4226 152.872 35.4226C152.622 35.4226 152.371 35.3713 152.12 35.2688C151.87 35.1549 151.597 35.0353 151.3 34.91C151.016 34.7847 150.691 34.6708 150.326 34.5683C149.962 34.4544 149.546 34.3974 149.079 34.3974C148.407 34.3974 147.889 34.5284 147.524 34.7904C147.171 35.041 146.995 35.3941 146.995 35.8497C146.995 36.1801 147.109 36.4534 147.336 36.6699C147.576 36.8863 147.889 37.0799 148.276 37.2508C148.663 37.4103 149.102 37.564 149.592 37.7121C150.082 37.8602 150.583 38.0254 151.095 38.2076C151.608 38.3899 152.109 38.6063 152.599 38.8569C153.089 39.0961 153.527 39.3979 153.915 39.7624C154.302 40.1156 154.609 40.5484 154.837 41.061C155.076 41.5736 155.196 42.1887 155.196 42.9063C155.196 43.7834 155.037 44.5921 154.718 45.3325C154.399 46.0729 153.92 46.7108 153.282 47.2462C152.656 47.7815 151.876 48.1973 150.942 48.4934C150.019 48.7896 148.954 48.9377 147.746 48.9377C147.143 48.9377 146.539 48.8807 145.935 48.7668C145.332 48.6529 144.745 48.4991 144.175 48.3055C143.617 48.1119 143.099 47.884 142.621 47.622C142.142 47.3487 141.732 47.0582 141.39 46.7507L142.621 44.8028C142.769 44.575 142.945 44.3985 143.15 44.2732C143.355 44.1365 143.623 44.0681 143.953 44.0681C144.261 44.0681 144.534 44.1365 144.773 44.2732C145.024 44.4099 145.292 44.5579 145.576 44.7174C145.861 44.8769 146.192 45.025 146.567 45.1617C146.955 45.2983 147.439 45.3667 148.02 45.3667C148.43 45.3667 148.777 45.3268 149.062 45.2471C149.347 45.156 149.575 45.0364 149.746 44.8883C149.916 44.7402 150.042 44.575 150.121 44.3928C150.201 44.2105 150.241 44.0226 150.241 43.8289C150.241 43.4758 150.121 43.1854 149.882 42.9575C149.643 42.7297 149.33 42.5361 148.942 42.3766C148.555 42.2058 148.111 42.052 147.61 41.9153C147.12 41.7672 146.619 41.602 146.106 41.4198C145.594 41.2375 145.087 41.0211 144.586 40.7705C144.096 40.5085 143.657 40.1839 143.27 39.7966C142.883 39.3979 142.569 38.9138 142.33 38.3443C142.091 37.7748 141.971 37.0856 141.971 36.2769C141.971 35.5251 142.114 34.8132 142.398 34.1411C142.695 33.4577 143.133 32.8597 143.714 32.3471C144.295 31.8345 145.024 31.4301 145.901 31.134C146.778 30.8264 147.803 30.6726 148.977 30.6726C149.615 30.6726 150.23 30.7296 150.822 30.8435C151.426 30.9574 151.989 31.1169 152.513 31.3219C153.037 31.5269 153.516 31.7718 153.949 32.0566C154.382 32.33 154.763 32.6318 155.093 32.9622L153.897 34.8246Z" fill="#1A1919"/>
<path d="M162.899 30.946V48.6643H157.603V30.946H162.899ZM167.188 23.4965L162.746 27.9901C162.484 28.2521 162.233 28.44 161.994 28.554C161.755 28.6565 161.436 28.7077 161.037 28.7077H157.859L160.183 24.5216C160.376 24.1913 160.604 23.9407 160.866 23.7698C161.128 23.5876 161.527 23.4965 162.062 23.4965H167.188Z" fill="#1A1919"/>
<path d="M86.1993 70.7187V79.0396H80.4242V54.1451H89.2065C90.9607 54.1451 92.4643 54.3559 93.7172 54.7773C94.9816 55.1874 96.0182 55.7569 96.8269 56.4859C97.647 57.2149 98.2508 58.075 98.638 59.0659C99.0253 60.0569 99.219 61.1277 99.219 62.2781C99.219 63.5197 99.0196 64.6588 98.6209 65.6954C98.2223 66.7319 97.6129 67.6204 96.7927 68.3608C95.9726 69.1012 94.9303 69.6821 93.666 70.1036C92.413 70.5136 90.9265 70.7187 89.2065 70.7187H86.1993ZM86.1993 66.3617H89.2065C90.7101 66.3617 91.7922 66.0029 92.4529 65.2853C93.1135 64.5677 93.4439 63.5653 93.4439 62.2781C93.4439 61.7086 93.3584 61.1903 93.1876 60.7233C93.0167 60.2563 92.7547 59.8576 92.4016 59.5273C92.0599 59.1855 91.6213 58.9236 91.086 58.7413C90.562 58.5591 89.9355 58.4679 89.2065 58.4679H86.1993V66.3617Z" fill="#1A1919"/>
<path d="M108.925 61.0479C110.27 61.0479 111.494 61.2587 112.599 61.6801C113.704 62.1016 114.649 62.7053 115.435 63.4912C116.233 64.2772 116.848 65.234 117.281 66.3617C117.725 67.478 117.947 68.7367 117.947 70.1377C117.947 71.5502 117.725 72.826 117.281 73.965C116.848 75.0927 116.233 76.0552 115.435 76.8526C114.649 77.6385 113.704 78.2479 112.599 78.6808C111.494 79.1022 110.27 79.313 108.925 79.313C107.57 79.313 106.334 79.1022 105.218 78.6808C104.113 78.2479 103.156 77.6385 102.347 76.8526C101.55 76.0552 100.929 75.0927 100.485 73.965C100.052 72.826 99.8357 71.5502 99.8357 70.1377C99.8357 68.7367 100.052 67.478 100.485 66.3617C100.929 65.234 101.55 64.2772 102.347 63.4912C103.156 62.7053 104.113 62.1016 105.218 61.6801C106.334 61.2587 107.57 61.0479 108.925 61.0479ZM108.925 75.3832C110.144 75.3832 111.038 74.956 111.608 74.1017C112.189 73.236 112.479 71.9261 112.479 70.1719C112.479 68.4177 112.189 67.1135 111.608 66.2592C111.038 65.4049 110.144 64.9777 108.925 64.9777C107.672 64.9777 106.756 65.4049 106.175 66.2592C105.594 67.1135 105.303 68.4177 105.303 70.1719C105.303 71.9261 105.594 73.236 106.175 74.1017C106.756 74.956 107.672 75.3832 108.925 75.3832Z" fill="#1A1919"/>
<path d="M125.638 61.3213V79.0396H120.342V61.3213H125.638ZM126.253 56.4689C126.253 56.8903 126.168 57.289 125.997 57.6649C125.826 58.0294 125.593 58.354 125.297 58.6388C125 58.9122 124.653 59.1343 124.254 59.3051C123.867 59.4646 123.451 59.5444 123.007 59.5444C122.574 59.5444 122.17 59.4646 121.794 59.3051C121.418 59.1343 121.082 58.9122 120.786 58.6388C120.501 58.354 120.273 58.0294 120.102 57.6649C119.943 57.289 119.863 56.8903 119.863 56.4689C119.863 56.036 119.943 55.6316 120.102 55.2557C120.273 54.8798 120.501 54.5495 120.786 54.2647C121.082 53.98 121.418 53.7579 121.794 53.5984C122.17 53.4389 122.574 53.3592 123.007 53.3592C123.451 53.3592 123.867 53.4389 124.254 53.5984C124.653 53.7579 125 53.98 125.297 54.2647C125.593 54.5495 125.826 54.8798 125.997 55.2557C126.168 55.6316 126.253 56.036 126.253 56.4689Z" fill="#1A1919"/>
<path d="M129.232 79.0396V53.4617H134.528V63.2008C135.189 62.5515 135.935 62.0332 136.767 61.6459C137.61 61.2473 138.595 61.0479 139.723 61.0479C140.645 61.0479 141.5 61.2473 142.286 61.6459C143.072 62.0446 143.749 62.6312 144.319 63.4058C144.888 64.169 145.333 65.1087 145.652 66.225C145.982 67.3413 146.147 68.6114 146.147 70.0352C146.147 71.3679 145.959 72.5981 145.583 73.7258C145.219 74.8535 144.7 75.8331 144.028 76.6646C143.368 77.4962 142.57 78.1454 141.636 78.6124C140.714 79.0795 139.688 79.313 138.561 79.313C138.037 79.313 137.564 79.2617 137.143 79.1592C136.733 79.0567 136.351 78.9143 135.998 78.732C135.656 78.5384 135.337 78.3106 135.041 78.0486C134.756 77.7866 134.477 77.5019 134.204 77.1943L134.016 78.0828C133.936 78.4473 133.788 78.6979 133.572 78.8346C133.367 78.9713 133.093 79.0396 132.752 79.0396H129.232ZM137.877 65.029C137.49 65.029 137.137 65.0689 136.818 65.1486C136.51 65.2169 136.22 65.3195 135.947 65.4561C135.685 65.5928 135.44 65.7694 135.212 65.9858C134.984 66.1908 134.756 66.4301 134.528 66.7034V74.2213C134.927 74.6656 135.36 74.9788 135.827 75.1611C136.294 75.3319 136.784 75.4173 137.296 75.4173C137.786 75.4173 138.236 75.3205 138.646 75.1269C139.056 74.9332 139.409 74.6257 139.706 74.2042C140.013 73.7714 140.252 73.2132 140.423 72.5298C140.594 71.8463 140.679 71.0148 140.679 70.0352C140.679 69.1012 140.611 68.3152 140.474 67.6773C140.338 67.0395 140.144 66.5269 139.894 66.1396C139.654 65.7409 139.364 65.4561 139.022 65.2853C138.68 65.1144 138.299 65.029 137.877 65.029Z" fill="#1A1919"/>
<path d="M153.838 53.4617V79.0396H148.542V53.4617H153.838Z" fill="#1A1919"/>
<path d="M162.899 61.3213V79.0396H157.603V61.3213H162.899ZM167.188 53.8718L162.746 58.3654C162.484 58.6274 162.233 58.8153 161.994 58.9293C161.755 59.0318 161.436 59.083 161.037 59.083H157.859L160.183 54.8969C160.376 54.5666 160.604 54.316 160.866 54.1451C161.128 53.9629 161.527 53.8718 162.062 53.8718H167.188Z" fill="#1A1919"/>
<path d="M16.0862 84.5204C16.3368 84.5204 16.5476 84.5318 16.7184 84.5546C16.8893 84.5774 17.0431 84.623 17.1798 84.6913C17.3164 84.7483 17.4474 84.8337 17.5727 84.9476C17.698 85.0615 17.8404 85.2153 17.9999 85.4089L29.8235 100.359C29.7779 99.8809 29.7437 99.4195 29.721 98.9753C29.6982 98.5197 29.6868 98.0925 29.6868 97.6938V84.5204H34.7784V109.415H31.7713C31.3271 109.415 30.9512 109.347 30.6436 109.21C30.3361 109.073 30.0399 108.823 29.7551 108.458L18.017 93.6273C18.0512 94.0602 18.0796 94.4873 18.1024 94.9088C18.1252 95.3189 18.1366 95.7061 18.1366 96.0707V109.415H13.0449V84.5204H16.0862Z" fill="#1A1919"/>
<path d="M43.6584 91.6966V109.415H38.3617V91.6966H43.6584ZM47.947 84.2471L43.5046 88.7407C43.2427 89.0027 42.9921 89.1906 42.7529 89.3045C42.5136 89.4071 42.1947 89.4583 41.796 89.4583H38.618L40.9417 85.2722C41.1354 84.9419 41.3632 84.6913 41.6252 84.5204C41.8872 84.3382 42.2858 84.2471 42.8212 84.2471H47.947Z" fill="#1A1919"/>
<path d="M55.1456 91.4232C56.4897 91.4232 57.7142 91.634 58.8191 92.0554C59.924 92.4769 60.8695 93.0806 61.6554 93.8665C62.4528 94.6525 63.0679 95.6093 63.5007 96.737C63.945 97.8533 64.1671 99.112 64.1671 100.513C64.1671 101.925 63.945 103.201 63.5007 104.34C63.0679 105.468 62.4528 106.431 61.6554 107.228C60.8695 108.014 59.924 108.623 58.8191 109.056C57.7142 109.478 56.4897 109.688 55.1456 109.688C53.7901 109.688 52.5542 109.478 51.4379 109.056C50.333 108.623 49.3762 108.014 48.5675 107.228C47.7701 106.431 47.1493 105.468 46.7051 104.34C46.2722 103.201 46.0558 101.925 46.0558 100.513C46.0558 99.112 46.2722 97.8533 46.7051 96.737C47.1493 95.6093 47.7701 94.6525 48.5675 93.8665C49.3762 93.0806 50.333 92.4769 51.4379 92.0554C52.5542 91.634 53.7901 91.4232 55.1456 91.4232ZM55.1456 105.758C56.3644 105.758 57.2586 105.331 57.8281 104.477C58.4091 103.611 58.6995 102.301 58.6995 100.547C58.6995 98.793 58.4091 97.4888 57.8281 96.6345C57.2586 95.7802 56.3644 95.353 55.1456 95.353C53.8926 95.353 52.9757 95.7802 52.3948 96.6345C51.8138 97.4888 51.5234 98.793 51.5234 100.547C51.5234 102.301 51.8138 103.611 52.3948 104.477C52.9757 105.331 53.8926 105.758 55.1456 105.758Z" fill="#1A1919"/>
<path d="M77.2235 95.5752C77.0868 95.7916 76.9388 95.9454 76.7793 96.0365C76.6312 96.1276 76.4376 96.1732 76.1984 96.1732C75.9478 96.1732 75.6972 96.1219 75.4466 96.0194C75.196 95.9055 74.9226 95.7859 74.6264 95.6606C74.3417 95.5353 74.017 95.4214 73.6525 95.3189C73.288 95.205 72.8723 95.148 72.4053 95.148C71.7332 95.148 71.2149 95.279 70.8504 95.541C70.4973 95.7916 70.3207 96.1447 70.3207 96.6003C70.3207 96.9307 70.4347 97.204 70.6625 97.4205C70.9017 97.6369 71.2149 97.8305 71.6022 98.0014C71.9895 98.1608 72.428 98.3146 72.9178 98.4627C73.4076 98.6108 73.9088 98.776 74.4214 98.9582C74.934 99.1405 75.4352 99.3569 75.925 99.6075C76.4148 99.8467 76.8533 100.149 77.2406 100.513C77.6279 100.866 77.9355 101.299 78.1633 101.812C78.4025 102.324 78.5221 102.939 78.5221 103.657C78.5221 104.534 78.3626 105.343 78.0437 106.083C77.7247 106.824 77.2463 107.461 76.6084 107.997C75.9819 108.532 75.2017 108.948 74.2676 109.244C73.345 109.54 72.28 109.688 71.0725 109.688C70.4688 109.688 69.8651 109.631 69.2614 109.517C68.6577 109.404 68.0711 109.25 67.5015 109.056C66.9434 108.862 66.4251 108.635 65.9467 108.373C65.4683 108.099 65.0582 107.809 64.7165 107.501L65.9467 105.553C66.0948 105.326 66.2713 105.149 66.4764 105.024C66.6814 104.887 66.9491 104.819 67.2794 104.819C67.587 104.819 67.8603 104.887 68.0996 105.024C68.3502 105.16 68.6178 105.309 68.9026 105.468C69.1874 105.627 69.5177 105.776 69.8936 105.912C70.2809 106.049 70.765 106.117 71.3459 106.117C71.756 106.117 72.1034 106.077 72.3882 105.998C72.6729 105.907 72.9008 105.787 73.0716 105.639C73.2425 105.491 73.3678 105.326 73.4475 105.143C73.5272 104.961 73.5671 104.773 73.5671 104.58C73.5671 104.226 73.4475 103.936 73.2083 103.708C72.9691 103.48 72.6559 103.287 72.2686 103.127C71.8813 102.956 71.437 102.803 70.9358 102.666C70.446 102.518 69.9449 102.353 69.4323 102.17C68.9197 101.988 68.4128 101.772 67.9116 101.521C67.4218 101.259 66.9833 100.934 66.596 100.547C66.2087 100.149 65.8954 99.6644 65.6562 99.0949C65.417 98.5254 65.2974 97.8362 65.2974 97.0275C65.2974 96.2757 65.4398 95.5638 65.7246 94.8917C66.0207 94.2083 66.4593 93.6102 67.0402 93.0977C67.6211 92.5851 68.3502 92.1807 69.2272 91.8846C70.1043 91.577 71.1295 91.4232 72.3027 91.4232C72.9406 91.4232 73.5557 91.4802 74.148 91.5941C74.7517 91.708 75.3156 91.8675 75.8396 92.0725C76.3635 92.2775 76.8419 92.5224 77.2748 92.8072C77.7076 93.0806 78.0892 93.3824 78.4196 93.7128L77.2235 95.5752Z" fill="#1A1919"/>
<path d="M102.709 84.5204V88.9628H92.4913V95.2676H101V99.7271H92.4913V109.415H86.682V84.5204H102.709Z" fill="#1A1919"/>
<path d="M111.572 91.4232C112.745 91.4232 113.816 91.6055 114.784 91.97C115.764 92.3345 116.601 92.8642 117.296 93.559C118.002 94.2538 118.549 95.1081 118.936 96.1219C119.335 97.1243 119.534 98.2634 119.534 99.5391C119.534 99.9378 119.517 100.262 119.483 100.513C119.449 100.764 119.386 100.963 119.295 101.111C119.204 101.259 119.078 101.362 118.919 101.419C118.771 101.476 118.577 101.504 118.338 101.504H108.121C108.291 102.985 108.741 104.061 109.47 104.733C110.199 105.394 111.139 105.724 112.29 105.724C112.905 105.724 113.434 105.65 113.879 105.502C114.323 105.354 114.716 105.189 115.058 105.007C115.411 104.824 115.73 104.659 116.014 104.511C116.31 104.363 116.618 104.289 116.937 104.289C117.358 104.289 117.677 104.443 117.894 104.75L119.432 106.647C118.885 107.273 118.292 107.786 117.655 108.185C117.028 108.572 116.379 108.88 115.707 109.107C115.046 109.324 114.38 109.472 113.708 109.552C113.047 109.643 112.415 109.688 111.811 109.688C110.57 109.688 109.402 109.489 108.309 109.09C107.226 108.68 106.275 108.076 105.455 107.279C104.646 106.482 104.003 105.491 103.524 104.306C103.057 103.122 102.824 101.743 102.824 100.171C102.824 98.9867 103.023 97.8647 103.422 96.8053C103.832 95.746 104.413 94.8177 105.165 94.0203C105.928 93.223 106.845 92.5908 107.916 92.1238C108.998 91.6567 110.216 91.4232 111.572 91.4232ZM111.674 95.0797C110.661 95.0797 109.869 95.3701 109.299 95.951C108.73 96.5206 108.354 97.3464 108.172 98.4285H114.784C114.784 98.0071 114.727 97.597 114.613 97.1983C114.511 96.7997 114.334 96.4465 114.084 96.139C113.844 95.8201 113.525 95.5638 113.127 95.3701C112.728 95.1765 112.244 95.0797 111.674 95.0797Z" fill="#1A1919"/>
<path d="M134.124 109.415C133.623 109.415 133.241 109.347 132.979 109.21C132.728 109.073 132.518 108.788 132.347 108.356L131.971 107.382C131.527 107.758 131.099 108.088 130.689 108.373C130.279 108.657 129.852 108.902 129.408 109.107C128.975 109.301 128.508 109.443 128.007 109.535C127.517 109.637 126.97 109.688 126.367 109.688C125.558 109.688 124.823 109.586 124.163 109.381C123.502 109.164 122.938 108.851 122.471 108.441C122.015 108.031 121.662 107.524 121.412 106.92C121.161 106.305 121.036 105.599 121.036 104.802C121.036 104.175 121.195 103.532 121.514 102.871C121.833 102.21 122.386 101.612 123.172 101.077C123.958 100.53 125.017 100.074 126.35 99.71C127.682 99.3455 129.362 99.1405 131.39 99.0949V98.3431C131.39 97.3065 131.174 96.5604 130.741 96.1048C130.319 95.6378 129.716 95.4043 128.93 95.4043C128.303 95.4043 127.79 95.4726 127.392 95.6093C126.993 95.746 126.634 95.8998 126.315 96.0707C126.008 96.2415 125.706 96.3953 125.41 96.532C125.114 96.6687 124.761 96.737 124.35 96.737C123.986 96.737 123.673 96.6516 123.411 96.4807C123.16 96.2985 122.961 96.0763 122.813 95.8144L121.856 94.157C122.927 93.2116 124.111 92.511 125.41 92.0554C126.72 91.5884 128.121 91.3549 129.613 91.3549C130.684 91.3549 131.646 91.5314 132.501 91.8846C133.366 92.2263 134.095 92.7104 134.688 93.3369C135.291 93.952 135.753 94.6867 136.072 95.541C136.39 96.3953 136.55 97.3293 136.55 98.3431V109.415H134.124ZM128.041 106.186C128.725 106.186 129.323 106.066 129.835 105.827C130.348 105.588 130.866 105.2 131.39 104.665V102.205C130.331 102.25 129.459 102.341 128.776 102.478C128.092 102.615 127.551 102.785 127.153 102.991C126.754 103.196 126.475 103.429 126.315 103.691C126.167 103.953 126.093 104.238 126.093 104.545C126.093 105.149 126.258 105.576 126.589 105.827C126.919 106.066 127.403 106.186 128.041 106.186Z" fill="#1A1919"/>
<path d="M139.628 109.415V91.6966H142.771C143.033 91.6966 143.25 91.7194 143.421 91.765C143.603 91.8105 143.751 91.8846 143.865 91.9871C143.99 92.0782 144.081 92.2035 144.138 92.363C144.207 92.5224 144.264 92.7161 144.309 92.9439L144.6 94.6012C145.249 93.5989 145.978 92.8072 146.787 92.2263C147.595 91.6453 148.478 91.3549 149.435 91.3549C150.244 91.3549 150.893 91.5485 151.383 91.9358L150.699 95.8314C150.654 96.0707 150.563 96.2415 150.426 96.344C150.289 96.4352 150.107 96.4807 149.879 96.4807C149.686 96.4807 149.458 96.4579 149.196 96.4124C148.934 96.3554 148.603 96.3269 148.205 96.3269C146.815 96.3269 145.722 97.0673 144.924 98.5481V109.415H139.628Z" fill="#1A1919"/>
<path d="M153.06 109.415V91.6966H156.204C156.466 91.6966 156.682 91.7194 156.853 91.765C157.036 91.8105 157.184 91.8846 157.298 91.9871C157.423 92.0782 157.514 92.2035 157.571 92.363C157.639 92.5224 157.696 92.7161 157.742 92.9439L158.032 94.6012C158.682 93.5989 159.411 92.8072 160.219 92.2263C161.028 91.6453 161.911 91.3549 162.868 91.3549C163.676 91.3549 164.326 91.5485 164.815 91.9358L164.132 95.8314C164.086 96.0707 163.995 96.2415 163.859 96.344C163.722 96.4352 163.54 96.4807 163.312 96.4807C163.118 96.4807 162.89 96.4579 162.628 96.4124C162.366 96.3554 162.036 96.3269 161.637 96.3269C160.248 96.3269 159.154 97.0673 158.357 98.5481V109.415H153.06Z" fill="#1A1919"/>
<path d="M174.914 48.6643V23.7698H184.072C185.792 23.7698 187.256 23.9293 188.463 24.2483C189.67 24.5672 190.656 25.0171 191.419 25.5981C192.182 26.179 192.735 26.8852 193.076 27.7167C193.429 28.5483 193.606 29.4766 193.606 30.5018C193.606 31.0599 193.526 31.601 193.367 32.125C193.207 32.6375 192.957 33.1216 192.615 33.5773C192.273 34.0329 191.835 34.4487 191.299 34.8246C190.764 35.1891 190.12 35.508 189.369 35.7814C191.009 36.1801 192.222 36.8293 193.008 37.7292C193.794 38.6177 194.187 39.7624 194.187 41.1635C194.187 42.2228 193.982 43.2081 193.572 44.1194C193.162 45.0307 192.558 45.828 191.761 46.5115C190.975 47.1835 190.001 47.7132 188.839 48.1005C187.677 48.4764 186.35 48.6643 184.858 48.6643H174.914ZM180.689 38.1051V44.3073H184.755C185.519 44.3073 186.139 44.2105 186.618 44.0169C187.108 43.8232 187.489 43.5726 187.763 43.2651C188.036 42.9575 188.224 42.6101 188.326 42.2228C188.429 41.8356 188.48 41.4426 188.48 41.0439C188.48 40.5883 188.417 40.1782 188.292 39.8137C188.178 39.4492 187.973 39.1416 187.677 38.891C187.392 38.6405 187.011 38.4468 186.532 38.3101C186.054 38.1734 185.45 38.1051 184.721 38.1051H180.689ZM180.689 34.2436H183.696C184.334 34.2436 184.909 34.1981 185.422 34.1069C185.934 34.0158 186.367 33.8563 186.72 33.6285C187.085 33.4007 187.358 33.0875 187.54 32.6888C187.734 32.2901 187.831 31.7889 187.831 31.1852C187.831 30.5929 187.757 30.1031 187.609 29.7158C187.461 29.3171 187.233 28.9982 186.925 28.759C186.618 28.5198 186.225 28.3489 185.746 28.2464C185.279 28.1439 184.721 28.0926 184.072 28.0926H180.689V34.2436Z" fill="#1A1919"/>
<path d="M204.242 30.6726C205.415 30.6726 206.486 30.8549 207.454 31.2194C208.434 31.5839 209.271 32.1136 209.966 32.8084C210.672 33.5032 211.219 34.3575 211.606 35.3713C212.005 36.3737 212.204 37.5128 212.204 38.7885C212.204 39.1872 212.187 39.5118 212.153 39.7624C212.119 40.013 212.056 40.2124 211.965 40.3605C211.874 40.5085 211.749 40.6111 211.589 40.668C211.441 40.725 211.247 40.7534 211.008 40.7534H200.791C200.962 42.2342 201.411 43.3107 202.14 43.9827C202.869 44.6434 203.809 44.9737 204.96 44.9737C205.575 44.9737 206.104 44.8997 206.549 44.7516C206.993 44.6035 207.386 44.4383 207.728 44.2561C208.081 44.0738 208.4 43.9087 208.684 43.7606C208.981 43.6125 209.288 43.5385 209.607 43.5385C210.029 43.5385 210.348 43.6922 210.564 43.9998L212.102 45.8964C211.555 46.5228 210.963 47.0354 210.325 47.4341C209.698 47.8214 209.049 48.1289 208.377 48.3568C207.716 48.5732 207.05 48.7213 206.378 48.801C205.717 48.8921 205.085 48.9377 204.481 48.9377C203.24 48.9377 202.072 48.7383 200.979 48.3397C199.897 47.9296 198.945 47.3259 198.125 46.5285C197.317 45.7312 196.673 44.7402 196.195 43.5556C195.728 42.3709 195.494 40.9926 195.494 39.4207C195.494 38.2361 195.693 37.1141 196.092 36.0548C196.502 34.9954 197.083 34.0671 197.835 33.2697C198.598 32.4724 199.515 31.8402 200.586 31.3732C201.668 30.9061 202.887 30.6726 204.242 30.6726ZM204.345 34.3291C203.331 34.3291 202.539 34.6195 201.97 35.2005C201.4 35.77 201.024 36.5958 200.842 37.6779H207.454C207.454 37.2565 207.397 36.8464 207.283 36.4477C207.181 36.0491 207.004 35.6959 206.754 35.3884C206.515 35.0695 206.196 34.8132 205.797 34.6195C205.398 34.4259 204.914 34.3291 204.345 34.3291Z" fill="#1A1919"/>
<path d="M220.78 48.9377C219.937 48.9377 219.191 48.8181 218.541 48.5789C217.903 48.3283 217.362 47.9809 216.918 47.5366C216.485 47.081 216.155 46.5342 215.927 45.8964C215.699 45.2585 215.585 44.5466 215.585 43.7606V34.6024H214.082C213.808 34.6024 213.575 34.517 213.381 34.3461C213.188 34.1639 213.091 33.9019 213.091 33.5602V31.4928L215.91 30.946L216.952 26.6232C217.089 26.0765 217.476 25.8031 218.114 25.8031H220.882V30.9802H225.188V34.6024H220.882V43.4018C220.882 43.8118 220.979 44.1536 221.173 44.4269C221.378 44.6889 221.668 44.8199 222.044 44.8199C222.238 44.8199 222.397 44.8028 222.522 44.7687C222.659 44.7231 222.773 44.6775 222.864 44.632C222.967 44.575 223.058 44.5295 223.137 44.4953C223.229 44.4497 223.331 44.4269 223.445 44.4269C223.604 44.4269 223.73 44.4668 223.821 44.5466C223.923 44.6149 224.026 44.7288 224.128 44.8883L225.735 47.3999C225.051 47.9125 224.282 48.2998 223.428 48.5618C222.574 48.8124 221.691 48.9377 220.78 48.9377Z" fill="#1A1919"/>
<path d="M233.778 48.9377C232.935 48.9377 232.189 48.8181 231.54 48.5789C230.902 48.3283 230.361 47.9809 229.917 47.5366C229.484 47.081 229.154 46.5342 228.926 45.8964C228.698 45.2585 228.584 44.5466 228.584 43.7606V34.6024H227.081C226.807 34.6024 226.574 34.517 226.38 34.3461C226.186 34.1639 226.09 33.9019 226.09 33.5602V31.4928L228.909 30.946L229.951 26.6232C230.088 26.0765 230.475 25.8031 231.113 25.8031H233.881V30.9802H238.187V34.6024H233.881V43.4018C233.881 43.8118 233.978 44.1536 234.171 44.4269C234.376 44.6889 234.667 44.8199 235.043 44.8199C235.236 44.8199 235.396 44.8028 235.521 44.7687C235.658 44.7231 235.772 44.6775 235.863 44.632C235.965 44.575 236.057 44.5295 236.136 44.4953C236.227 44.4497 236.33 44.4269 236.444 44.4269C236.603 44.4269 236.729 44.4668 236.82 44.5466C236.922 44.6149 237.025 44.7288 237.127 44.8883L238.733 47.3999C238.05 47.9125 237.281 48.2998 236.427 48.5618C235.572 48.8124 234.69 48.9377 233.778 48.9377Z" fill="#1A1919"/>
<path d="M248.144 30.6726C249.317 30.6726 250.388 30.8549 251.356 31.2194C252.336 31.5839 253.173 32.1136 253.868 32.8084C254.574 33.5032 255.121 34.3575 255.508 35.3713C255.907 36.3737 256.106 37.5128 256.106 38.7885C256.106 39.1872 256.089 39.5118 256.055 39.7624C256.021 40.013 255.958 40.2124 255.867 40.3605C255.776 40.5085 255.651 40.6111 255.491 40.668C255.343 40.725 255.149 40.7534 254.91 40.7534H244.693C244.863 42.2342 245.313 43.3107 246.042 43.9827C246.771 44.6434 247.711 44.9737 248.862 44.9737C249.477 44.9737 250.006 44.8997 250.451 44.7516C250.895 44.6035 251.288 44.4383 251.63 44.2561C251.983 44.0738 252.302 43.9087 252.586 43.7606C252.883 43.6125 253.19 43.5385 253.509 43.5385C253.931 43.5385 254.249 43.6922 254.466 43.9998L256.004 45.8964C255.457 46.5228 254.865 47.0354 254.227 47.4341C253.6 47.8214 252.951 48.1289 252.279 48.3568C251.618 48.5732 250.952 48.7213 250.28 48.801C249.619 48.8921 248.987 48.9377 248.383 48.9377C247.142 48.9377 245.974 48.7383 244.881 48.3397C243.798 47.9296 242.847 47.3259 242.027 46.5285C241.218 45.7312 240.575 44.7402 240.096 43.5556C239.629 42.3709 239.396 40.9926 239.396 39.4207C239.396 38.2361 239.595 37.1141 239.994 36.0548C240.404 34.9954 240.985 34.0671 241.737 33.2697C242.5 32.4724 243.417 31.8402 244.488 31.3732C245.57 30.9061 246.789 30.6726 248.144 30.6726ZM248.247 34.3291C247.233 34.3291 246.441 34.6195 245.872 35.2005C245.302 35.77 244.926 36.5958 244.744 37.6779H251.356C251.356 37.2565 251.299 36.8464 251.185 36.4477C251.083 36.0491 250.906 35.6959 250.656 35.3884C250.416 35.0695 250.098 34.8132 249.699 34.6195C249.3 34.4259 248.816 34.3291 248.247 34.3291Z" fill="#1A1919"/>
<path d="M258.462 48.6643V30.946H261.606C261.868 30.946 262.084 30.9688 262.255 31.0144C262.438 31.0599 262.586 31.134 262.7 31.2365C262.825 31.3276 262.916 31.4529 262.973 31.6124C263.041 31.7718 263.098 31.9655 263.144 32.1933L263.434 33.8506C264.084 32.8483 264.813 32.0566 265.621 31.4757C266.43 30.8948 267.313 30.6043 268.27 30.6043C269.078 30.6043 269.728 30.7979 270.217 31.1852L269.534 35.0808C269.488 35.3201 269.397 35.4909 269.261 35.5934C269.124 35.6846 268.942 35.7301 268.714 35.7301C268.52 35.7301 268.292 35.7073 268.03 35.6618C267.768 35.6048 267.438 35.5763 267.039 35.5763C265.65 35.5763 264.556 36.3167 263.759 37.7975V48.6643H258.462Z" fill="#1A1919"/>
<path d="M180.689 70.7187V79.0396H174.914V54.1451H183.696C185.45 54.1451 186.954 54.3559 188.207 54.7773C189.471 55.1874 190.508 55.7569 191.316 56.4859C192.137 57.2149 192.74 58.075 193.128 59.0659C193.515 60.0569 193.708 61.1277 193.708 62.2781C193.708 63.5197 193.509 64.6588 193.11 65.6954C192.712 66.7319 192.102 67.6204 191.282 68.3608C190.462 69.1012 189.42 69.6821 188.156 70.1036C186.903 70.5136 185.416 70.7187 183.696 70.7187H180.689ZM180.689 66.3617H183.696C185.2 66.3617 186.282 66.0029 186.942 65.2853C187.603 64.5677 187.933 63.5653 187.933 62.2781C187.933 61.7086 187.848 61.1903 187.677 60.7233C187.506 60.2563 187.244 59.8576 186.891 59.5273C186.549 59.1855 186.111 58.9236 185.576 58.7413C185.052 58.5591 184.425 58.4679 183.696 58.4679H180.689V66.3617Z" fill="#1A1919"/>
<path d="M200.977 61.3213V72.564C200.977 73.4411 201.176 74.1188 201.575 74.5972C201.973 75.0756 202.56 75.3148 203.335 75.3148C203.916 75.3148 204.457 75.1952 204.958 74.956C205.47 74.7168 205.966 74.3808 206.444 73.9479V61.3213H211.741V79.0396H208.46C207.8 79.0396 207.367 78.7434 207.162 78.1511L206.837 77.126C206.496 77.4563 206.142 77.7581 205.778 78.0315C205.413 78.2935 205.02 78.5213 204.599 78.715C204.189 78.8972 203.745 79.0396 203.266 79.1421C202.788 79.256 202.264 79.313 201.694 79.313C200.726 79.313 199.866 79.1478 199.114 78.8175C198.374 78.4758 197.747 78.003 197.235 77.3993C196.722 76.7956 196.335 76.0837 196.073 75.2636C195.811 74.4434 195.68 73.5436 195.68 72.564V61.3213H200.977Z" fill="#1A1919"/>
<path d="M215.161 79.0396V53.4617H220.458V63.2008C221.118 62.5515 221.864 62.0332 222.696 61.6459C223.539 61.2473 224.524 61.0479 225.652 61.0479C226.574 61.0479 227.429 61.2473 228.215 61.6459C229.001 62.0446 229.678 62.6312 230.248 63.4058C230.817 64.169 231.262 65.1087 231.581 66.225C231.911 67.3413 232.076 68.6114 232.076 70.0352C232.076 71.3679 231.888 72.5981 231.512 73.7258C231.148 74.8535 230.63 75.8331 229.957 76.6646C229.297 77.4962 228.499 78.1454 227.565 78.6124C226.643 79.0795 225.618 79.313 224.49 79.313C223.966 79.313 223.493 79.2617 223.072 79.1592C222.662 79.0567 222.28 78.9143 221.927 78.732C221.585 78.5384 221.266 78.3106 220.97 78.0486C220.685 77.7866 220.406 77.5019 220.133 77.1943L219.945 78.0828C219.865 78.4473 219.717 78.6979 219.501 78.8346C219.296 78.9713 219.022 79.0396 218.681 79.0396H215.161ZM223.806 65.029C223.419 65.029 223.066 65.0689 222.747 65.1486C222.44 65.2169 222.149 65.3195 221.876 65.4561C221.614 65.5928 221.369 65.7694 221.141 65.9858C220.913 66.1908 220.685 66.4301 220.458 66.7034V74.2213C220.856 74.6656 221.289 74.9788 221.756 75.1611C222.223 75.3319 222.713 75.4173 223.226 75.4173C223.715 75.4173 224.165 75.3205 224.575 75.1269C224.985 74.9332 225.339 74.6257 225.635 74.2042C225.942 73.7714 226.181 73.2132 226.352 72.5298C226.523 71.8463 226.609 71.0148 226.609 70.0352C226.609 69.1012 226.54 68.3152 226.404 67.6773C226.267 67.0395 226.073 66.5269 225.823 66.1396C225.583 65.7409 225.293 65.4561 224.951 65.2853C224.61 65.1144 224.228 65.029 223.806 65.029Z" fill="#1A1919"/>
<path d="M239.768 53.4617V79.0396H234.471V53.4617H239.768Z" fill="#1A1919"/>
<path d="M248.829 61.3213V79.0396H243.532V61.3213H248.829ZM249.444 56.4689C249.444 56.8903 249.358 57.289 249.187 57.6649C249.016 58.0294 248.783 58.354 248.487 58.6388C248.191 58.9122 247.843 59.1343 247.445 59.3051C247.057 59.4646 246.642 59.5444 246.197 59.5444C245.764 59.5444 245.36 59.4646 244.984 59.3051C244.608 59.1343 244.272 58.9122 243.976 58.6388C243.691 58.354 243.464 58.0294 243.293 57.6649C243.133 57.289 243.053 56.8903 243.053 56.4689C243.053 56.036 243.133 55.6316 243.293 55.2557C243.464 54.8798 243.691 54.5495 243.976 54.2647C244.272 53.98 244.608 53.7579 244.984 53.5984C245.36 53.4389 245.764 53.3592 246.197 53.3592C246.642 53.3592 247.057 53.4389 247.445 53.5984C247.843 53.7579 248.191 53.98 248.487 54.2647C248.783 54.5495 249.016 54.8798 249.187 55.2557C249.358 55.6316 249.444 56.036 249.444 56.4689Z" fill="#1A1919"/>
<path d="M265.202 65.5245C265.043 65.7181 264.889 65.8719 264.741 65.9858C264.593 66.0997 264.382 66.1567 264.109 66.1567C263.847 66.1567 263.608 66.094 263.391 65.9687C263.186 65.8434 262.953 65.7067 262.691 65.5587C262.429 65.3992 262.121 65.2568 261.768 65.1315C261.415 65.0062 260.976 64.9436 260.452 64.9436C259.803 64.9436 259.239 65.0632 258.761 65.3024C258.294 65.5416 257.907 65.8833 257.599 66.3275C257.291 66.7718 257.064 67.3185 256.916 67.9678C256.768 68.6057 256.693 69.329 256.693 70.1377C256.693 71.835 257.018 73.1392 257.667 74.0505C258.328 74.9617 259.234 75.4173 260.384 75.4173C260.999 75.4173 261.483 75.3433 261.836 75.1952C262.201 75.0358 262.508 74.8649 262.759 74.6826C263.01 74.489 263.237 74.3124 263.442 74.153C263.659 73.9935 263.927 73.9138 264.246 73.9138C264.667 73.9138 264.986 74.0675 265.202 74.3751L266.74 76.2717C266.193 76.8981 265.618 77.4107 265.014 77.8094C264.411 78.1967 263.79 78.5042 263.152 78.732C262.526 78.9485 261.893 79.0966 261.255 79.1763C260.618 79.2674 259.997 79.313 259.393 79.313C258.311 79.313 257.274 79.1079 256.283 78.6979C255.304 78.2878 254.438 77.6955 253.686 76.9209C252.946 76.135 252.354 75.1724 251.909 74.0334C251.477 72.8943 251.26 71.5958 251.26 70.1377C251.26 68.862 251.448 67.6716 251.824 66.5667C252.211 65.4505 252.775 64.4879 253.515 63.6792C254.267 62.8591 255.19 62.2155 256.283 61.7485C257.388 61.2814 258.664 61.0479 260.111 61.0479C261.5 61.0479 262.719 61.27 263.767 61.7143C264.815 62.1585 265.761 62.8078 266.603 63.6621L265.202 65.5245Z" fill="#1A1919"/>
<path d="M188.788 89.5779C188.617 89.8513 188.435 90.0563 188.241 90.193C188.059 90.3297 187.819 90.3981 187.523 90.3981C187.261 90.3981 186.977 90.3183 186.669 90.1589C186.373 89.988 186.031 89.8 185.644 89.595C185.268 89.39 184.835 89.2077 184.345 89.0483C183.856 88.8774 183.297 88.792 182.671 88.792C181.589 88.792 180.78 89.0255 180.245 89.4925C179.721 89.9481 179.459 90.5689 179.459 91.3549C179.459 91.8561 179.618 92.2718 179.937 92.6022C180.256 92.9325 180.672 93.2173 181.184 93.4565C181.708 93.6957 182.301 93.9178 182.961 94.1228C183.633 94.3165 184.317 94.5386 185.012 94.7892C185.707 95.0284 186.384 95.3132 187.045 95.6435C187.717 95.9738 188.309 96.3953 188.822 96.9079C189.346 97.4205 189.767 98.0469 190.086 98.7873C190.405 99.5163 190.565 100.399 190.565 101.436C190.565 102.586 190.365 103.663 189.967 104.665C189.568 105.667 188.987 106.544 188.224 107.296C187.472 108.037 186.538 108.623 185.422 109.056C184.317 109.478 183.058 109.688 181.646 109.688C180.871 109.688 180.079 109.609 179.271 109.449C178.473 109.29 177.699 109.067 176.947 108.783C176.195 108.487 175.489 108.139 174.828 107.74C174.168 107.342 173.592 106.898 173.103 106.408L174.811 103.708C174.937 103.503 175.113 103.338 175.341 103.213C175.569 103.087 175.814 103.025 176.076 103.025C176.417 103.025 176.759 103.133 177.101 103.349C177.454 103.566 177.847 103.805 178.28 104.067C178.724 104.329 179.231 104.568 179.8 104.785C180.37 105.001 181.042 105.109 181.817 105.109C182.865 105.109 183.679 104.881 184.26 104.426C184.841 103.959 185.131 103.224 185.131 102.222C185.131 101.641 184.972 101.168 184.653 100.804C184.334 100.439 183.912 100.137 183.388 99.8979C182.876 99.6587 182.289 99.448 181.629 99.2658C180.968 99.0835 180.29 98.8842 179.595 98.6677C178.901 98.4399 178.223 98.1665 177.562 97.8476C176.901 97.5173 176.309 97.0901 175.785 96.5661C175.273 96.0308 174.857 95.3701 174.538 94.5842C174.219 93.7868 174.059 92.8072 174.059 91.6453C174.059 90.7113 174.247 89.8001 174.623 88.9116C174.999 88.0231 175.552 87.2314 176.281 86.5366C177.01 85.8418 177.904 85.2893 178.963 84.8793C180.023 84.4578 181.236 84.2471 182.603 84.2471C183.366 84.2471 184.106 84.3097 184.824 84.435C185.553 84.5489 186.242 84.7255 186.891 84.9647C187.54 85.1925 188.144 85.4716 188.702 85.8019C189.272 86.1208 189.779 86.4853 190.223 86.8954L188.788 89.5779Z" fill="#1A1919"/>
<path d="M200.338 91.4232C201.511 91.4232 202.582 91.6055 203.55 91.97C204.529 92.3345 205.367 92.8642 206.061 93.559C206.768 94.2538 207.314 95.1081 207.702 96.1219C208.1 97.1243 208.3 98.2634 208.3 99.5391C208.3 99.9378 208.283 100.262 208.249 100.513C208.214 100.764 208.152 100.963 208.061 101.111C207.969 101.259 207.844 101.362 207.685 101.419C207.537 101.476 207.343 101.504 207.104 101.504H196.886C197.057 102.985 197.507 104.061 198.236 104.733C198.965 105.394 199.905 105.724 201.055 105.724C201.67 105.724 202.2 105.65 202.644 105.502C203.088 105.354 203.481 105.189 203.823 105.007C204.176 104.824 204.495 104.659 204.78 104.511C205.076 104.363 205.384 104.289 205.703 104.289C206.124 104.289 206.443 104.443 206.66 104.75L208.197 106.647C207.65 107.273 207.058 107.786 206.42 108.185C205.794 108.572 205.145 108.88 204.472 109.107C203.812 109.324 203.145 109.472 202.473 109.552C201.813 109.643 201.181 109.688 200.577 109.688C199.335 109.688 198.168 109.489 197.074 109.09C195.992 108.68 195.041 108.076 194.221 107.279C193.412 106.482 192.769 105.491 192.29 104.306C191.823 103.122 191.59 101.743 191.59 100.171C191.59 98.9867 191.789 97.8647 192.188 96.8053C192.598 95.746 193.179 94.8177 193.93 94.0203C194.694 93.223 195.61 92.5908 196.681 92.1238C197.763 91.6567 198.982 91.4232 200.338 91.4232ZM200.44 95.0797C199.426 95.0797 198.635 95.3701 198.065 95.951C197.496 96.5206 197.12 97.3464 196.938 98.4285H203.55C203.55 98.0071 203.493 97.597 203.379 97.1983C203.276 96.7997 203.1 96.4465 202.849 96.139C202.61 95.8201 202.291 95.5638 201.892 95.3701C201.494 95.1765 201.01 95.0797 200.44 95.0797Z" fill="#1A1919"/>
<path d="M210.656 109.415V91.6966H213.8C214.062 91.6966 214.278 91.7194 214.449 91.765C214.631 91.8105 214.779 91.8846 214.893 91.9871C215.018 92.0782 215.11 92.2035 215.167 92.363C215.235 92.5224 215.292 92.7161 215.337 92.9439L215.628 94.6012C216.277 93.5989 217.006 92.8072 217.815 92.2263C218.624 91.6453 219.506 91.3549 220.463 91.3549C221.272 91.3549 221.921 91.5485 222.411 91.9358L221.728 95.8314C221.682 96.0707 221.591 96.2415 221.454 96.344C221.318 96.4352 221.135 96.4807 220.907 96.4807C220.714 96.4807 220.486 96.4579 220.224 96.4124C219.962 96.3554 219.632 96.3269 219.233 96.3269C217.843 96.3269 216.75 97.0673 215.952 98.5481V109.415H210.656Z" fill="#1A1919"/>
<path d="M233.896 109.415H229.078L222.209 91.6966H226.617C226.993 91.6966 227.306 91.7877 227.557 91.97C227.819 92.1408 227.995 92.3573 228.087 92.6193L230.547 100.564C230.741 101.214 230.923 101.846 231.094 102.461C231.276 103.076 231.43 103.691 231.555 104.306C231.68 103.691 231.834 103.076 232.016 102.461C232.199 101.846 232.392 101.214 232.597 100.564L235.16 92.6193C235.251 92.3573 235.422 92.1408 235.673 91.97C235.923 91.7877 236.22 91.6966 236.561 91.6966H240.764L233.896 109.415Z" fill="#1A1919"/>
<path d="M247.761 91.6966V109.415H242.464V91.6966H247.761ZM248.376 86.8442C248.376 87.2656 248.29 87.6643 248.119 88.0402C247.949 88.4047 247.715 88.7293 247.419 89.0141C247.123 89.2875 246.775 89.5096 246.377 89.6804C245.989 89.8399 245.574 89.9197 245.129 89.9197C244.697 89.9197 244.292 89.8399 243.916 89.6804C243.54 89.5096 243.204 89.2875 242.908 89.0141C242.623 88.7293 242.396 88.4047 242.225 88.0402C242.065 87.6643 241.986 87.2656 241.986 86.8442C241.986 86.4113 242.065 86.0069 242.225 85.631C242.396 85.2551 242.623 84.9248 242.908 84.64C243.204 84.3553 243.54 84.1332 243.916 83.9737C244.292 83.8142 244.697 83.7345 245.129 83.7345C245.574 83.7345 245.989 83.8142 246.377 83.9737C246.775 84.1332 247.123 84.3553 247.419 84.64C247.715 84.9248 247.949 85.2551 248.119 85.631C248.29 86.0069 248.376 86.4113 248.376 86.8442Z" fill="#1A1919"/>
<path d="M264.134 95.8998C263.975 96.0934 263.821 96.2472 263.673 96.3611C263.525 96.475 263.314 96.532 263.041 96.532C262.779 96.532 262.54 96.4693 262.323 96.344C262.118 96.2187 261.885 96.082 261.623 95.934C261.361 95.7745 261.053 95.6321 260.7 95.5068C260.347 95.3815 259.909 95.3189 259.385 95.3189C258.735 95.3189 258.171 95.4385 257.693 95.6777C257.226 95.9169 256.839 96.2586 256.531 96.7028C256.224 97.1471 255.996 97.6938 255.848 98.3431C255.7 98.981 255.626 99.7043 255.626 100.513C255.626 102.21 255.95 103.514 256.6 104.426C257.26 105.337 258.166 105.793 259.316 105.793C259.931 105.793 260.415 105.719 260.769 105.571C261.133 105.411 261.441 105.24 261.691 105.058C261.942 104.864 262.17 104.688 262.375 104.528C262.591 104.369 262.859 104.289 263.178 104.289C263.599 104.289 263.918 104.443 264.134 104.75L265.672 106.647C265.125 107.273 264.55 107.786 263.947 108.185C263.343 108.572 262.722 108.88 262.084 109.107C261.458 109.324 260.825 109.472 260.188 109.552C259.55 109.643 258.929 109.688 258.325 109.688C257.243 109.688 256.207 109.483 255.216 109.073C254.236 108.663 253.37 108.071 252.618 107.296C251.878 106.51 251.286 105.548 250.841 104.409C250.409 103.27 250.192 101.971 250.192 100.513C250.192 99.2373 250.38 98.0469 250.756 96.942C251.143 95.8257 251.707 94.8632 252.448 94.0545C253.199 93.2344 254.122 92.5908 255.216 92.1238C256.32 91.6567 257.596 91.4232 259.043 91.4232C260.433 91.4232 261.651 91.6453 262.699 92.0896C263.747 92.5338 264.693 93.1831 265.536 94.0374L264.134 95.8998Z" fill="#1A1919"/>
<path d="M274.876 91.4232C276.049 91.4232 277.12 91.6055 278.088 91.97C279.068 92.3345 279.905 92.8642 280.6 93.559C281.306 94.2538 281.853 95.1081 282.24 96.1219C282.639 97.1243 282.838 98.2634 282.838 99.5391C282.838 99.9378 282.821 100.262 282.787 100.513C282.752 100.764 282.69 100.963 282.599 101.111C282.508 101.259 282.382 101.362 282.223 101.419C282.075 101.476 281.881 101.504 281.642 101.504H271.424C271.595 102.985 272.045 104.061 272.774 104.733C273.503 105.394 274.443 105.724 275.593 105.724C276.208 105.724 276.738 105.65 277.182 105.502C277.627 105.354 278.02 105.189 278.361 105.007C278.714 104.824 279.033 104.659 279.318 104.511C279.614 104.363 279.922 104.289 280.241 104.289C280.662 104.289 280.981 104.443 281.198 104.75L282.735 106.647C282.189 107.273 281.596 107.786 280.958 108.185C280.332 108.572 279.683 108.88 279.011 109.107C278.35 109.324 277.684 109.472 277.012 109.552C276.351 109.643 275.719 109.688 275.115 109.688C273.873 109.688 272.706 109.489 271.612 109.09C270.53 108.68 269.579 108.076 268.759 107.279C267.95 106.482 267.307 105.491 266.828 104.306C266.361 103.122 266.128 101.743 266.128 100.171C266.128 98.9867 266.327 97.8647 266.726 96.8053C267.136 95.746 267.717 94.8177 268.468 94.0203C269.232 93.223 270.149 92.5908 271.219 92.1238C272.301 91.6567 273.52 91.4232 274.876 91.4232ZM274.978 95.0797C273.965 95.0797 273.173 95.3701 272.603 95.951C272.034 96.5206 271.658 97.3464 271.476 98.4285H278.088C278.088 98.0071 278.031 97.597 277.917 97.1983C277.815 96.7997 277.638 96.4465 277.387 96.139C277.148 95.8201 276.829 95.5638 276.431 95.3701C276.032 95.1765 275.548 95.0797 274.978 95.0797Z" fill="#1A1919"/>
<path d="M296.026 95.5752C295.89 95.7916 295.742 95.9454 295.582 96.0365C295.434 96.1276 295.241 96.1732 295.001 96.1732C294.751 96.1732 294.5 96.1219 294.25 96.0194C293.999 95.9055 293.726 95.7859 293.429 95.6606C293.145 95.5353 292.82 95.4214 292.456 95.3189C292.091 95.205 291.675 95.148 291.208 95.148C290.536 95.148 290.018 95.279 289.653 95.541C289.3 95.7916 289.124 96.1447 289.124 96.6003C289.124 96.9307 289.238 97.204 289.465 97.4205C289.705 97.6369 290.018 97.8305 290.405 98.0014C290.792 98.1608 291.231 98.3146 291.721 98.4627C292.211 98.6108 292.712 98.776 293.224 98.9582C293.737 99.1405 294.238 99.3569 294.728 99.6075C295.218 99.8467 295.656 100.149 296.044 100.513C296.431 100.866 296.738 101.299 296.966 101.812C297.205 102.324 297.325 102.939 297.325 103.657C297.325 104.534 297.166 105.343 296.847 106.083C296.528 106.824 296.049 107.461 295.411 107.997C294.785 108.532 294.005 108.948 293.071 109.244C292.148 109.54 291.083 109.688 289.876 109.688C289.272 109.688 288.668 109.631 288.064 109.517C287.461 109.404 286.874 109.25 286.304 109.056C285.746 108.862 285.228 108.635 284.75 108.373C284.271 108.099 283.861 107.809 283.519 107.501L284.75 105.553C284.898 105.326 285.074 105.149 285.279 105.024C285.484 104.887 285.752 104.819 286.082 104.819C286.39 104.819 286.663 104.887 286.903 105.024C287.153 105.16 287.421 105.309 287.706 105.468C287.99 105.627 288.321 105.776 288.697 105.912C289.084 106.049 289.568 106.117 290.149 106.117C290.559 106.117 290.906 106.077 291.191 105.998C291.476 105.907 291.704 105.787 291.875 105.639C292.045 105.491 292.171 105.326 292.25 105.143C292.33 104.961 292.37 104.773 292.37 104.58C292.37 104.226 292.25 103.936 292.011 103.708C291.772 103.48 291.459 103.287 291.072 103.127C290.684 102.956 290.24 102.803 289.739 102.666C289.249 102.518 288.748 102.353 288.235 102.17C287.723 101.988 287.216 101.772 286.715 101.521C286.225 101.259 285.786 100.934 285.399 100.547C285.012 100.149 284.698 99.6644 284.459 99.0949C284.22 98.5254 284.1 97.8362 284.1 97.0275C284.1 96.2757 284.243 95.5638 284.528 94.8917C284.824 94.2083 285.262 93.6102 285.843 93.0977C286.424 92.5851 287.153 92.1807 288.03 91.8846C288.907 91.577 289.932 91.4232 291.106 91.4232C291.744 91.4232 292.359 91.4802 292.951 91.5941C293.555 91.708 294.119 91.8675 294.643 92.0725C295.166 92.2775 295.645 92.5224 296.078 92.8072C296.511 93.0806 296.892 93.3824 297.223 93.7128L296.026 95.5752Z" fill="#1A1919"/>
</svg>
