<svg width="453" height="134" viewBox="0 0 453 134" fill="none" xmlns="http://www.w3.org/2000/svg">
<path d="M250.906 39.6424C249.346 40.2676 247.678 40.5753 245.998 40.5476C243.821 40.6859 241.671 40.0121 239.963 38.6568C239.118 37.8504 238.453 36.8742 238.013 35.7924C237.573 34.7106 237.367 33.5478 237.408 32.3806C237.402 31.1454 237.652 29.9222 238.141 28.7881C238.631 27.654 239.35 26.6335 240.253 25.7908C241.156 24.9481 242.224 24.3015 243.389 23.8916C244.554 23.4816 245.792 23.3173 247.024 23.4089C247.547 23.4089 248.11 23.4089 248.633 23.4089C248.633 23.4089 249.055 23.4089 249.719 23.5699H250.142H250.363H250.825C250.95 23.6067 251.082 23.6113 251.208 23.5831C251.335 23.555 251.453 23.495 251.55 23.4089V28.3172H250.705C250.644 27.7131 250.488 27.1224 250.242 26.5671C249.888 25.9246 249.351 25.4018 248.699 25.0651C248.047 24.7284 247.31 24.5931 246.581 24.6762C242.839 24.6762 240.365 27.4522 240.365 31.6363C240.365 35.8204 242.819 39.1999 246.199 39.1999C247.333 39.1758 248.431 38.7929 249.335 38.1063C250.238 37.4197 250.901 36.4645 251.228 35.3779H252.133L250.906 39.6424Z" fill="#1A1919"/>
<path d="M253.983 40.1861V39.3211L255.13 39.1199C255.203 39.1174 255.275 39.1002 255.341 39.0692C255.408 39.0382 255.467 38.9942 255.516 38.9397C255.565 38.8852 255.602 38.8214 255.626 38.7521C255.649 38.6829 255.659 38.6095 255.653 38.5366V23.7917C255.653 23.3893 255.553 23.2284 255.19 23.2083L253.179 23.0272V22.2226L258.449 21.6191C258.222 22.0667 258.118 22.5665 258.147 23.0675V38.5366C258.147 38.9389 258.147 39.0194 258.63 39.0998L260.038 39.3211V40.1861H254.004H253.983Z" fill="#1A1919"/>
<path d="M270.378 40.528C269.131 40.528 268.487 39.7636 268.245 38.0739C267.855 38.7639 267.296 39.3436 266.62 39.7588C265.945 40.1739 265.175 40.4109 264.383 40.4476C264.042 40.4859 263.696 40.4495 263.37 40.341C263.043 40.2325 262.745 40.0544 262.494 39.8191C262.244 39.5838 262.047 39.2969 261.918 38.9782C261.789 38.6595 261.731 38.3167 261.748 37.9733C261.748 35.9617 264.242 34.2519 268.145 33.6484V31.6368C268.231 31.2948 268.233 30.937 268.151 30.5939C268.07 30.2509 267.906 29.9325 267.675 29.666C267.444 29.3995 267.153 29.1926 266.825 29.0629C266.497 28.9333 266.142 28.8847 265.791 28.9212C265.542 28.8804 265.287 28.9053 265.051 28.9935C264.814 29.0817 264.605 29.2301 264.444 29.4241C264.314 29.7217 264.259 30.046 264.283 30.3695C263.799 30.8029 263.181 31.0584 262.533 31.0937C262.405 31.1115 262.276 31.0797 262.171 31.0049C262.066 30.93 261.994 30.8178 261.969 30.6914C262.021 30.4329 262.146 30.1951 262.331 30.0075C262.973 29.2047 263.771 28.541 264.677 28.0568C265.583 27.5726 266.578 27.2781 267.602 27.1912C268.029 27.2028 268.449 27.3058 268.834 27.4932C269.218 27.6806 269.558 27.9482 269.831 28.2778C270.103 28.6074 270.302 28.9916 270.414 29.4044C270.525 29.8172 270.547 30.2492 270.478 30.6713C270.49 30.7715 270.49 30.8728 270.478 30.973L270.378 35.9215V36.183C270.378 38.1946 270.639 38.6774 271.565 38.6774C272.095 38.6515 272.606 38.4695 273.033 38.1544C272.986 38.8178 272.683 39.4369 272.187 39.8802C271.691 40.3234 271.042 40.5559 270.378 40.528ZM268.185 34.4933C265.449 35.0565 263.88 35.9617 263.88 37.048C263.89 37.2683 263.945 37.4843 264.04 37.6833C264.135 37.8823 264.269 38.0602 264.434 38.2065C264.599 38.3528 264.792 38.4645 265.001 38.535C265.21 38.6055 265.431 38.6334 265.651 38.617C266.575 38.5644 267.46 38.2272 268.185 37.6515V34.5536V34.4933ZM267.119 26.2056L266.113 25.8234L268.125 21.6191L270.297 22.3835L267.119 26.2056Z" fill="#1A1919"/>
<path d="M281.502 30.4501C281.404 30.1626 281.211 29.9167 280.956 29.7524C280.7 29.5881 280.396 29.515 280.094 29.5449C279.392 29.5639 278.721 29.8353 278.203 30.3093V38.5568C278.203 38.9591 278.203 39.0597 278.666 39.1201L280.677 39.3413V40.2063H274.059V39.3212L275.226 39.1201C275.299 39.1176 275.371 39.1003 275.437 39.0693C275.504 39.0384 275.563 38.9943 275.612 38.9398C275.661 38.8853 275.698 38.8216 275.721 38.7523C275.745 38.683 275.754 38.6097 275.749 38.5367V29.9674C275.756 29.8953 275.746 29.8226 275.721 29.7547C275.695 29.6869 275.655 29.6256 275.603 29.5753C275.551 29.5251 275.488 29.4873 275.419 29.4646C275.351 29.4419 275.278 29.435 275.206 29.4444L274.301 29.3237V28.7001L278.203 26.6885V29.7662C278.448 29.3407 278.738 28.9428 279.068 28.5794C279.388 28.2069 279.778 27.9013 280.217 27.6804C280.655 27.4594 281.133 27.3274 281.623 27.292C281.796 27.26 281.975 27.2659 282.146 27.3093C282.317 27.3527 282.477 27.4324 282.614 27.5432C282.752 27.654 282.864 27.7931 282.943 27.9511C283.022 28.1091 283.065 28.2822 283.071 28.4587C283.014 28.9013 282.837 29.3201 282.561 29.6706C282.285 30.0212 281.919 30.2906 281.502 30.4501Z" fill="#1A1919"/>
<path d="M301.859 40.1861H288.925V39.2809L290.936 39.0596C291.54 39.0596 291.721 38.8383 291.721 38.3354V25.5418C291.721 25.0389 291.54 24.8779 290.936 24.8176L288.925 24.5963V23.671H299.184H300.371C300.945 23.6751 301.512 23.5369 302.02 23.2687V27.835H301.195C301.297 27.4435 301.294 27.0323 301.187 26.6423C301.08 26.2522 300.873 25.897 300.586 25.6121C300.299 25.3271 299.943 25.1224 299.552 25.0183C299.161 24.9142 298.75 24.9143 298.359 25.0187H294.336V30.8926H298.621C298.748 30.9104 298.878 30.8786 298.982 30.8037C299.087 30.7289 299.159 30.6167 299.184 30.4903L299.606 29.0822H300.33V34.5134H299.546L299.123 32.6628C299.124 32.5958 299.11 32.5296 299.083 32.4682C299.056 32.4069 299.017 32.3517 298.968 32.3063C298.919 32.2609 298.861 32.2263 298.798 32.2045C298.734 32.1828 298.667 32.1744 298.6 32.18H294.356V37.9935C294.356 38.4964 294.758 38.6975 295.845 38.6975H298.379C299.384 38.7741 300.38 38.4567 301.155 37.8124C301.414 37.5962 301.627 37.3292 301.779 37.0279C302.08 36.6154 302.305 36.1521 302.443 35.66H303.408L301.859 40.1861ZM297.172 22.4037L296.126 22.0215L298.138 17.6362L300.391 18.4409L297.172 22.4037Z" fill="#1A1919"/>
<path d="M305.5 40.1852V39.3202L306.687 39.1191C306.76 39.1166 306.832 39.0993 306.898 39.0683C306.965 39.0373 307.024 38.9933 307.073 38.9388C307.122 38.8843 307.159 38.8205 307.183 38.7513C307.206 38.682 307.215 38.6087 307.21 38.5357V29.9663C307.226 29.8916 307.225 29.814 307.205 29.74C307.186 29.666 307.149 29.5977 307.098 29.5407C307.047 29.4838 306.983 29.4397 306.911 29.4123C306.84 29.3849 306.763 29.3748 306.687 29.383L305.802 29.2623V28.699L309.704 26.6875V38.4552C309.704 38.8576 309.704 38.938 310.187 39.0185L311.595 39.2398V40.1047H305.56L305.5 40.1852ZM308.457 24.877C308.142 24.877 307.834 24.7833 307.572 24.6078C307.31 24.4322 307.107 24.1828 306.987 23.8913C306.867 23.5997 306.837 23.2792 306.9 22.9704C306.963 22.6616 307.116 22.3785 307.341 22.157C307.565 21.9356 307.85 21.7859 308.16 21.7269C308.469 21.6678 308.789 21.7022 309.079 21.8256C309.369 21.9489 309.616 22.1557 309.788 22.4197C309.96 22.6837 310.05 22.9929 310.046 23.308C310.046 23.5158 310.005 23.7214 309.925 23.9131C309.845 24.1048 309.727 24.2787 309.58 24.4246C309.432 24.5706 309.256 24.6858 309.064 24.7634C308.871 24.8411 308.665 24.8797 308.457 24.877Z" fill="#1A1919"/>
<path d="M320.889 30.4501C320.79 30.1626 320.598 29.9167 320.342 29.7524C320.087 29.5881 319.783 29.515 319.48 29.5449C318.779 29.5639 318.107 29.8353 317.59 30.3093V38.5568C317.59 38.9591 317.59 39.0597 318.052 39.1201L320.064 39.3413V40.2063H313.385V39.3212L314.552 39.1201C314.625 39.1176 314.697 39.1003 314.763 39.0693C314.83 39.0384 314.889 38.9943 314.938 38.9398C314.987 38.8853 315.024 38.8216 315.048 38.7523C315.071 38.683 315.081 38.6097 315.075 38.5367V29.9674C315.091 29.8926 315.09 29.815 315.07 29.741C315.051 29.667 315.014 29.5987 314.963 29.5418C314.912 29.4848 314.848 29.4408 314.777 29.4133C314.705 29.3859 314.628 29.3759 314.552 29.384L313.647 29.2633V28.7001L317.549 26.6885V29.7662C317.807 29.3026 318.117 28.8706 318.475 28.4788C318.795 28.1063 319.185 27.8007 319.623 27.5798C320.062 27.3588 320.54 27.2268 321.029 27.1914C321.203 27.1594 321.382 27.1654 321.553 27.2087C321.724 27.2521 321.884 27.3319 322.021 27.4426C322.159 27.5534 322.271 27.6925 322.349 27.8505C322.428 28.0085 322.472 28.1816 322.478 28.3581C322.436 28.8208 322.265 29.2625 321.984 29.6325C321.703 30.0024 321.323 30.2858 320.889 30.4501Z" fill="#1A1919"/>
<path d="M329.156 40.5877C328.394 40.6221 327.634 40.4934 326.926 40.2101C326.218 39.9267 325.579 39.4954 325.051 38.9449C324.524 38.3944 324.12 37.7375 323.867 37.0182C323.614 36.2989 323.517 35.5338 323.584 34.7742C323.584 30.5298 326.3 27.1905 329.74 27.1905C330.376 27.1578 331.01 27.2864 331.583 27.5642C332.156 27.842 332.65 28.2601 333.018 28.7797C333.657 29.8803 333.932 31.1546 333.803 32.4207H325.877C325.851 32.7352 325.851 33.0515 325.877 33.3661C325.79 34.0098 325.843 34.6648 326.033 35.286C326.223 35.9073 326.544 36.4802 326.976 36.9655C327.408 37.4508 327.94 37.837 328.535 38.0977C329.13 38.3583 329.774 38.4872 330.424 38.4755C331.086 38.4839 331.743 38.3541 332.353 38.0943C332.962 37.8345 333.511 37.4505 333.964 36.9668V37.0875C333.944 39.1192 331.912 40.5877 329.156 40.5877ZM329.156 28.6188C328.393 28.6588 327.668 28.9641 327.106 29.482C326.544 29.9999 326.181 30.6978 326.078 31.4551H331.49V31.3344C331.535 30.9975 331.509 30.6547 331.412 30.3289C331.315 30.003 331.149 29.7016 330.927 29.4447C330.704 29.1878 330.429 28.9812 330.12 28.8388C329.812 28.6964 329.476 28.6214 329.136 28.6188H329.156Z" fill="#1A1919"/>
<path d="M340.019 40.186V39.2808L342.031 39.0595C342.654 39.0595 342.815 38.8584 342.815 38.3354V25.5417C342.815 25.0187 342.654 24.8779 342.031 24.8175L340.019 24.5962V23.6709H348.066V24.5761L346.054 24.7974C345.43 24.7974 345.269 25.0187 345.269 25.5216V38.2951C345.269 38.798 345.43 38.9589 346.054 39.0193L348.066 39.2406V40.1458H340.019V40.186Z" fill="#1A1919"/>
<path d="M349.795 40.1861V39.3211L350.942 39.1199C351.015 39.1174 351.087 39.1002 351.153 39.0692C351.22 39.0382 351.279 38.9942 351.328 38.9397C351.377 38.8852 351.414 38.8214 351.438 38.7521C351.461 38.6829 351.471 38.6095 351.465 38.5366V23.7917C351.465 23.3893 351.365 23.2284 351.002 23.2083L348.991 23.0272V22.2226L354.261 21.6191C354.033 22.0664 353.929 22.5664 353.959 23.0675V38.5366C353.959 38.9389 353.959 39.0194 354.442 39.0998L355.85 39.3211V40.1861H349.816H349.795Z" fill="#1A1919"/>
<path d="M366.411 40.6483V38.2142C365.962 38.8709 365.363 39.4106 364.663 39.7885C363.963 40.1665 363.183 40.3716 362.388 40.3868C359.551 40.3868 357.6 38.0332 357.6 34.6135C357.54 33.712 357.662 32.8077 357.959 31.9543C358.256 31.1009 358.721 30.3159 359.327 29.646C359.933 28.976 360.668 28.4348 361.487 28.0545C362.307 27.6742 363.195 27.4625 364.098 27.4321C364.889 27.4154 365.673 27.5806 366.391 27.9149V23.8918C366.41 23.8201 366.412 23.7448 366.397 23.6722C366.381 23.5996 366.348 23.5318 366.301 23.4746C366.254 23.4174 366.193 23.3724 366.125 23.3435C366.056 23.3146 365.982 23.3025 365.908 23.3084L363.675 23.1273V22.3227L369.086 21.7192C368.858 22.1665 368.754 22.6665 368.785 23.1676V38.7171C368.785 39.1195 368.785 39.22 369.167 39.22H371.178V40.0649L366.411 40.6483ZM366.411 29.5242C365.727 29.0467 364.912 28.7937 364.077 28.8C363.486 28.8309 362.908 28.9839 362.379 29.2494C361.85 29.5149 361.382 29.8871 361.004 30.3426C360.626 30.7981 360.346 31.3269 360.183 31.8958C360.019 32.4647 359.976 33.0613 360.054 33.6479C360.054 36.5849 361.563 38.4355 363.917 38.4355C364.81 38.4648 365.687 38.1959 366.411 37.6711V29.4437V29.5242Z" fill="#1A1919"/>
<path d="M381.176 40.528C379.929 40.528 379.285 39.7636 379.044 38.0739C378.653 38.7639 378.094 39.3436 377.419 39.7588C376.743 40.1739 375.974 40.4109 375.182 40.4476C374.84 40.4859 374.494 40.4495 374.168 40.341C373.842 40.2325 373.543 40.0544 373.292 39.8191C373.042 39.5838 372.845 39.2969 372.717 38.9782C372.588 38.6595 372.53 38.3167 372.546 37.9733C372.546 35.9617 375.041 34.2519 378.943 33.6484V31.6368C379.029 31.2948 379.032 30.937 378.95 30.5939C378.868 30.2509 378.705 29.9325 378.474 29.666C378.243 29.3995 377.951 29.1926 377.623 29.0629C377.295 28.9333 376.94 28.8847 376.59 28.9212C376.341 28.8804 376.085 28.9053 375.849 28.9935C375.613 29.0817 375.403 29.2301 375.242 29.4241C375.113 29.7217 375.058 30.046 375.081 30.3695C374.597 30.8029 373.98 31.0584 373.331 31.0937C373.203 31.1115 373.074 31.0797 372.969 31.0049C372.864 30.93 372.792 30.8178 372.768 30.6914C372.819 30.4329 372.945 30.1951 373.13 30.0075C373.771 29.2047 374.569 28.541 375.475 28.0568C376.381 27.5726 377.376 27.2781 378.4 27.1912C378.828 27.2028 379.248 27.3058 379.632 27.4932C380.017 27.6806 380.356 27.9482 380.629 28.2778C380.901 28.6074 381.1 28.9916 381.212 29.4044C381.324 29.8172 381.346 30.2492 381.277 30.6713C381.289 30.7715 381.289 30.8728 381.277 30.973L381.176 35.9215V36.183C381.176 38.1946 381.438 38.6774 382.363 38.6774C382.884 38.6535 383.387 38.4788 383.811 38.1745C383.76 38.8307 383.457 39.4418 382.966 39.8803C382.475 40.3187 381.834 40.5508 381.176 40.528ZM378.983 34.4933C376.248 35.0565 374.679 35.9617 374.679 37.048C374.689 37.2683 374.743 37.4843 374.838 37.6833C374.933 37.8823 375.067 38.0602 375.232 38.2065C375.397 38.3528 375.59 38.4645 375.799 38.535C376.008 38.6055 376.229 38.6334 376.449 38.617C377.373 38.5644 378.258 38.2272 378.983 37.6515V34.5536V34.4933ZM377.917 26.2056L376.912 25.8234L378.923 21.6191L381.096 22.3835L377.917 26.2056Z" fill="#1A1919"/>
<path d="M392.642 40.1862V39.3212L393.829 39.1201C393.902 39.1176 393.974 39.1003 394.04 39.0693C394.106 39.0384 394.166 38.9943 394.215 38.9398C394.263 38.8853 394.301 38.8216 394.324 38.7523C394.348 38.683 394.357 38.6097 394.352 38.5367V33.206C394.381 32.493 394.34 31.7789 394.231 31.0737C394.18 30.756 394.066 30.4515 393.897 30.178C393.727 29.9044 393.505 29.6673 393.243 29.4802C392.981 29.2931 392.685 29.1598 392.371 29.0881C392.057 29.0163 391.732 29.0075 391.415 29.0621C390.552 29.0486 389.7 29.2564 388.941 29.6656V38.4764C388.941 38.8787 388.941 38.9591 389.423 39.0396L390.872 39.2609V40.1259H384.837V39.3212L386.024 39.1201C386.097 39.1176 386.169 39.1003 386.235 39.0693C386.301 39.0384 386.361 38.9943 386.41 38.9398C386.459 38.8853 386.496 38.8216 386.519 38.7523C386.543 38.683 386.552 38.6097 386.547 38.5367V29.9674C386.563 29.8926 386.562 29.815 386.542 29.741C386.523 29.667 386.486 29.5987 386.435 29.5418C386.384 29.4848 386.32 29.4408 386.248 29.4133C386.177 29.3859 386.1 29.3759 386.024 29.384L385.139 29.2633V28.7001L388.981 26.6885V29.1627C390.151 27.9251 391.764 27.2018 393.467 27.1511C393.962 27.1346 394.454 27.2332 394.904 27.4391C395.354 27.6451 395.751 27.9528 396.062 28.338C396.784 29.4426 397.07 30.7757 396.866 32.0795C396.866 32.341 396.866 32.6025 396.866 32.8842V38.3959C396.849 38.4626 396.849 38.5325 396.865 38.5994C396.881 38.6663 396.914 38.7282 396.959 38.7797C397.005 38.8313 397.062 38.8709 397.127 38.8952C397.191 38.9194 397.261 38.9276 397.329 38.9189L398.797 39.1402V40.0052H392.763L392.642 40.1862Z" fill="#1A1919"/>
<path d="M408.735 40.5282C407.488 40.5282 406.844 39.7638 406.602 38.0741C406.212 38.7641 405.653 39.3438 404.977 39.7589C404.302 40.1741 403.532 40.4111 402.74 40.4478C402.399 40.486 402.053 40.4497 401.727 40.3411C401.4 40.2326 401.102 40.0546 400.851 39.8193C400.6 39.584 400.404 39.2971 400.275 38.9784C400.146 38.6597 400.088 38.3168 400.105 37.9735C400.105 35.9619 402.599 34.2521 406.502 33.6486V31.637C406.588 31.295 406.59 30.9372 406.508 30.5941C406.427 30.251 406.263 29.9327 406.032 29.6662C405.801 29.3997 405.509 29.1928 405.181 29.0631C404.853 28.9335 404.499 28.8848 404.148 28.9214C403.899 28.8805 403.644 28.9055 403.408 28.9937C403.171 29.0819 402.962 29.2303 402.8 29.4243C402.671 29.7218 402.616 30.0462 402.64 30.3697C402.156 30.8031 401.538 31.0585 400.889 31.0939C400.762 31.1117 400.632 31.0799 400.528 31.005C400.423 30.9302 400.351 30.818 400.326 30.6916C400.377 30.4331 400.503 30.1953 400.688 30.0076C401.33 29.2049 402.127 28.5412 403.034 28.057C403.94 27.5728 404.935 27.2783 405.959 27.1914C406.386 27.203 406.806 27.306 407.191 27.4934C407.575 27.6808 407.915 27.9483 408.188 28.278C408.46 28.6076 408.659 28.9918 408.771 29.4046C408.882 29.8174 408.904 30.2494 408.835 30.6715C408.847 30.7717 408.847 30.873 408.835 30.9732L408.735 35.9217V36.1832C408.735 38.1948 408.996 38.6776 409.922 38.6776C410.443 38.6537 410.946 38.479 411.37 38.1747C411.318 38.8309 411.016 39.442 410.525 39.8804C410.034 40.3189 409.393 40.551 408.735 40.5282ZM406.542 34.4935C403.806 35.0567 402.237 35.9619 402.237 37.0482C402.247 37.2685 402.302 37.4845 402.397 37.6835C402.492 37.8825 402.626 38.0604 402.791 38.2067C402.956 38.3529 403.149 38.4647 403.358 38.5352C403.567 38.6057 403.788 38.6336 404.007 38.6172C404.932 38.5646 405.817 38.2273 406.542 37.6517V34.5538V34.4935Z" fill="#1A1919"/>
<path d="M420.301 30.751C420.183 30.4878 420.049 30.2325 419.899 29.9866C419.696 29.6308 419.403 29.3342 419.05 29.126C418.698 28.9179 418.297 28.8054 417.887 28.7997C416.056 28.7997 414.648 30.8113 414.648 33.527C414.648 36.5443 416.258 38.5157 418.672 38.5157C419.279 38.5104 419.879 38.3789 420.433 38.1296C420.987 37.8803 421.483 37.5186 421.89 37.0674C421.892 37.7858 421.675 38.4878 421.266 39.0789C420.787 39.6121 420.196 40.0327 419.535 40.3109C418.875 40.5891 418.161 40.7179 417.444 40.6882C414.226 40.6882 412.214 38.3347 412.214 34.6535C412.15 33.7147 412.282 32.7729 412.599 31.8872C412.917 31.0016 413.415 30.1913 414.061 29.5073C414.707 28.8233 415.488 28.2805 416.354 27.9129C417.22 27.5453 418.153 27.361 419.094 27.3715C420.925 27.3715 422.011 27.975 422.011 29.021C421.919 29.4417 421.709 29.8277 421.407 30.1339C421.104 30.4402 420.721 30.6542 420.301 30.751Z" fill="#1A1919"/>
<path d="M430.822 40.1861V39.3211L432.009 39.1199C432.082 39.1174 432.154 39.1002 432.22 39.0692C432.286 39.0382 432.346 38.9942 432.395 38.9397C432.443 38.8852 432.481 38.8214 432.504 38.7521C432.528 38.6829 432.537 38.6095 432.532 38.5366V33.2059C432.571 32.4244 432.517 31.6411 432.371 30.8724C432.198 30.2982 431.825 29.8053 431.319 29.4839C430.813 29.1625 430.208 29.0342 429.615 29.1224C428.749 29.0984 427.892 29.3142 427.141 29.7459V38.5165C427.141 38.9188 427.141 39.0194 427.603 39.0797L429.052 39.301V40.166H423.017V39.3211L424.204 39.1199C424.277 39.1174 424.349 39.1002 424.415 39.0692C424.481 39.0382 424.541 38.9942 424.59 38.9397C424.638 38.8852 424.676 38.8214 424.699 38.7521C424.723 38.6829 424.732 38.6095 424.727 38.5366V23.7917C424.727 23.3893 424.626 23.2284 424.264 23.2083L422.253 23.0272V22.2226L427.442 21.6191C427.234 22.0724 427.137 22.5691 427.161 23.0675V29.2833C427.715 28.6756 428.384 28.1847 429.13 27.8393C429.877 27.4938 430.684 27.3009 431.506 27.2717C432.026 27.2428 432.545 27.3413 433.018 27.5586C433.492 27.776 433.905 28.1056 434.222 28.5189C434.91 29.7402 435.185 31.1515 435.006 32.542V32.9645V38.4762C434.989 38.5429 434.989 38.6128 435.005 38.6797C435.021 38.7466 435.053 38.8085 435.099 38.8601C435.145 38.9116 435.202 38.9512 435.267 38.9755C435.331 38.9998 435.4 39.0079 435.469 38.9992L436.937 39.2205V40.0855H430.902L430.822 40.1861Z" fill="#1A1919"/>
<path d="M251.187 52.9188H250.342C250.401 52.6816 250.435 52.4389 250.443 52.1947C250.459 51.8099 250.354 51.4297 250.141 51.1084C249.679 50.6221 249.114 50.2451 248.488 50.005C247.861 49.7649 247.189 49.6676 246.52 49.7204C242.759 49.7204 240.043 52.9591 240.043 57.465C240.043 61.4882 242.276 64.3849 245.515 64.3849C246.623 64.4014 247.697 64.0073 248.532 63.2785C248.872 62.9799 249.176 62.6423 249.437 62.2727C249.843 61.7181 250.18 61.1171 250.443 60.4824H251.348L249.739 64.8677L249.156 65.0487C247.849 65.4393 246.496 65.6491 245.132 65.6723C240.325 65.6723 237.529 62.9365 237.529 58.3099C237.469 57.0429 237.666 55.7769 238.109 54.5883C238.552 53.3996 239.231 52.313 240.105 51.3938C240.979 50.4746 242.03 49.742 243.195 49.2401C244.36 48.7381 245.614 48.4773 246.882 48.4732H247.084C247.853 48.4601 248.622 48.5275 249.377 48.6744H249.88C250.154 48.6912 250.43 48.6912 250.705 48.6744C250.905 48.6856 251.106 48.6537 251.293 48.5808C251.481 48.508 251.65 48.3958 251.791 48.252L251.187 52.9188Z" fill="#1A1919"/>
<path d="M261.486 53.5823C261.126 54.2344 260.664 54.8251 260.119 55.3324C260.114 55.2143 260.085 55.0985 260.034 54.9917C259.984 54.8849 259.912 54.7893 259.824 54.7105C259.736 54.6318 259.633 54.5715 259.521 54.5332C259.409 54.4949 259.291 54.4794 259.173 54.4875C258.107 54.4875 257.162 55.6744 256.82 57.6658L255.271 65.6518C253.923 65.4909 253.259 65.0282 253.259 64.1431C253.262 63.9183 253.296 63.6949 253.36 63.4793L255.291 55.5939C255.356 55.3648 255.39 55.128 255.391 54.8899C255.411 54.8209 255.414 54.7482 255.399 54.678C255.385 54.6077 255.354 54.5421 255.308 54.4867C255.263 54.4313 255.204 54.3877 255.138 54.3598C255.072 54.332 255 54.3206 254.929 54.3266C254.085 54.6894 253.41 55.3576 253.038 56.1974L252.555 55.8956C254.225 53.4214 255.693 51.9932 256.578 51.9932C256.9 51.9932 257.081 52.2949 257.081 52.7777C257.044 53.6529 256.888 54.5191 256.618 55.3525L256.256 56.7405H256.458C256.558 56.479 256.639 56.2778 256.679 56.1773C257.053 55.2122 257.613 54.3304 258.328 53.5823C259.035 52.7668 260.015 52.2374 261.084 52.0937C261.167 52.0822 261.252 52.0887 261.332 52.1127C261.413 52.1368 261.487 52.178 261.55 52.2333C261.613 52.2887 261.663 52.357 261.697 52.4336C261.732 52.5102 261.749 52.5932 261.748 52.6771C261.75 52.9977 261.659 53.3119 261.486 53.5823Z" fill="#1A1919"/>
<path d="M267.843 57.0827C266.592 57.9148 265.181 58.4766 263.7 58.7322C263.601 59.2491 263.561 59.7754 263.579 60.3013C263.579 62.4335 264.343 63.6405 265.711 63.6405C266.378 63.5338 267.012 63.2751 267.563 62.8844C268.114 62.4938 268.568 61.9816 268.89 61.3875L269.413 61.6289C269.049 62.2888 268.617 62.9091 268.125 63.4796C267.685 64.0846 267.123 64.5905 266.475 64.9647C265.827 65.3389 265.108 65.5731 264.363 65.6521C262.533 65.6521 261.447 64.083 261.447 61.4479C261.447 56.439 264.665 52.0336 268.346 52.0336C268.577 51.9927 268.813 52.0024 269.039 52.0622C269.265 52.1219 269.476 52.2303 269.656 52.3796C269.836 52.529 269.981 52.7158 270.081 52.927C270.182 53.1382 270.235 53.3688 270.237 53.6027C270.131 54.3272 269.86 55.0176 269.445 55.621C269.03 56.2243 268.482 56.7243 267.843 57.0827ZM267.26 53.5826C266.822 53.6505 266.402 53.809 266.028 54.048C265.654 54.2869 265.334 54.6011 265.088 54.9705C264.787 55.3782 264.531 55.8165 264.323 56.2781C264.089 56.7844 263.92 57.3184 263.82 57.8672C264.573 57.7199 265.303 57.4765 265.993 57.1431C266.558 56.9304 267.058 56.5734 267.443 56.1076C267.828 55.6417 268.084 55.0833 268.185 54.4878C268.185 54.3672 268.161 54.2478 268.115 54.1367C268.068 54.0255 267.999 53.9248 267.913 53.8405C267.827 53.7561 267.725 53.6899 267.613 53.6456C267.501 53.6013 267.381 53.5799 267.26 53.5826Z" fill="#1A1919"/>
<path d="M277.901 65.6519C277.439 65.6519 277.197 65.2295 277.197 64.3444C277.215 63.7707 277.276 63.1993 277.378 62.6345C277.479 62.031 277.559 61.5885 277.861 60.281H277.66C277.27 61.4216 276.692 62.489 275.95 63.4392C275.627 64.0321 275.169 64.5411 274.613 64.9253C274.058 65.3096 273.42 65.5584 272.752 65.6519C271.504 65.6519 270.881 64.6059 270.881 62.5339C270.881 57.3441 274.22 52.476 277.74 52.476C278.433 52.4768 279.118 52.6206 279.752 52.8984L281.079 51.5708H281.602L279.752 58.6516C279.352 59.9577 279.122 61.3099 279.068 62.6748C279.044 62.7647 279.039 62.8585 279.053 62.9505C279.066 63.0425 279.099 63.1307 279.148 63.2098C279.196 63.2888 279.261 63.3571 279.337 63.4104C279.414 63.4637 279.5 63.5008 279.591 63.5196C280.475 63.1032 281.186 62.3919 281.602 61.508L282.005 61.6287C280.436 64.0627 278.826 65.6519 277.901 65.6519ZM276.936 53.8238C276.357 53.9443 275.821 54.2191 275.385 54.6193C274.95 55.0195 274.63 55.53 274.461 56.0969C273.612 57.9236 273.127 59.8982 273.033 61.9103C273.033 63.0167 273.395 63.58 274.079 63.58C275.346 63.58 276.996 61.5684 277.559 59.1746L278.726 54.5278C278.228 54.0961 277.594 53.8539 276.936 53.8439V53.8238Z" fill="#1A1919"/>
<path d="M291.319 54.3874H288.08L286.511 60.744C286.312 61.4529 286.191 62.1814 286.149 62.9165C286.128 63.0146 286.129 63.1163 286.152 63.2139C286.176 63.3115 286.222 63.4025 286.285 63.4799C286.349 63.5574 286.43 63.6193 286.521 63.6611C286.613 63.7029 286.712 63.7234 286.813 63.7211C286.993 63.7212 287.169 63.6649 287.316 63.5602C288.165 62.9213 288.888 62.1301 289.448 61.2268L289.911 61.448C289.476 62.2458 288.957 62.9945 288.362 63.6809C288.026 64.2077 287.585 64.6588 287.065 65.0052C286.546 65.3516 285.959 65.5857 285.344 65.6925C285.12 65.6538 284.906 65.5708 284.714 65.4482C284.522 65.3256 284.357 65.1659 284.227 64.9785C284.098 64.7912 284.007 64.5799 283.961 64.357C283.914 64.1342 283.913 63.9043 283.956 63.6809C284.056 62.0994 284.36 60.5375 284.861 59.0341L286.149 54.4276H283.896L284.117 53.6632L286.551 52.9591L288.563 49.459H289.327L288.482 52.8988H291.721L291.319 54.3874Z" fill="#1A1919"/>
<path d="M296.407 63.1575C295.06 64.8674 294.215 65.6117 293.45 65.6117C293.253 65.5667 293.066 65.483 292.901 65.3653C292.737 65.2476 292.597 65.0983 292.49 64.9261C292.383 64.754 292.312 64.5623 292.28 64.3623C292.248 64.1622 292.256 63.9579 292.304 63.761C292.349 62.6318 292.552 61.5146 292.907 60.4419L294.738 54.5479C294.748 54.4543 294.748 54.3599 294.738 54.2663C294.742 54.2293 294.737 54.1919 294.723 54.1571C294.71 54.1223 294.689 54.0911 294.662 54.0657C294.635 54.0404 294.602 54.0217 294.566 54.0112C294.531 54.0006 294.493 53.9984 294.456 54.0048C293.501 54.445 292.686 55.1413 292.103 56.0164L291.64 55.7348C292.223 55.0106 292.445 54.729 292.847 54.2663C293.704 53.0667 294.971 52.2224 296.407 51.8926C296.504 51.8827 296.602 51.8948 296.693 51.928C296.784 51.9612 296.867 52.0146 296.935 52.0843C297.003 52.1539 297.054 52.238 297.084 52.3303C297.115 52.4225 297.124 52.5205 297.112 52.6168C296.989 53.6454 296.752 54.6574 296.407 55.6342L294.959 60.5224C294.712 61.1662 294.57 61.8452 294.537 62.5339C294.5 62.6833 294.524 62.841 294.603 62.9729C294.682 63.1047 294.81 63.2 294.959 63.238C295.876 62.7677 296.642 62.0499 297.172 61.1661L297.594 61.4477C297.051 62.3529 296.77 62.6949 296.407 63.1575ZM297.413 49.8006C297.257 49.8008 297.103 49.7693 296.96 49.7079C296.817 49.6466 296.688 49.5567 296.58 49.4437C296.473 49.3308 296.39 49.1971 296.336 49.051C296.282 48.9048 296.258 48.7492 296.267 48.5936C296.25 48.216 296.382 47.8469 296.633 47.565C296.885 47.2831 297.237 47.1108 297.614 47.085C297.768 47.0873 297.919 47.1209 298.059 47.1837C298.198 47.2465 298.324 47.3371 298.428 47.4501C298.531 47.5631 298.611 47.696 298.661 47.8408C298.711 47.9855 298.732 48.139 298.721 48.2919C298.738 48.66 298.615 49.0209 298.376 49.3012C298.137 49.5815 297.8 49.7601 297.433 49.8006H297.413Z" fill="#1A1919"/>
<path d="M308.397 57.6061C307.733 58.7929 306.949 60.0602 306.043 61.4281C304.995 63.0842 303.839 64.67 302.583 66.1754H302.221C302.221 65.5116 302.221 65.23 302.221 64.7673C302.221 64.3047 302.221 63.1983 302.121 62.2126C302.007 59.8307 301.738 57.4587 301.316 55.1117C301.323 54.893 301.249 54.6795 301.108 54.5124C300.967 54.3452 300.768 54.2362 300.552 54.2065C300.441 54.2128 300.332 54.2409 300.232 54.2892C300.132 54.3375 300.042 54.4051 299.968 54.4881C299.558 54.8751 299.23 55.3402 299.003 55.856L298.5 55.6549C298.805 55.0064 299.169 54.387 299.586 53.8042C299.846 53.3532 300.202 52.9658 300.63 52.67C301.058 52.3742 301.547 52.1775 302.06 52.0943C302.249 52.0915 302.435 52.1432 302.596 52.243C302.756 52.3429 302.885 52.4868 302.966 52.6576C303.496 54.0798 303.769 55.5853 303.77 57.1032C303.891 58.8935 303.991 60.9252 303.991 61.9109C303.991 62.1925 303.991 62.3937 303.991 62.8563L304.575 61.9511C306.848 58.3906 307.854 56.2784 307.854 54.7899C307.871 54.6852 307.866 54.5782 307.841 54.4752C307.815 54.3723 307.769 54.2756 307.705 54.191C307.641 54.1064 307.561 54.0356 307.469 53.983C307.377 53.9303 307.275 53.8969 307.17 53.8847C306.894 53.9269 306.635 54.04 306.416 54.2128C306.197 54.3855 306.027 54.6121 305.923 54.8703L305.54 54.6692C305.803 54.0204 306.221 53.4462 306.758 52.9972C307.294 52.5481 307.933 52.2381 308.618 52.0943C308.784 52.106 308.945 52.1522 309.092 52.2302C309.239 52.3081 309.367 52.416 309.47 52.5468C309.572 52.6777 309.646 52.8285 309.686 52.9897C309.727 53.1508 309.733 53.3187 309.704 53.4823C309.569 54.9347 309.123 56.3411 308.397 57.6061Z" fill="#1A1919"/>
<path d="M317.107 57.0827C315.855 57.9148 314.444 58.4766 312.963 58.7322C312.865 59.2491 312.824 59.7754 312.842 60.3013C312.842 62.4335 313.607 63.6405 314.974 63.6405C315.641 63.5338 316.275 63.2751 316.826 62.8844C317.377 62.4938 317.831 61.9816 318.153 61.3875L318.676 61.6289C318.312 62.2888 317.881 62.9091 317.388 63.4796C316.948 64.0846 316.386 64.5905 315.738 64.9647C315.09 65.3389 314.371 65.5731 313.627 65.6521C311.796 65.6521 310.71 64.083 310.71 61.4479C310.71 56.439 313.928 52.0336 317.61 52.0336C317.84 51.9927 318.076 52.0024 318.302 52.0622C318.529 52.1219 318.739 52.2303 318.919 52.3796C319.099 52.529 319.244 52.7158 319.345 52.927C319.445 53.1382 319.498 53.3688 319.5 53.6027C319.394 54.3272 319.123 55.0176 318.708 55.621C318.293 56.2243 317.745 56.7243 317.107 57.0827ZM316.523 53.5826C316.085 53.6505 315.665 53.809 315.291 54.048C314.917 54.2869 314.597 54.6011 314.351 54.9705C314.051 55.3782 313.794 55.8165 313.586 56.2781C313.352 56.7844 313.183 57.3184 313.084 57.8672C313.836 57.7199 314.566 57.4765 315.256 57.1431C315.821 56.9304 316.321 56.5734 316.706 56.1076C317.091 55.6417 317.347 55.0833 317.449 54.4878C317.449 54.3672 317.425 54.2478 317.378 54.1367C317.331 54.0255 317.263 53.9248 317.176 53.8405C317.09 53.7561 316.988 53.6899 316.876 53.6456C316.764 53.6013 316.644 53.5799 316.523 53.5826Z" fill="#1A1919"/>
<path d="M332.375 49.5595L330.806 49.7205C330.142 49.7205 329.941 49.9216 329.901 50.344L328.271 63.6406C328.271 63.7412 328.271 63.8217 328.271 63.9021C328.271 63.9826 328.392 64.2039 328.955 64.2642L330.564 64.4453L330.444 65.2499H323.323L323.423 64.4453L325.113 64.224C325.737 64.224 325.817 64.063 325.877 63.6607L327.487 50.3239V50.2032C327.49 50.1478 327.481 50.0923 327.461 50.0407C327.44 49.989 327.409 49.9424 327.369 49.9041C327.328 49.8659 327.28 49.8368 327.228 49.819C327.175 49.8011 327.119 49.795 327.064 49.8009L325.334 49.5595L325.435 48.7549H332.576L332.375 49.5595Z" fill="#1A1919"/>
<path d="M341.648 53.583C341.288 54.2351 340.826 54.8258 340.281 55.3331C340.275 55.215 340.247 55.0992 340.196 54.9924C340.146 54.8856 340.074 54.79 339.986 54.7112C339.898 54.6325 339.795 54.5722 339.683 54.5339C339.571 54.4956 339.453 54.48 339.335 54.4882C338.269 54.4882 337.324 55.675 336.982 57.6665L335.392 65.6525C334.045 65.4916 333.381 65.0289 333.381 64.1438C333.384 63.919 333.418 63.6956 333.481 63.48L335.392 55.5946C335.457 55.3655 335.491 55.1287 335.493 54.8905C335.501 54.8292 335.497 54.7668 335.48 54.7073C335.463 54.6479 335.433 54.5926 335.393 54.5453C335.354 54.4979 335.304 54.4593 335.249 54.4322C335.193 54.405 335.132 54.3899 335.071 54.3876C334.227 54.7504 333.551 55.4187 333.18 56.2584L332.697 55.9567C334.367 53.4824 335.835 52.0542 336.72 52.0542C337.042 52.0542 337.223 52.3559 337.223 52.8387C337.186 53.714 337.03 54.5801 336.76 55.4135L336.398 56.8015H336.599C336.7 56.54 336.78 56.3389 336.821 56.2383C337.179 55.2853 337.718 54.4108 338.41 53.6635C339.116 52.8479 340.096 52.3185 341.166 52.1749C341.249 52.1633 341.333 52.1698 341.414 52.1939C341.494 52.218 341.568 52.2591 341.631 52.3145C341.694 52.3698 341.745 52.4381 341.779 52.5147C341.813 52.5913 341.83 52.6744 341.829 52.7583C341.841 53.0441 341.778 53.3281 341.648 53.583Z" fill="#1A1919"/>
<path d="M348.005 57.0827C346.753 57.9148 345.342 58.4766 343.861 58.7322C343.763 59.2491 343.722 59.7754 343.74 60.3013C343.74 62.4335 344.505 63.6405 345.873 63.6405C346.54 63.5338 347.173 63.2751 347.724 62.8844C348.275 62.4938 348.729 61.9816 349.051 61.3875L349.574 61.6289C349.21 62.2888 348.779 62.9091 348.287 63.4796C347.846 64.0846 347.284 64.5905 346.636 64.9647C345.988 65.3389 345.269 65.5731 344.525 65.6521C342.694 65.6521 341.608 64.083 341.608 61.4479C341.608 56.439 344.827 52.0336 348.508 52.0336C348.738 51.9927 348.974 52.0024 349.201 52.0622C349.427 52.1219 349.637 52.2303 349.817 52.3796C349.997 52.529 350.142 52.7158 350.243 52.927C350.343 53.1382 350.396 53.3688 350.399 53.6027C350.292 54.3272 350.021 55.0176 349.606 55.621C349.191 56.2243 348.643 56.7243 348.005 57.0827ZM347.462 53.5826C347.023 53.6505 346.603 53.809 346.229 54.048C345.855 54.2869 345.535 54.6011 345.289 54.9705C344.989 55.3782 344.733 55.8165 344.525 56.2781C344.291 56.7844 344.122 57.3184 344.022 57.8672C344.774 57.7199 345.504 57.4765 346.194 57.1431C346.76 56.9304 347.26 56.5734 347.645 56.1076C348.029 55.6417 348.285 55.0833 348.387 54.4878C348.387 54.3672 348.363 54.2478 348.316 54.1367C348.27 54.0255 348.201 53.9248 348.115 53.8405C348.029 53.7561 347.926 53.6899 347.814 53.6456C347.702 53.6013 347.582 53.5799 347.462 53.5826Z" fill="#1A1919"/>
<path d="M354.342 60.2817C354.131 61.0982 354.003 61.9339 353.959 62.7761C353.959 63.279 354.141 63.5606 354.422 63.5606C354.79 63.4828 355.114 63.2668 355.327 62.9571C355.799 62.435 356.23 61.8767 356.615 61.2875L357.057 61.6295C355.287 64.506 354.12 65.6526 353.034 65.6526C352.597 65.5564 352.216 65.2905 351.974 64.9133C351.733 64.5361 351.651 64.0785 351.747 63.6411C351.851 61.9118 352.141 60.1988 352.612 58.5316L354.985 48.876C354.985 48.7754 354.985 48.6548 354.985 48.5944C354.985 48.2122 354.804 48.1116 354.141 48.1116H352.471L352.773 47.3472L357.52 46.7236L354.342 60.2817Z" fill="#1A1919"/>
<path d="M365.345 65.6518C364.882 65.6518 364.641 65.2294 364.641 64.3443C364.659 63.7706 364.72 63.1991 364.822 62.6344C364.922 62.0309 365.003 61.5884 365.305 60.2809H365.104C364.713 61.4215 364.136 62.4889 363.394 63.4391C363.072 64.0295 362.618 64.5369 362.066 64.921C361.514 65.3052 360.881 65.5554 360.215 65.6518C358.968 65.6518 358.345 64.6058 358.345 62.5338C358.345 57.344 361.684 52.4759 365.204 52.4759C365.897 52.4767 366.581 52.6205 367.216 52.8983L368.503 51.4902H369.026L367.175 58.571C366.776 59.8771 366.546 61.2293 366.492 62.5942C366.468 62.6841 366.462 62.7779 366.476 62.8699C366.49 62.9619 366.522 63.0501 366.571 63.1292C366.62 63.2083 366.685 63.2765 366.761 63.3298C366.837 63.3831 366.923 63.4203 367.015 63.4391C367.898 63.0227 368.61 62.3114 369.026 61.4275L369.469 61.6286C367.9 64.0626 366.27 65.6518 365.345 65.6518ZM364.379 53.8237C363.8 53.9442 363.265 54.219 362.829 54.6192C362.393 55.0194 362.074 55.5299 361.905 56.0968C361.045 57.9144 360.546 59.8821 360.437 61.8901C360.437 62.9965 360.799 63.5597 361.483 63.5597C362.75 63.5597 364.399 61.5482 364.963 59.1544L366.129 54.5076C365.64 54.0919 365.022 53.8574 364.379 53.8438V53.8237Z" fill="#1A1919"/>
<path d="M378.44 65.6521C377.776 65.6521 377.374 64.928 377.374 63.6405C377.457 62.4559 377.715 61.29 378.138 60.1806L379.647 55.5942C379.744 55.3217 379.805 55.0377 379.828 54.7493C379.828 54.3269 379.506 54.1258 378.883 54.1258C377.944 54.1424 377.049 54.5249 376.388 55.1919C376.04 55.5096 375.748 55.8836 375.523 56.2983C375.034 57.2637 374.682 58.2929 374.477 59.3559L372.908 65.6521C372.473 65.693 372.039 65.5656 371.695 65.2963C371.351 65.0269 371.123 64.636 371.058 64.2038C371.076 63.8671 371.144 63.535 371.259 63.2181L373.612 55.5942C373.681 55.4068 373.722 55.2102 373.733 55.0108C373.736 54.9395 373.724 54.8683 373.7 54.8014C373.675 54.7345 373.637 54.6731 373.588 54.6208C373.54 54.5685 373.481 54.5263 373.416 54.4965C373.352 54.4668 373.281 54.4502 373.21 54.4476C372.737 54.5948 372.307 54.8548 371.956 55.2052C371.606 55.5556 371.346 55.986 371.198 56.4592L370.716 56.258C371.882 53.9045 373.632 52.2349 374.739 52.2349C374.839 52.243 374.937 52.2733 375.024 52.3235C375.111 52.3737 375.187 52.4426 375.244 52.5252C375.302 52.6079 375.341 52.7022 375.358 52.8016C375.375 52.9009 375.369 53.0028 375.342 53.0998C375.319 53.4936 375.259 53.8843 375.161 54.2666C375 54.8902 374.9 55.2522 374.437 56.8012H374.719C375.112 55.7997 375.716 54.8942 376.489 54.1459C377.448 53.0658 378.79 52.4019 380.23 52.2952C380.449 52.286 380.668 52.3234 380.871 52.4048C381.075 52.4863 381.259 52.61 381.411 52.7678C381.563 52.9257 381.68 53.114 381.754 53.3203C381.828 53.5266 381.857 53.7463 381.84 53.9648C381.744 55.143 381.48 56.3014 381.055 57.4046L379.748 61.6491C379.594 62.069 379.506 62.5099 379.486 62.9566C379.486 63.379 379.647 63.6607 379.889 63.6607C380.776 63.1435 381.512 62.401 382.021 61.5083L382.483 61.7295C381.176 63.9624 379.466 65.6521 378.44 65.6521Z" fill="#1A1919"/>
<path d="M393.004 58.3499C392.663 59.6662 392.461 61.0146 392.401 62.3731C392.401 62.9765 392.582 63.2783 392.964 63.2783C393.112 63.2545 393.254 63.1991 393.379 63.1158C393.504 63.0325 393.609 62.9233 393.688 62.7955C394.112 62.3017 394.508 61.7846 394.875 61.2466L395.338 61.5081C393.326 64.5456 392.32 65.7324 391.314 65.7324C390.791 65.7324 390.51 65.2496 390.51 64.264C390.547 63.0184 390.702 61.7791 390.972 60.5627H390.771C389.705 63.6404 387.834 65.652 386.165 65.652C384.857 65.652 384.153 64.5858 384.153 62.5742C384.153 58.5511 385.863 54.5279 388.176 53.0393C388.979 52.5358 389.905 52.2643 390.852 52.2548C391.314 52.2523 391.774 52.3132 392.22 52.4358L393.024 48.7748C393.024 48.7748 393.024 48.6138 393.024 48.5535C393.024 48.4931 392.803 48.0908 392.119 48.0908H390.55L390.872 47.3666L395.559 46.6626L393.004 58.3499ZM390.349 53.5824C389.797 53.5898 389.261 53.7705 388.817 54.099C388.373 54.4274 388.043 54.8871 387.875 55.413C386.923 57.4605 386.383 59.6749 386.285 61.9305C386.238 62.1195 386.228 62.316 386.257 62.5088C386.285 62.7016 386.352 62.8867 386.453 63.0533C386.555 63.22 386.688 63.3648 386.845 63.4794C387.003 63.594 387.182 63.6761 387.372 63.7208C388.74 63.7208 390.289 61.4477 390.972 58.4103L391.958 54.025C391.471 53.7349 390.915 53.582 390.349 53.5824Z" fill="#1A1919"/>
<path d="M243.181 83.2537C242.567 83.2528 241.955 83.1989 241.35 83.0927L240.687 88.8257C240.687 88.8257 240.687 88.9867 240.687 89.047C240.687 89.2683 240.848 89.3488 241.371 89.4091L243.261 89.5902L243.161 90.3948H235.859L235.959 89.5902L237.649 89.3689C238.253 89.3689 238.353 89.2079 238.413 88.8056L239.962 75.9516C239.962 75.851 239.962 75.7303 239.962 75.5895C239.962 75.1268 239.842 75.0263 239.077 74.9659L237.629 74.8452L237.75 74.0205H240.043H242.899C244.343 73.9149 245.792 74.1277 247.144 74.6441C247.804 74.9461 248.361 75.4345 248.747 76.0493C249.133 76.664 249.331 77.3782 249.316 78.104C249.178 79.5975 248.456 80.9762 247.308 81.9404C246.159 82.9047 244.676 83.3766 243.181 83.2537ZM242.316 75.0665L241.451 82.2076C241.829 82.2758 242.213 82.3094 242.598 82.3082C243.14 82.3811 243.691 82.3355 244.214 82.1745C244.737 82.0136 245.219 81.741 245.626 81.3757C246.034 81.0105 246.357 80.5612 246.574 80.0588C246.791 79.5565 246.896 79.013 246.882 78.4661C246.882 76.2735 245.293 75.1268 242.316 75.0464V75.0665Z" fill="#1A1919"/>
<path d="M259.555 78.6871C259.195 79.3392 258.733 79.9299 258.187 80.4372C258.182 80.3191 258.154 80.2033 258.103 80.0965C258.052 79.9897 257.981 79.8941 257.893 79.8153C257.805 79.7366 257.702 79.6763 257.59 79.638C257.478 79.5997 257.36 79.5842 257.242 79.5923C256.176 79.5923 255.23 80.7792 254.888 82.7706L253.319 90.7164C251.972 90.5555 251.308 90.0928 251.308 89.2077C251.311 88.9829 251.345 88.7595 251.408 88.5439L253.279 80.6786C253.31 80.4449 253.31 80.2082 253.279 79.9745C253.288 79.9132 253.283 79.8508 253.266 79.7913C253.249 79.7319 253.219 79.6766 253.18 79.6292C253.14 79.5819 253.091 79.5433 253.035 79.5162C252.979 79.489 252.919 79.4739 252.857 79.4716C252.013 79.8344 251.338 80.5026 250.966 81.3424L250.483 81.0407C252.153 78.5664 253.621 77.1382 254.506 77.1382C254.828 77.1382 255.009 77.4399 255.009 77.9227C254.972 78.7979 254.816 79.664 254.546 80.4975L254.184 81.8855H254.386C254.386 81.624 254.567 81.4229 254.607 81.3223C254.964 80.369 255.504 79.4945 256.196 78.7475C256.902 77.9319 257.882 77.4025 258.952 77.2589C259.035 77.2473 259.119 77.2538 259.2 77.2779C259.28 77.302 259.354 77.3431 259.417 77.3985C259.48 77.4538 259.531 77.5221 259.565 77.5987C259.599 77.6753 259.616 77.7584 259.616 77.8422C259.668 78.1244 259.648 78.4154 259.555 78.6871Z" fill="#1A1919"/>
<path d="M266.254 88.504C265.85 89.1626 265.294 89.7146 264.633 90.1136C263.971 90.5127 263.223 90.7471 262.452 90.7972C260.622 90.7972 259.475 89.2885 259.475 86.8746C259.47 83.8929 260.59 81.019 262.613 78.8283C263.038 78.3402 263.556 77.9412 264.136 77.6546C264.716 77.368 265.347 77.1995 265.993 77.1587C267.763 77.1587 268.849 78.5266 268.849 80.7795C268.825 83.5644 267.916 86.2694 266.254 88.504ZM265.248 78.5869C264.79 78.6557 264.359 78.85 264.004 79.1482C263.649 79.4464 263.384 79.8369 263.237 80.2766C262.31 82.2577 261.797 84.4069 261.728 86.593C261.728 88.2425 262.332 89.188 263.337 89.188C265.088 89.188 266.556 85.8286 266.737 81.2623C266.749 81.1621 266.749 81.0608 266.737 80.9606C266.717 79.4519 266.174 78.5869 265.248 78.5869Z" fill="#1A1919"/>
<path d="M281.079 79.7331L278.706 78.9687C278.857 79.4568 278.925 79.9668 278.907 80.4774C278.907 83.8971 276.714 86.7334 273.979 86.7937C273.798 86.8985 273.642 87.0406 273.52 87.2106C273.399 87.3806 273.315 87.5745 273.275 87.7794C273.275 88.1013 273.657 88.3628 274.642 88.6444L277.177 89.3686C277.901 89.5333 278.585 89.841 279.189 90.2738C279.374 90.4069 279.525 90.582 279.63 90.7848C279.735 90.9876 279.791 91.2122 279.792 91.4405C279.792 93.3314 277.117 94.8602 273.757 94.8602C270.398 94.8602 268.326 93.8142 268.326 92.4262C268.326 91.0382 270.177 90.0525 272.53 89.6904C271.605 89.2881 271.364 89.0668 271.364 88.6042C271.364 88.1415 272.027 87.4576 273.596 86.7133C273.199 86.6749 272.815 86.5549 272.466 86.3608C272.118 86.1668 271.813 85.9028 271.571 85.5856C271.33 85.2683 271.156 84.9046 271.061 84.5171C270.967 84.1296 270.953 83.7268 271.022 83.3338C270.904 81.838 271.377 80.3556 272.34 79.2048C273.303 78.0539 274.678 77.3264 276.171 77.1784C276.547 77.1674 276.922 77.2371 277.269 77.3828C277.616 77.5286 277.927 77.7469 278.183 78.0232H281.542L281.079 79.7331ZM276.252 91.0181L274.602 90.5353C274.068 90.3798 273.544 90.1917 273.033 89.9721C271.384 90.3543 270.579 90.9577 270.579 91.8428C270.579 92.7279 272.128 93.8142 274.28 93.8142C276.433 93.8142 277.78 93.1302 277.78 92.225C277.76 91.6618 277.338 91.3399 276.252 91.0181ZM275.668 78.3652C274.28 78.3652 273.134 80.6182 273.134 83.3539C273.134 84.8626 273.617 85.7075 274.502 85.7075C275.789 85.7075 277.036 83.1729 277.036 80.4774C277.056 79.1497 276.533 78.3652 275.668 78.3652Z" fill="#1A1919"/>
<path d="M290.172 78.6877C289.811 79.3397 289.35 79.9305 288.804 80.4378C288.799 80.3197 288.77 80.2039 288.72 80.097C288.669 79.9902 288.597 79.8946 288.509 79.8159C288.421 79.7372 288.318 79.6769 288.206 79.6386C288.095 79.6003 287.976 79.5847 287.858 79.5929C286.792 79.5929 285.847 80.7797 285.505 82.7712L283.936 90.6969C282.588 90.5359 281.924 90.0733 281.924 89.1882C281.927 88.9633 281.961 88.74 282.025 88.5243L283.896 80.659C283.961 80.43 283.995 80.1931 283.996 79.955C284.005 79.8937 284 79.8313 283.983 79.7718C283.966 79.7123 283.936 79.6571 283.897 79.6097C283.857 79.5623 283.808 79.5238 283.752 79.4967C283.696 79.4695 283.636 79.4543 283.574 79.4521C282.731 79.8166 282.056 80.4843 281.683 81.3229L281.2 81.0211C282.87 78.5469 284.338 77.1187 285.223 77.1187C285.545 77.1187 285.726 77.4204 285.726 77.9032C285.689 78.7784 285.533 79.6446 285.263 80.478L284.901 81.866H285.103C285.203 81.6045 285.284 81.4033 285.324 81.3027C285.681 80.3495 286.221 79.4749 286.913 78.7279C287.619 77.9124 288.599 77.383 289.669 77.2393C289.752 77.2278 289.837 77.2343 289.917 77.2583C289.997 77.2824 290.071 77.3236 290.134 77.3789C290.197 77.4343 290.248 77.5026 290.282 77.5792C290.316 77.6558 290.333 77.7388 290.333 77.8227C290.357 78.1202 290.302 78.4189 290.172 78.6877Z" fill="#1A1919"/>
<path d="M297.172 90.8175C296.709 90.8175 296.468 90.3951 296.468 89.51C296.486 88.9364 296.546 88.3649 296.649 87.8001C296.749 87.1967 296.83 86.7541 297.132 85.4466H296.93C296.52 86.5842 295.921 87.6449 295.16 88.5847C294.838 89.1689 294.386 89.6708 293.838 90.0512C293.29 90.4316 292.662 90.6801 292.002 90.7773C290.755 90.7773 290.131 89.7313 290.131 87.6593C290.131 82.4694 293.47 77.6014 296.991 77.6014C297.683 77.6022 298.368 77.746 299.002 78.0238L300.29 76.6157H300.813L298.922 83.7568C298.522 85.063 298.292 86.4152 298.238 87.78C298.217 87.8686 298.214 87.9604 298.229 88.05C298.245 88.1397 298.278 88.2254 298.326 88.3022C298.375 88.379 298.438 88.4453 298.513 88.4973C298.588 88.5492 298.672 88.5858 298.761 88.6048C299.645 88.1884 300.356 87.4771 300.773 86.5932L301.195 86.7139C299.666 89.1881 298.057 90.8175 297.172 90.8175ZM296.206 78.9894C295.627 79.1099 295.091 79.3848 294.656 79.7849C294.22 80.1851 293.901 80.6957 293.732 81.2625C292.872 83.0803 292.373 85.0479 292.264 87.0558C292.264 88.1622 292.626 88.7255 293.31 88.7255C294.577 88.7255 296.226 86.7139 296.79 84.3201L297.896 79.7337C297.426 79.2857 296.814 79.0154 296.166 78.9693L296.206 78.9894Z" fill="#1A1919"/>
<path d="M320.165 87.1964C319.57 88.1115 318.897 88.9731 318.153 89.7712C317.716 90.3142 317.092 90.6732 316.403 90.777C315.679 90.777 315.236 90.0529 315.236 88.7654C315.272 87.839 315.449 86.9234 315.759 86.0498L317.529 80.7593C317.627 80.4869 317.687 80.2028 317.71 79.9145C317.71 79.5323 317.389 79.3311 316.825 79.3311C314.814 79.3311 313.164 81.0007 312.42 84.0181L310.77 90.6362C310.549 90.6921 310.318 90.7008 310.094 90.6619C309.869 90.6229 309.654 90.5371 309.465 90.41C309.275 90.283 309.114 90.1174 308.993 89.9242C308.871 89.731 308.791 89.5144 308.759 89.2884C308.77 88.8641 308.845 88.4437 308.98 88.0413L311.233 80.6587C311.303 80.444 311.344 80.2206 311.354 79.9949C311.353 79.8785 311.327 79.7637 311.277 79.6588C311.226 79.5539 311.153 79.4615 311.063 79.3883C310.972 79.3151 310.866 79.263 310.753 79.2357C310.64 79.2084 310.522 79.2066 310.408 79.2305C309.683 79.2459 308.981 79.4847 308.397 79.9145C307.29 80.7191 306.647 81.926 305.842 85.1043L304.394 90.6161C304.179 90.6501 303.96 90.6402 303.749 90.5872C303.538 90.5341 303.341 90.4389 303.168 90.3073C302.995 90.1757 302.85 90.0105 302.743 89.8216C302.636 89.6326 302.568 89.4239 302.543 89.208C302.559 88.8645 302.627 88.5254 302.744 88.2022L305.178 80.6185C305.258 80.3993 305.299 80.1678 305.299 79.9346C305.302 79.8704 305.291 79.8064 305.268 79.7465C305.245 79.6866 305.209 79.6323 305.164 79.5869C305.118 79.5414 305.064 79.506 305.004 79.4827C304.944 79.4595 304.88 79.4489 304.816 79.4518C304.293 79.4518 303.77 79.9145 302.805 81.4634L302.342 81.2421C303.951 78.5063 305.359 77.2189 306.365 77.2189C306.788 77.2189 307.029 77.581 307.029 78.265C307.009 78.6644 306.955 79.0615 306.868 79.4518C306.767 80.2244 306.619 80.9902 306.425 81.745H306.647C307.074 80.7661 307.666 79.8679 308.397 79.0897C309.208 78.003 310.415 77.2802 311.756 77.0781C311.957 77.087 312.154 77.1382 312.333 77.2283C312.513 77.3185 312.672 77.4456 312.799 77.6013C312.926 77.757 313.019 77.9378 313.072 78.1319C313.124 78.326 313.135 78.529 313.104 78.7276C313.057 79.7713 312.853 80.802 312.5 81.7852H312.722C313.132 80.5891 313.863 79.5287 314.835 78.7198C315.807 77.911 316.983 77.3848 318.233 77.1988C318.46 77.1765 318.689 77.205 318.903 77.2823C319.117 77.3596 319.311 77.4838 319.471 77.6457C319.631 77.8076 319.753 78.0032 319.828 78.2183C319.902 78.4333 319.928 78.6623 319.903 78.8886V79.1299C319.779 80.4741 319.447 81.7907 318.917 83.0324L317.65 87.0556C317.579 87.2902 317.545 87.5346 317.549 87.7798C317.549 88.2625 317.71 88.5039 317.932 88.5039C318.876 88.037 319.635 87.2642 320.084 86.3113L320.547 86.5728C320.366 86.8947 320.265 87.0757 320.165 87.1964Z" fill="#1A1919"/>
<path d="M339.858 87.1962C339.264 88.1113 338.59 88.9729 337.846 89.771C337.41 90.314 336.785 90.6731 336.096 90.7768C335.372 90.7768 334.93 90.0527 334.93 88.7653C334.966 87.8388 335.142 86.9232 335.453 86.0496L337.223 80.7591C337.32 80.4867 337.381 80.2026 337.404 79.9143C337.404 79.5321 337.082 79.3309 336.519 79.3309C334.507 79.3309 332.858 81.0005 332.113 84.0179L330.464 90.636C330.242 90.6919 330.012 90.7006 329.787 90.6617C329.562 90.6227 329.348 90.5369 329.158 90.4098C328.968 90.2828 328.808 90.1173 328.686 89.924C328.564 89.7308 328.485 89.5142 328.452 89.2883C328.464 88.8639 328.539 88.4436 328.674 88.0411L330.926 80.6586C330.997 80.4438 331.037 80.2205 331.047 79.9947C331.047 79.8783 331.02 79.7635 330.97 79.6586C330.92 79.5537 330.846 79.4613 330.756 79.3881C330.665 79.3149 330.56 79.2628 330.447 79.2355C330.333 79.2082 330.216 79.2065 330.102 79.2303C329.377 79.2444 328.674 79.4834 328.09 79.9143C326.984 80.7189 326.34 81.9259 325.535 85.1042L324.087 90.6159C323.872 90.6499 323.653 90.64 323.442 90.587C323.232 90.5339 323.034 90.4387 322.861 90.3071C322.688 90.1756 322.544 90.0103 322.436 89.8214C322.329 89.6324 322.261 89.4237 322.236 89.2078C322.252 88.8643 322.32 88.5252 322.438 88.202L324.872 80.6183C324.951 80.3991 324.992 80.1676 324.992 79.9344C324.995 79.8702 324.985 79.8062 324.961 79.7463C324.938 79.6864 324.903 79.6321 324.857 79.5867C324.812 79.5413 324.757 79.5058 324.698 79.4825C324.638 79.4593 324.574 79.4488 324.51 79.4516C323.987 79.4516 323.463 79.9143 322.498 81.4632L322.035 81.2419C323.645 78.5062 325.053 77.2188 326.058 77.2188C326.481 77.2188 326.722 77.5808 326.722 78.2648C326.703 78.6643 326.649 79.0614 326.561 79.4516C326.387 80.277 326.158 81.0901 325.877 81.8856H326.099C326.525 80.9066 327.117 80.0083 327.849 79.2303C328.659 78.142 329.866 77.4187 331.208 77.2188C331.409 77.2276 331.606 77.2788 331.785 77.369C331.965 77.4591 332.124 77.5862 332.251 77.7419C332.378 77.8976 332.471 78.0784 332.524 78.2725C332.576 78.4666 332.587 78.6696 332.556 78.8682C332.509 79.9119 332.305 80.9426 331.952 81.9259H332.174C332.584 80.7297 333.315 79.6693 334.287 78.8604C335.259 78.0516 336.435 77.5254 337.685 77.3394C337.912 77.3171 338.141 77.3456 338.355 77.4229C338.569 77.5002 338.763 77.6244 338.923 77.7863C339.083 77.9483 339.205 78.1439 339.28 78.3589C339.354 78.5739 339.38 78.8029 339.355 79.0292V79.1298C339.231 80.4738 338.898 81.7904 338.369 83.0322L337.102 87.0554C337.031 87.29 336.997 87.5344 337.001 87.7796C337.001 88.2624 337.162 88.5037 337.384 88.5037C338.328 88.0368 339.087 87.264 339.536 86.3111L339.999 86.5726C340.059 86.8945 339.959 87.0755 339.858 87.1962Z" fill="#1A1919"/>
<path d="M348.085 82.2076C346.834 83.0392 345.422 83.601 343.942 83.8571C343.844 84.3741 343.803 84.9003 343.821 85.4262C343.821 87.5584 344.585 88.7654 345.953 88.7654C346.62 88.6587 347.254 88.4 347.805 88.0093C348.356 87.6187 348.81 87.1065 349.131 86.5124L349.654 86.794C349.291 87.4542 348.86 88.0745 348.367 88.6447C347.925 89.246 347.362 89.7481 346.714 90.1188C346.066 90.4895 345.348 90.7205 344.605 90.7971C342.775 90.7971 341.689 89.2281 341.689 86.5929C341.689 81.584 344.907 77.1787 348.588 77.1787C348.819 77.1377 349.055 77.1475 349.281 77.2072C349.507 77.267 349.718 77.3753 349.898 77.5246C350.078 77.674 350.223 77.8608 350.323 78.072C350.424 78.2832 350.477 78.5138 350.479 78.7477C350.37 79.4686 350.098 80.1551 349.683 80.7547C349.268 81.3543 348.722 81.8513 348.085 82.2076ZM347.462 78.6672C347.023 78.7352 346.604 78.8937 346.23 79.1326C345.856 79.3716 345.535 79.6858 345.289 80.0552C344.989 80.4631 344.733 80.9013 344.525 81.3628C344.291 81.8692 344.122 82.4031 344.022 82.9519C344.774 82.8041 345.504 82.5607 346.195 82.2277C346.76 82.0151 347.26 81.6581 347.645 81.1922C348.029 80.7264 348.285 80.1679 348.387 79.5724C348.387 79.4519 348.363 79.3325 348.316 79.2213C348.27 79.1102 348.201 79.0095 348.115 78.9251C348.029 78.8408 347.927 78.7746 347.814 78.7303C347.702 78.686 347.582 78.6646 347.462 78.6672Z" fill="#1A1919"/>
<path d="M177.845 98.2402H41.0974V40.4474H177.845V23.0874H25.1858V115.6H177.845V98.2402Z" fill="#1A1919"/>
<path d="M209.668 23.0874H193.756V115.6H209.668V23.0874Z" fill="#1A1919"/>
</svg>
