<svg width="647" height="210" viewBox="0 0 647 210" fill="none" xmlns="http://www.w3.org/2000/svg">
<path d="M237.359 95.2004C234.559 95.2004 231.059 93.8004 229.059 91.9004C226.359 89.3004 225.759 88.2004 222.259 80.7004C221.559 80.8004 221.059 80.8004 220.759 80.8004C220.459 80.8004 220.059 80.8004 219.459 80.7004V86.7004C219.459 90.2004 220.159 91.0004 223.459 91.6004V92.5004H208.959V91.6004C212.659 91.2004 213.559 90.2004 213.559 86.7004V70.4004C213.559 67.0004 212.759 65.9004 209.559 64.7004V63.8004L218.159 64.3004C220.959 63.8004 222.259 63.7004 223.959 63.7004C229.159 63.7004 232.259 66.5004 232.259 71.2004C232.259 72.5004 232.059 73.7004 231.559 74.7004C230.759 76.3004 229.659 77.4004 226.859 79.4004C231.359 86.6004 233.459 89.7004 235.559 91.6004C237.059 93.0004 238.759 93.7004 240.959 94.1004V94.9004C239.159 95.1004 238.459 95.2004 237.359 95.2004ZM219.459 65.5004V77.9004C220.759 78.4004 221.359 78.5004 222.259 78.5004C222.859 78.5004 223.259 78.5004 224.359 78.2004C224.659 77.8004 224.959 77.5004 225.159 77.2004C226.159 75.8004 226.759 74.2004 226.759 72.3004C226.759 68.3004 224.459 66.1004 219.459 65.5004ZM238.859 92.4004V91.5004C239.459 91.3004 239.859 91.1004 240.259 90.9004C241.059 90.3004 241.259 89.8004 241.359 86.9004L241.659 78.3004V78.0004C241.659 76.9004 241.459 75.7004 241.259 75.1004C240.959 74.4004 240.559 74.1004 239.459 73.7004V72.8004L245.659 71.5004L247.259 72.1004L246.959 77.6004V86.8004C246.959 90.3004 247.159 90.8004 249.059 91.4004V92.3004H238.859V92.4004ZM244.459 67.2004C242.359 67.2004 240.759 65.7004 240.759 63.9004C240.759 62.2004 242.459 60.8004 244.459 60.8004C246.459 60.8004 248.159 62.2004 248.159 63.9004C248.059 65.7004 246.459 67.2004 244.459 67.2004ZM264.859 92.9004C263.259 92.9004 262.459 92.4004 261.859 90.9004C259.459 92.6004 258.259 93.0004 256.159 93.0004C253.059 93.0004 251.059 91.2004 251.059 88.5004C251.059 87.5004 251.359 86.5004 251.859 85.8004C252.459 84.9004 253.359 84.3004 255.759 83.5004L261.959 81.4004V78.6004L261.859 76.1004C261.859 74.4004 261.459 73.9004 260.159 73.9004C258.659 73.9004 257.759 74.7004 256.859 76.8004L255.759 79.2004H254.559C253.059 79.2004 252.059 78.6004 252.059 77.5004C252.059 76.5004 252.859 75.3004 254.159 74.3004C256.559 72.6004 259.359 71.7004 262.559 71.7004C265.859 71.7004 267.059 72.9004 267.059 75.9004V76.4004L266.759 86.1004V86.4004C266.759 88.9004 267.259 89.7004 269.859 90.9004V92.1004C267.859 92.6004 266.259 92.9004 264.859 92.9004ZM261.859 83.4004L258.759 84.8004C256.959 85.6004 256.259 86.4004 256.259 87.7004C256.259 89.2004 257.359 90.1004 258.959 90.1004C259.759 90.1004 260.659 90.0004 261.859 89.7004V83.4004ZM281.559 92.4004V91.5004C279.759 91.2004 279.159 90.4004 279.159 86.9004V72.3004C279.159 66.2004 279.159 65.2004 279.759 61.4004L278.659 60.5004L272.059 61.7004V62.6004C272.959 63.2004 273.259 63.5004 273.459 64.3004C273.859 65.5004 273.859 66.4004 273.859 70.0004V78.3004L273.559 86.9004C273.459 90.3004 273.059 91.1004 271.059 91.5004V92.4004H281.559ZM291.059 93.1004C293.059 93.1004 294.159 92.7004 296.459 91.2004L296.159 90.3004C293.759 90.3004 292.859 90.1004 292.059 89.6004C291.259 89.0004 290.859 88.2004 290.859 86.3004V75.9004H293.959C295.459 75.9004 296.359 75.1004 296.359 73.9004C296.359 73.0004 295.659 72.2004 294.559 72.3004L290.859 72.6004L291.459 68.4004L289.359 67.5004C288.559 68.8004 288.159 69.2004 287.259 70.0004C285.959 71.3004 285.259 71.7004 283.459 72.4004V73.6004L285.559 76.4004L285.259 87.8004C285.259 91.2004 287.359 93.1004 291.059 93.1004ZM311.559 92.9004C309.959 92.9004 309.159 92.4004 308.559 90.9004C306.159 92.6004 304.959 93.0004 302.859 93.0004C299.759 93.0004 297.759 91.2004 297.759 88.5004C297.759 87.5004 298.059 86.5004 298.559 85.8004C299.159 84.9004 300.059 84.3004 302.459 83.5004L308.659 81.4004V78.6004L308.559 76.1004C308.559 74.4004 308.159 73.9004 306.859 73.9004C305.359 73.9004 304.459 74.7004 303.559 76.8004L302.459 79.2004H301.259C299.759 79.2004 298.759 78.6004 298.759 77.5004C298.759 76.5004 299.559 75.3004 300.859 74.3004C303.259 72.6004 306.059 71.7004 309.259 71.7004C312.559 71.7004 313.759 72.9004 313.759 75.9004V76.4004L313.459 86.1004V86.4004C313.459 88.9004 313.959 89.7004 316.559 90.9004V92.1004C314.559 92.6004 312.959 92.9004 311.559 92.9004ZM308.559 83.4004L305.459 84.8004C303.659 85.6004 302.959 86.4004 302.959 87.7004C302.959 89.2004 304.059 90.1004 305.659 90.1004C306.459 90.1004 307.359 90.0004 308.559 89.7004V83.4004ZM326.959 92.9004C331.159 92.9004 333.959 90.4004 333.959 86.6004C333.959 84.1004 332.759 82.7004 329.659 81.1004L325.959 79.2004C323.959 78.2004 323.159 77.4004 323.159 76.1004C323.159 74.7004 324.259 73.6004 325.759 73.6004C326.459 73.6004 327.459 74.0004 328.159 74.4004C329.159 75.1004 329.759 75.7004 331.459 77.9004L332.659 77.3004L332.059 72.7004C329.259 71.8004 328.059 71.6004 326.059 71.6004C321.559 71.6004 318.659 74.1004 318.659 77.8004C318.659 80.5004 320.059 82.3004 323.659 84.1004L326.159 85.3004C327.059 85.7004 327.759 86.1004 328.059 86.3004C328.459 86.5004 328.759 86.8004 328.859 87.2004C329.059 87.5004 329.159 87.9004 329.159 88.3004C329.159 89.7004 328.059 90.9004 326.659 90.9004C325.959 90.9004 324.959 90.5004 324.259 90.0004C323.059 89.2004 322.159 88.2004 320.059 85.6004L318.859 85.9004L319.459 91.9004C323.759 92.8004 325.159 92.9004 326.959 92.9004ZM368.459 92.4004V91.5004C366.659 90.9004 366.359 90.1004 366.359 86.9004V77.0004C366.359 73.2004 364.759 71.6004 361.059 71.6004C358.259 71.6004 356.859 72.1004 354.059 74.3004V71.5004L346.359 72.7004V73.6004C348.359 74.4004 348.859 75.3004 348.859 77.8004V78.2004L348.559 86.8004C348.459 90.2004 348.059 91.0004 346.059 91.4004V92.3004H355.859V91.4004C354.259 91.0004 354.059 90.3004 354.059 86.8004V75.7004C355.659 74.9004 356.359 74.7004 357.359 74.7004C359.859 74.7004 361.159 76.1004 361.159 78.9004V79.1004L360.859 86.8004C360.759 90.3004 360.359 91.0004 358.359 91.4004V92.3004H368.459V92.4004ZM384.359 92.9004C382.759 92.9004 381.959 92.4004 381.359 90.9004C378.959 92.6004 377.759 93.0004 375.659 93.0004C372.559 93.0004 370.559 91.2004 370.559 88.5004C370.559 87.5004 370.859 86.5004 371.359 85.8004C371.959 84.9004 372.859 84.3004 375.259 83.5004L381.459 81.4004V78.6004L381.359 76.1004C381.359 74.4004 380.959 73.9004 379.759 73.9004C378.259 73.9004 377.359 74.7004 376.459 76.8004L375.359 79.2004H373.859C372.359 79.2004 371.359 78.6004 371.359 77.5004C371.359 76.5004 372.159 75.3004 373.459 74.3004C375.859 72.6004 378.659 71.7004 381.859 71.7004C385.159 71.7004 386.359 72.9004 386.359 75.9004V76.4004L386.059 86.1004V86.4004C386.059 88.9004 386.559 89.7004 389.159 90.9004V92.1004C387.359 92.6004 385.659 92.9004 384.359 92.9004ZM381.259 83.4004L378.159 84.8004C376.359 85.6004 375.659 86.4004 375.659 87.7004C375.659 89.2004 376.759 90.1004 378.359 90.1004C379.159 90.1004 380.059 90.0004 381.259 89.7004V83.4004ZM422.359 92.4004V91.5004C420.459 91.0004 420.259 90.5004 420.259 86.9004V77.0004C420.259 74.7004 419.859 73.5004 418.859 72.7004C417.859 71.9004 416.559 71.5004 414.959 71.5004C412.459 71.5004 410.959 72.1004 407.959 74.3004L408.559 61.7004L407.259 60.5004L400.259 61.7004V62.6004C402.159 63.4004 402.759 64.2004 402.759 66.7004V78.3004L402.459 86.9004C402.359 90.6004 402.059 91.1004 399.959 91.5004V92.4004H409.759V91.5004C408.259 90.9004 407.959 90.1004 407.959 86.9004V75.8004C409.659 75.1004 410.459 74.9004 411.559 74.9004C414.059 74.9004 415.059 76.1004 415.059 79.1004V79.5004L414.759 86.9004C414.659 90.1004 414.259 90.8004 412.259 91.5004V92.4004H422.359ZM444.559 92.4004H423.359V91.5004C427.059 91.0004 427.959 90.1004 427.959 86.6004V70.3004C427.959 66.6004 427.459 65.7004 424.659 64.8004V63.9004H443.859L444.459 70.6004L443.559 70.9004C441.559 67.4004 440.159 66.3004 437.059 66.0004L433.659 65.7004V76.8004L436.759 76.7004C439.959 76.6004 440.559 76.0004 441.359 73.2004H442.259V82.4004H441.359C440.459 79.7004 439.659 79.0004 436.759 78.9004L433.659 78.8004V86.2004C433.659 89.5004 434.559 90.5004 437.459 90.5004C440.759 90.5004 442.759 89.0004 445.359 84.7004L446.259 85.3004L444.559 92.4004ZM439.659 60.1004L431.059 61.6004L430.759 61.0004L438.459 56.4004L440.559 58.0004L439.659 60.1004ZM448.859 92.4004V91.5004C449.459 91.3004 449.859 91.1004 450.259 90.9004C451.059 90.3004 451.259 89.8004 451.359 86.9004L451.659 78.3004V78.0004C451.659 76.9004 451.459 75.7004 451.259 75.1004C450.959 74.4004 450.559 74.1004 449.459 73.7004V72.8004L455.659 71.5004L457.259 72.1004L456.959 77.6004V86.8004C456.959 90.3004 457.159 90.8004 459.059 91.4004V92.3004H448.859V92.4004ZM454.359 67.2004C452.259 67.2004 450.659 65.7004 450.659 63.9004C450.659 62.2004 452.359 60.8004 454.359 60.8004C456.359 60.8004 458.059 62.2004 458.059 63.9004C458.059 65.7004 456.359 67.2004 454.359 67.2004ZM474.959 78.9004C476.159 77.0004 476.359 76.1004 476.359 74.7004C476.359 72.8004 475.459 71.5004 474.059 71.5004C472.359 71.5004 470.859 72.8004 469.059 76.1004H468.859L469.059 71.5004L461.359 72.8004V73.7004C463.259 74.5004 463.859 75.4004 463.859 77.5004V77.7004L463.559 86.9004C463.459 90.2004 463.159 90.8004 461.059 91.5004V92.4004H473.059V91.5004C469.759 90.8004 469.059 90.1004 469.059 86.9004V78.7004C469.859 77.6004 470.459 77.1004 471.159 77.1004C472.259 77.2004 473.659 77.8004 474.959 78.9004ZM494.559 81.4004H482.859V81.9004C482.859 83.9004 482.859 84.2004 483.159 85.4004C483.859 88.1004 486.059 89.7004 489.359 89.7004C491.059 89.7004 492.059 89.5004 494.259 88.5004L494.859 88.8004C494.559 89.5004 494.459 90.0004 494.259 90.2004C492.059 92.3004 489.259 93.3004 486.159 93.3004C481.259 93.3004 477.659 89.1004 477.659 83.2004C477.659 76.4004 481.759 71.5004 487.459 71.5004C491.959 71.5004 494.959 74.0004 494.959 77.8004C494.959 78.7004 494.859 79.9004 494.559 81.4004ZM489.559 75.1004C489.159 74.2004 488.259 73.7004 487.159 73.7004C485.959 73.7004 484.959 74.2004 484.159 75.3004C483.459 76.2004 483.159 77.0004 482.959 79.0004H489.459L490.059 78.4004C489.959 76.4004 489.859 75.8004 489.559 75.1004ZM510.759 92.9004C509.159 92.9004 508.359 92.4004 507.759 90.9004C505.359 92.6004 504.159 93.0004 502.059 93.0004C498.959 93.0004 496.959 91.2004 496.959 88.5004C496.959 87.5004 497.259 86.5004 497.759 85.8004C498.359 84.9004 499.259 84.3004 501.659 83.5004L507.859 81.4004V78.6004L507.759 76.1004C507.759 74.4004 507.359 73.9004 506.059 73.9004C504.559 73.9004 503.659 74.7004 502.759 76.8004L501.659 79.2004H500.359C498.859 79.2004 497.859 78.6004 497.859 77.5004C497.859 76.5004 498.659 75.3004 499.959 74.3004C502.359 72.6004 505.159 71.7004 508.359 71.7004C511.659 71.7004 512.859 72.9004 512.859 75.9004V76.4004L512.559 86.1004V86.4004C512.559 88.9004 513.059 89.7004 515.659 90.9004V92.1004C513.859 92.6004 512.159 92.9004 510.759 92.9004ZM507.759 83.4004L504.659 84.8004C502.859 85.6004 502.159 86.4004 502.159 87.7004C502.159 89.2004 503.259 90.1004 504.859 90.1004C505.659 90.1004 506.559 90.0004 507.759 89.7004V83.4004ZM539.859 92.4004V91.5004C538.059 90.9004 537.759 90.1004 537.759 86.9004V77.0004C537.759 73.2004 536.159 71.6004 532.459 71.6004C529.659 71.6004 528.259 72.1004 525.459 74.3004V71.5004L517.759 72.7004V73.6004C519.759 74.4004 520.259 75.3004 520.259 77.8004V78.2004L519.959 86.8004C519.859 90.2004 519.459 91.0004 517.459 91.4004V92.3004H527.259V91.4004C525.659 91.0004 525.459 90.3004 525.459 86.8004V75.7004C527.059 74.9004 527.759 74.7004 528.759 74.7004C531.259 74.7004 532.559 76.1004 532.559 78.9004V79.1004L532.259 86.8004C532.159 90.3004 531.759 91.0004 529.759 91.4004V92.3004H539.859V92.4004ZM564.559 92.4004V91.5004C562.759 90.9004 562.459 90.1004 562.459 86.9004V77.0004C562.459 73.2004 560.859 71.6004 557.159 71.6004C554.359 71.6004 552.959 72.1004 550.159 74.3004V71.5004L542.459 72.7004V73.6004C544.459 74.4004 544.959 75.3004 544.959 77.8004V78.2004L544.659 86.8004C544.559 90.2004 544.159 91.0004 542.159 91.4004V92.3004H551.959V91.4004C550.359 91.0004 550.159 90.3004 550.159 86.8004V75.7004C551.759 74.9004 552.459 74.7004 553.459 74.7004C555.959 74.7004 557.259 76.1004 557.259 78.9004V79.1004L556.959 86.8004C556.859 90.3004 556.459 91.0004 554.459 91.4004V92.3004H564.559V92.4004ZM235.759 129.9C235.759 127 236.359 126.2 239.159 125.3V124.4H227.759V125.5C231.159 126.2 232.059 127.1 232.059 130.3V132.1C232.059 135.4 229.959 137.1 225.859 137.1C219.559 137.1 215.159 131.8 215.159 124.2C215.159 116.5 218.959 111.3 224.659 111.3C229.059 111.3 231.359 113.1 234.159 118.7L235.059 118.1L234.859 111.2C230.459 109.7 228.559 109.4 225.559 109.4C220.759 109.4 217.359 110.7 214.559 113.7C212.059 116.4 210.559 120.4 210.559 124.6C210.559 129.1 212.259 133 215.159 135.9C217.759 138.4 220.459 139.3 224.959 139.3C227.159 139.3 229.159 139 230.859 138.5C234.259 137.4 234.459 137.4 235.059 137.4H236.459L235.859 133.1V129.9M251.459 139.2C245.959 139.2 242.859 135.7 242.859 129.5C242.859 122.1 246.959 117.5 253.659 117.5C259.159 117.5 262.259 121 262.259 127.2C262.259 134.6 258.159 139.2 251.459 139.2ZM252.459 119.3C249.159 119.3 246.859 122.9 246.859 127.9C246.859 133.4 249.259 137.3 252.659 137.3C255.959 137.3 258.259 133.6 258.259 128.6C258.259 123.2 255.759 119.3 252.459 119.3ZM281.959 119.5C282.059 119.5 282.259 119.3 282.559 119.2V118.3H274.859V119.4C276.759 119.5 277.659 120.1 277.659 121.2C277.659 121.9 277.459 122.8 277.059 123.8L273.359 133.7L269.959 123.2C269.659 122.3 269.559 121.5 269.559 121.1C269.559 120.3 269.959 119.8 270.959 119.5L271.859 119.2V118.3H263.859V119.2C264.959 119.6 265.559 120.4 265.959 121.7L271.659 139.5H271.759C272.359 139.5 272.959 138.7 273.659 137.3L280.459 121.6C280.759 120.8 281.459 119.8 281.959 119.5ZM291.959 139C287.359 139 284.159 134.9 284.159 129.1C284.159 122.1 287.959 117.8 294.059 117.8C298.159 117.8 300.459 119.9 300.459 123.4C300.459 124.3 300.359 125.5 300.159 126.7H287.559V127.9C287.559 132.9 290.059 135.9 294.159 135.9C295.859 135.9 296.859 135.6 299.759 134.6L300.659 134.8C299.959 136.9 295.859 139 291.959 139ZM296.959 123.2C296.959 121.3 295.259 119.8 293.159 119.8C290.659 119.8 288.759 121.6 287.759 124.9H296.359L296.959 124.1V123.2ZM316.559 122.5C317.259 121.3 317.659 120.2 317.659 119.3C317.659 118.5 317.059 117.9 316.259 117.9C313.959 117.9 312.959 118.6 309.759 122.8V117.7L303.959 119V119.9C306.059 120.9 306.459 121.6 306.459 124.6C306.459 124.9 306.459 125.1 306.459 125.4L306.159 132.8C306.059 136.3 305.559 137 303.359 137.6V138.7H314.759V137.6C310.859 137.3 309.859 136.3 309.859 132.8V125C310.959 123.1 311.959 122.2 313.159 122.2C314.059 122.2 315.159 122.5 316.359 123.1L316.559 122.5ZM340.759 138.6V137.5C338.259 136.7 337.959 136.3 337.959 132.7V123.2C337.959 121.1 337.559 119.7 336.759 118.9C336.059 118.2 334.659 117.7 333.459 117.7C331.359 117.7 329.559 118.5 325.659 120.9V117.8L325.259 117.5L319.859 118.9V119.8C321.859 120.7 322.359 121.8 322.359 124.7C322.359 124.9 322.359 125.1 322.359 125.3L322.059 132.7C321.959 136.2 321.559 136.9 319.259 137.5V138.6H328.759V137.5C327.159 137.2 326.259 136.7 325.959 135.9C325.759 135.4 325.659 134.3 325.659 132.7V122.2C328.359 120.9 329.359 120.5 330.959 120.5C333.259 120.5 334.659 122.2 334.659 125V125.3L334.359 132.7C334.259 136.4 333.759 137.1 331.259 137.5V138.6H340.759ZM377.359 138.6V137.5C374.859 136.8 374.559 136.3 374.559 132.7V123.2C374.559 121.2 374.259 120 373.659 119.2C372.859 118.3 371.559 117.6 370.159 117.6C367.659 117.6 365.759 118.4 362.259 121.3C361.259 118.4 360.359 117.6 357.959 117.6C355.659 117.6 353.759 118.4 349.959 120.8V117.9L349.659 117.6L344.159 118.8V119.7C346.259 120.7 346.659 121.4 346.659 124.4C346.659 124.7 346.659 124.9 346.659 125.2L346.359 132.6C346.259 136.1 345.859 136.8 343.559 137.4V138.5H353.059V137.4C351.459 137.1 350.559 136.6 350.259 135.8C350.059 135.3 349.959 134.2 349.959 132.6V122.2C353.359 120.7 354.059 120.5 355.359 120.5C357.559 120.5 358.859 122.2 358.859 125V125.3L358.559 132.7C358.459 136.4 357.959 137.1 355.459 137.5V138.6H365.359V137.5C363.759 137.2 362.859 136.7 362.559 135.9C362.359 135.4 362.259 134.3 362.259 132.7V122.7C365.159 121 366.159 120.5 367.659 120.5C369.759 120.5 371.159 122.2 371.159 125V125.3L370.859 132.7C370.759 136.4 370.259 137.1 367.759 137.5V138.6H377.359ZM388.359 139C383.759 139 380.459 134.9 380.459 129.1C380.459 122.1 384.259 117.8 390.359 117.8C394.459 117.8 396.759 119.9 396.759 123.4C396.759 124.3 396.659 125.5 396.459 126.7H383.859V127.9C383.859 132.9 386.359 135.9 390.459 135.9C392.159 135.9 393.159 135.6 396.059 134.6L396.959 134.8C396.459 136.9 392.259 139 388.359 139ZM393.459 123.2C393.459 121.3 391.759 119.8 389.659 119.8C387.159 119.8 385.259 121.6 384.259 124.9H392.859L393.459 124.1V123.2ZM421.259 138.6V137.5C418.759 136.7 418.459 136.3 418.459 132.7V123.2C418.459 121.1 418.059 119.7 417.259 118.9C416.559 118.2 415.159 117.7 413.959 117.7C411.859 117.7 410.059 118.5 406.159 120.9V117.8L405.759 117.5L400.359 118.9V119.8C402.359 120.7 402.859 121.8 402.859 124.7C402.859 124.9 402.859 125.1 402.859 125.3L402.559 132.7C402.459 136.2 402.059 136.9 399.759 137.5V138.6H409.259V137.5C407.659 137.2 406.759 136.7 406.459 135.9C406.259 135.4 406.159 134.3 406.159 132.7V122.2C408.859 120.9 409.859 120.5 411.459 120.5C413.759 120.5 415.159 122.2 415.159 125V125.3L414.859 132.7C414.759 136.4 414.259 137.1 411.759 137.5V138.6H421.259ZM430.859 139C433.659 139 434.659 138.6 436.859 136.5L436.559 135.6C435.059 136.3 433.659 136.7 432.659 136.7C430.759 136.7 429.759 135 429.759 132.1V121.2H434.359C435.659 121.2 436.459 120.5 436.459 119.5C436.459 118.8 436.059 118.3 435.259 118.4L429.759 118.8L430.159 114.2L428.959 113.8C428.059 115.3 427.659 115.9 426.859 116.7C426.159 117.4 425.659 117.7 424.359 118.4L424.259 119.6L426.359 122L426.059 134.2C425.959 137.6 427.459 139 430.859 139ZM455.559 139.2C450.059 139.2 446.959 135.7 446.959 129.5C446.959 122.1 451.159 117.5 457.759 117.5C463.259 117.5 466.359 121 466.359 127.2C466.359 134.6 462.259 139.2 455.559 139.2ZM456.559 119.3C453.259 119.3 450.959 122.9 450.959 127.9C450.959 133.4 453.359 137.3 456.759 137.3C460.059 137.3 462.359 133.6 462.359 128.6C462.359 123.2 459.959 119.3 456.559 119.3ZM486.459 111C488.159 110.5 488.859 109.7 488.859 108.6C488.859 107.3 486.759 106.5 483.059 106.5C480.159 106.5 477.759 107.4 476.059 109.1C473.959 111.2 473.259 113.1 473.059 117.6L470.059 119.5V120.1L472.859 122.2V132.7C472.859 136 472.259 137.1 469.759 137.5V138.6H480.859V137.5C478.459 137.2 477.259 136.6 476.859 135.5C476.659 135.1 476.559 134.1 476.559 132.7L476.259 121H481.259C482.759 121 483.059 120.7 483.059 119.5C483.059 118.8 482.659 118.3 481.859 118.3L476.359 118.6L476.459 116.7C476.659 113.6 476.859 112.5 477.559 111.1C478.559 109.2 479.759 108.3 481.559 108.3C483.159 108.4 484.459 109.1 486.459 111ZM504.959 138.6V137.7C501.359 137.2 500.659 136.3 500.659 132.8V115.9C500.659 112.4 501.459 111.5 504.959 110.9V110H492.959V110.9C496.259 111.6 496.959 112.4 496.959 115.9V132.8C496.959 136.3 496.259 137.2 492.659 137.7V138.6H504.959ZM520.659 122.5C521.359 121.3 521.759 120.2 521.759 119.3C521.759 118.5 521.159 117.9 520.359 117.9C518.059 117.9 517.059 118.6 513.859 122.8V117.7L508.059 119V119.9C510.159 120.9 510.559 121.6 510.559 124.6C510.559 124.9 510.559 125.1 510.559 125.4L510.259 132.8C510.159 136.3 509.659 137 507.459 137.6V138.7H518.859V137.6C514.959 137.3 513.959 136.3 513.959 132.8V125C515.059 123.1 516.059 122.2 517.259 122.2C518.159 122.2 519.259 122.5 520.459 123.1L520.659 122.5ZM531.459 139C526.859 139 523.559 134.9 523.559 129.1C523.559 122.1 527.359 117.8 533.459 117.8C537.559 117.8 539.859 119.9 539.859 123.4C539.859 124.3 539.759 125.5 539.559 126.7H526.959V127.9C526.959 132.9 529.459 135.9 533.559 135.9C535.259 135.9 536.259 135.6 539.159 134.6L540.059 134.8C539.459 136.9 535.359 139 531.459 139ZM536.459 123.2C536.459 121.3 534.759 119.8 532.659 119.8C530.159 119.8 528.259 121.6 527.259 124.9H535.859L536.459 124.1V123.2ZM552.259 138.6V137.5C550.559 137.2 549.759 136.7 549.459 135.9C549.259 135.4 549.159 134.3 549.159 132.7V118.9L549.759 107.5L549.159 106.9L543.659 107.8V109.1C545.459 109.9 545.759 110.9 545.759 115.6V124.2L545.459 132.8C545.359 136.4 544.859 137.2 542.359 137.6V138.7H552.259V138.6ZM570.459 138.7C569.759 138.8 569.159 138.9 568.559 138.9C566.759 138.9 566.159 138.4 565.659 136.6C562.959 138.5 561.759 139 559.359 139C556.459 139 554.559 137.4 554.559 134.8C554.559 132.6 555.759 131.3 559.159 130.1L565.959 127.6V123.9C565.959 121 565.259 120.2 562.759 120.2C560.559 120.2 559.659 121 558.559 123.9C558.459 124.3 558.259 124.7 557.959 125.4C556.259 125.2 555.459 124.6 555.459 123.6C555.459 122.1 557.959 119.9 560.959 118.7C562.259 118.2 564.259 117.8 565.459 117.8C568.259 117.8 569.459 119 569.459 121.9V122.7L569.059 133.1V133.5C569.059 135.7 569.659 136.4 572.759 137.5V138.5L570.459 138.7ZM561.359 130.9C559.259 131.7 558.359 132.8 558.359 134.2C558.359 135.5 559.559 136.7 560.859 136.7C561.659 136.7 562.859 136.4 564.259 135.9C564.559 135.8 565.059 135.6 565.559 135.5L565.859 129.1L561.359 130.9ZM596.359 138.6V137.5C593.859 136.7 593.559 136.3 593.559 132.7V123.2C593.559 121.1 593.159 119.7 592.359 118.9C591.659 118.2 590.259 117.7 589.059 117.7C586.959 117.7 585.159 118.5 581.259 120.9V117.8L580.859 117.5L575.459 118.9V119.8C577.459 120.7 577.959 121.8 577.959 124.7C577.959 124.9 577.959 125.1 577.959 125.3L577.659 132.7C577.559 136.2 577.159 136.9 574.859 137.5V138.6H584.359V137.5C582.759 137.2 581.859 136.7 581.559 135.9C581.359 135.4 581.259 134.3 581.259 132.7V122.2C583.959 120.9 584.959 120.5 586.559 120.5C588.859 120.5 590.259 122.2 590.259 125V125.3L589.959 132.7C589.859 136.4 589.359 137.1 586.859 137.5V138.6H596.359ZM614.159 139.2L613.559 138.6V136.5C611.259 138.5 609.459 139.3 607.159 139.3C602.559 139.3 599.359 135.2 599.359 129.4C599.359 122.8 603.559 117.8 609.259 117.8C610.659 117.8 611.559 118 613.559 118.7V115.2C613.559 110.6 612.859 109.4 609.959 108.7V107.6L616.859 106.8L617.459 107.4L616.859 118.2V132.7C616.859 135.5 617.359 136.2 619.659 136.8V137.9L614.159 139.2ZM613.659 124.4C613.659 121.5 612.059 119.6 609.659 119.6C606.059 119.6 603.159 123.1 603.159 127.6C603.159 132.7 605.859 136.2 609.859 136.2C611.259 136.2 611.959 136 613.559 135.1V124.4H613.659Z" fill="#1E1E1E"/>
<path d="M166.059 0C165.459 33.9 165.059 68.8 165.059 104.4C165.059 140 165.359 174.9 166.059 208.8C166.359 208.8 166.659 208.8 166.859 208.8C167.159 208.8 167.459 208.8 167.659 208.8C168.259 174.9 168.659 140 168.659 104.4C168.659 68.8 168.359 34 167.659 0C167.359 0 167.059 0 166.859 0C166.659 0 166.359 0 166.059 0Z" fill="#1E1E1E"/>
<path d="M58.5586 43.8003C58.6586 43.8003 58.7586 43.8003 58.8586 43.8003C59.7586 43.8003 60.5586 43.2003 60.6586 42.3003C60.8586 41.3003 60.1586 40.3003 59.1586 40.1003C58.1586 39.9003 57.1586 40.6003 57.0586 41.6003C56.8586 42.6003 57.5586 43.6003 58.5586 43.8003ZM58.8586 41.1003C58.9586 41.1003 58.9586 41.1003 59.0586 41.1003C59.5586 41.2003 59.8586 41.6003 59.7586 42.1003C59.6586 42.6003 59.2586 42.9003 58.7586 42.8003C58.2586 42.7003 57.9586 42.3003 58.0586 41.8003C58.0586 41.4003 58.4586 41.1003 58.8586 41.1003ZM107.859 52.3003C107.959 52.3003 108.059 52.3003 108.159 52.3003C109.059 52.3003 109.859 51.7003 109.959 50.8003C110.159 49.8003 109.459 48.8003 108.459 48.6003C107.459 48.4003 106.459 49.1003 106.359 50.1003C106.159 51.1003 106.859 52.1003 107.859 52.3003ZM108.159 49.6003C108.159 49.6003 108.259 49.6003 108.359 49.6003C108.859 49.7003 109.159 50.1003 109.059 50.6003C108.959 51.1003 108.559 51.4003 108.059 51.3003C107.559 51.2003 107.259 50.8003 107.359 50.3003C107.459 49.9003 107.759 49.6003 108.159 49.6003ZM92.0586 55.6003C92.1586 55.6003 92.2586 55.6003 92.3586 55.6003C93.2586 55.6003 94.0586 55.0003 94.1586 54.1003C94.3586 53.1003 93.6586 52.1003 92.6586 51.9003C91.6586 51.7003 90.6586 52.4003 90.5586 53.4003C90.4586 54.5003 91.0586 55.5003 92.0586 55.6003ZM92.4586 52.9003C92.5586 52.9003 92.5586 52.9003 92.6586 52.9003C93.1586 53.0003 93.4586 53.4003 93.3586 53.9003C93.2586 54.3003 92.9586 54.6003 92.5586 54.6003C92.4586 54.6003 92.4586 54.6003 92.3586 54.6003C91.8586 54.5003 91.5586 54.1003 91.6586 53.6003C91.6586 53.2003 91.9586 52.9003 92.4586 52.9003ZM100.059 54.3003C100.159 54.3003 100.259 54.3003 100.359 54.3003C101.259 54.3003 102.059 53.7003 102.159 52.8003C102.259 52.3003 102.159 51.8003 101.859 51.4003C101.559 51.0003 101.159 50.7003 100.659 50.6003C99.6586 50.4003 98.6586 51.1003 98.5586 52.1003C98.4586 53.1003 99.0586 54.1003 100.059 54.3003ZM100.459 51.6003C100.459 51.6003 100.559 51.6003 100.659 51.6003C100.859 51.6003 101.059 51.8003 101.259 52.0003C101.359 52.2003 101.459 52.4003 101.359 52.7003C101.259 53.2003 100.759 53.5003 100.359 53.4003C99.8586 53.3003 99.5586 52.9003 99.6586 52.4003C99.6586 51.9003 99.9586 51.6003 100.459 51.6003ZM113.059 54.4003C112.859 55.4003 113.559 56.4003 114.559 56.6003C114.659 56.6003 114.759 56.6003 114.859 56.6003C115.759 56.6003 116.559 56.0003 116.659 55.1003C116.859 54.1003 116.159 53.1003 115.159 52.9003C114.159 52.7003 113.259 53.4003 113.059 54.4003ZM114.859 53.8003H114.959C115.459 53.9003 115.759 54.3003 115.659 54.8003C115.559 55.2003 115.259 55.5003 114.759 55.5003C114.759 55.5003 114.659 55.5003 114.559 55.5003C114.059 55.4003 113.759 55.0003 113.859 54.5003C114.059 54.1003 114.459 53.8003 114.859 53.8003ZM71.0586 44.7003C71.1586 44.7003 71.2586 44.7003 71.3586 44.7003C72.2586 44.7003 73.0586 44.1003 73.1586 43.2003C73.3586 42.2003 72.6586 41.2003 71.6586 41.0003C70.6586 40.8003 69.6586 41.5003 69.4586 42.5003C69.3586 43.5003 70.0586 44.5003 71.0586 44.7003ZM71.3586 41.9003C71.4586 41.9003 71.4586 41.9003 71.5586 41.9003C72.0586 42.0003 72.3586 42.4003 72.2586 42.9003C72.1586 43.4003 71.7586 43.7003 71.2586 43.6003C70.7586 43.5003 70.4586 43.1003 70.5586 42.6003C70.5586 42.2003 70.9586 41.9003 71.3586 41.9003ZM77.4586 49.8003C77.5586 49.8003 77.6586 49.8003 77.7586 49.8003C78.5586 49.8003 79.2586 49.2003 79.4586 48.4003C79.6586 47.5003 78.9586 46.6003 78.0586 46.4003C77.1586 46.2003 76.2586 46.9003 76.0586 47.8003C75.9586 48.8003 76.5586 49.7003 77.4586 49.8003ZM77.7586 47.3003H77.8586C78.2586 47.4003 78.5586 47.8003 78.4586 48.2003C78.3586 48.6003 77.9586 48.9003 77.5586 48.9003C77.1586 48.8003 76.8586 48.4003 76.8586 48.0003C77.0586 47.6003 77.4586 47.3003 77.7586 47.3003ZM65.4586 38.6003C65.5586 38.6003 65.6586 38.6003 65.7586 38.6003C66.6586 38.6003 67.4586 38.0003 67.5586 37.1003C67.7586 36.1003 67.0586 35.1003 66.0586 34.9003C65.0586 34.7003 64.0586 35.4003 63.9586 36.4003C63.7586 37.4003 64.4586 38.4003 65.4586 38.6003ZM65.7586 35.9003C65.7586 35.9003 65.8586 35.9003 65.9586 35.9003C66.4586 36.0003 66.7586 36.4003 66.6586 36.9003C66.5586 37.3003 66.2586 37.6003 65.8586 37.6003C65.8586 37.6003 65.7586 37.6003 65.6586 37.6003C65.1586 37.5003 64.8586 37.1003 64.9586 36.6003C64.9586 36.2003 65.3586 35.9003 65.7586 35.9003ZM44.7586 163.5C47.7586 163.5 50.2586 161.4 50.7586 158.4C51.3586 155.1 49.1586 151.8 45.8586 151.3C45.4586 151.2 45.1586 151.2 44.7586 151.2C41.7586 151.2 39.2586 153.3 38.7586 156.3C38.1586 159.7 40.3586 162.9 43.7586 163.4C44.0586 163.5 44.3586 163.5 44.7586 163.5ZM39.8586 156.5C40.2586 154.1 42.3586 152.3 44.7586 152.3C45.0586 152.3 45.3586 152.3 45.6586 152.4C48.3586 152.9 50.1586 155.5 49.6586 158.2C49.1586 160.9 46.6586 162.8 43.8586 162.3C41.1586 161.8 39.3586 159.2 39.8586 156.5ZM44.7586 161.5C46.7586 161.5 48.4586 160 48.8586 158C49.2586 155.7 47.7586 153.6 45.4586 153.2C43.1586 152.8 41.0586 154.3 40.6586 156.6C40.2586 158.9 41.7586 161 44.0586 161.4C44.2586 161.5 44.4586 161.5 44.7586 161.5ZM41.5586 156.8C41.8586 155.3 43.1586 154.2 44.6586 154.2C44.8586 154.2 45.0586 154.2 45.2586 154.3C46.9586 154.6 48.1586 156.3 47.8586 158C47.5586 159.7 45.9586 160.9 44.1586 160.6C42.4586 160.2 41.2586 158.5 41.5586 156.8ZM50.5586 51.2003C48.2586 50.8003 46.1586 52.4003 45.7586 54.6003C45.3586 56.9003 46.8586 59.0003 49.1586 59.4003C49.3586 59.4003 49.6586 59.5003 49.8586 59.5003C51.8586 59.5003 53.5586 58.0003 53.9586 56.0003C54.2586 53.7003 52.7586 51.6003 50.5586 51.2003ZM52.9586 55.8003C52.6586 57.5003 51.0586 58.7003 49.2586 58.4003C47.5586 58.1003 46.3586 56.4003 46.6586 54.7003C46.9586 53.2003 48.2586 52.1003 49.7586 52.1003C49.9586 52.1003 50.1586 52.1003 50.3586 52.1003C52.0586 52.4003 53.2586 54.1003 52.9586 55.8003ZM84.2586 143.7C85.1586 143.7 85.8586 143 85.8586 142.1C85.8586 141.2 85.1586 140.5 84.2586 140.5C83.3586 140.5 82.6586 141.2 82.6586 142.1C82.6586 142.9 83.3586 143.7 84.2586 143.7ZM84.2586 141.4C84.6586 141.4 84.8586 141.7 84.8586 142.1C84.8586 142.5 84.5586 142.8 84.2586 142.8C83.8586 142.8 83.6586 142.5 83.6586 142.1C83.6586 141.7 83.8586 141.4 84.2586 141.4ZM78.7586 138.2C77.8586 138.2 77.1586 138.9 77.1586 139.8C77.1586 140.7 77.8586 141.4 78.7586 141.4C79.6586 141.4 80.3586 140.7 80.3586 139.8C80.4586 138.9 79.6586 138.2 78.7586 138.2ZM78.7586 140.5C78.3586 140.5 78.1586 140.2 78.1586 139.9C78.1586 139.5 78.4586 139.2 78.7586 139.2C79.1586 139.2 79.3586 139.5 79.3586 139.9C79.4586 140.2 79.1586 140.5 78.7586 140.5ZM89.6586 142.6C88.7586 142.6 88.0586 143.3 88.0586 144.2C88.0586 145.1 88.7586 145.8 89.6586 145.8C90.5586 145.8 91.2586 145.1 91.2586 144.2C91.2586 143.3 90.5586 142.6 89.6586 142.6ZM89.6586 144.8C89.2586 144.8 89.0586 144.5 89.0586 144.1C89.0586 143.7 89.3586 143.5 89.6586 143.5C90.0586 143.5 90.2586 143.8 90.2586 144.1C90.2586 144.5 89.9586 144.8 89.6586 144.8ZM107.959 95.4003C107.159 95.4003 106.459 96.1003 106.459 96.9003C106.459 97.7003 107.159 98.4003 107.959 98.4003C108.759 98.4003 109.459 97.7003 109.459 96.9003C109.459 96.1003 108.759 95.4003 107.959 95.4003ZM107.959 97.5002C107.659 97.5002 107.459 97.3002 107.459 97.0002C107.459 96.7002 107.659 96.4003 107.959 96.4003C108.259 96.4003 108.459 96.6002 108.459 97.0002C108.459 97.3002 108.259 97.5002 107.959 97.5002ZM103.059 93.5002C102.259 93.5002 101.559 94.2002 101.559 95.0002C101.559 95.8002 102.259 96.5002 103.059 96.5002C103.859 96.5002 104.559 95.8002 104.559 95.0002C104.559 94.2002 103.859 93.5002 103.059 93.5002ZM103.059 95.6003C102.759 95.6003 102.559 95.4002 102.559 95.0002C102.559 94.7002 102.759 94.4003 103.059 94.4003C103.359 94.4003 103.559 94.6002 103.559 95.0002C103.559 95.3002 103.259 95.6003 103.059 95.6003ZM97.9586 91.4003C97.1586 91.4003 96.4586 92.1003 96.4586 92.9003C96.4586 93.7003 97.1586 94.4003 97.9586 94.4003C98.7586 94.4003 99.4586 93.7003 99.4586 92.9003C99.4586 92.1003 98.8586 91.4003 97.9586 91.4003ZM97.9586 93.5002C97.6586 93.5002 97.4586 93.3003 97.4586 92.9003C97.4586 92.6003 97.6586 92.3003 97.9586 92.3003C98.2586 92.3003 98.4586 92.5003 98.4586 92.9003C98.5586 93.3003 98.2586 93.5002 97.9586 93.5002ZM28.4586 127.5C28.8586 128.1 28.7586 128.9 28.1586 129.4C27.9586 129.6 27.6586 129.7 27.3586 129.7C27.2586 129.7 27.2586 129.7 27.1586 129.7C26.7586 129.6 26.4586 129.5 26.2586 129.2C25.8586 128.6 25.9586 127.8 26.5586 127.3C26.8586 127.1 27.1586 127 27.5586 127C27.8586 127 28.2586 127.2 28.4586 127.5ZM59.3586 166.4C59.2586 166.2 59.0586 166.2 58.8586 166.2C58.6586 166.2 58.4586 166.3 58.4586 166.5L52.0586 180.3C51.9586 180.5 52.0586 180.8 52.1586 180.9C52.2586 181 52.3586 181 52.4586 181C52.5586 181 52.6586 181 52.7586 180.9C53.9586 180 56.0586 178.2 57.2586 177C58.6586 175.5 61.1586 172.3 62.1586 170.9C62.2586 170.7 62.2586 170.5 62.1586 170.3L59.3586 166.4ZM56.5586 176.3C55.8586 177 54.9586 177.9 53.9586 178.7L59.0586 167.8L61.1586 170.7C59.9586 172.1 57.8586 175 56.5586 176.3ZM120.559 61.4003C122.059 56.0003 120.459 52.3003 118.859 50.2003C117.659 48.6003 116.159 47.5003 115.359 47.1003C109.359 43.0003 101.959 45.7003 101.659 45.8003C97.7586 48.3003 93.6586 49.0003 89.4586 47.9003C78.1586 45.0003 69.3586 30.6003 67.6586 27.7003L66.7586 26.6003C66.4586 26.3003 66.1586 26.1003 65.7586 26.0003L63.5586 24.6003C63.0586 24.2003 62.2586 24.3003 61.7586 24.6003L61.5586 24.8003C61.5586 24.8003 61.5586 24.8003 61.4586 24.8003C60.4586 24.6003 58.9586 25.0003 57.5586 25.9003C56.1586 26.8003 54.7586 28.3003 54.9586 29.8003L52.1586 31.9003C51.1586 31.9003 50.0586 32.3003 48.9586 33.1003C47.8586 33.8003 46.6586 35.0003 46.3586 36.3003L44.4586 37.7003L44.1586 38.0003V38.2003C44.0586 38.4003 43.9586 38.5003 43.9586 38.7003C43.8586 38.9003 43.8586 39.0003 43.8586 39.0003V39.5003L43.9586 39.7003C44.1586 40.1003 45.5586 42.9003 46.4586 44.6003C44.2586 46.6003 41.1586 49.7003 37.7586 54.0003C35.9586 54.0003 34.4586 55.2003 34.0586 57.0003C33.9586 57.7003 33.9586 58.3003 34.1586 58.9003C28.5586 67.2003 24.5586 76.5002 22.1586 86.5002C22.1586 86.5002 22.0586 86.9003 21.9586 87.4003C20.4586 93.9003 19.7586 100.7 19.7586 107.7C19.6586 107.8 19.7586 110.8 19.8586 111.6C19.8586 112.3 19.1586 128.3 25.4586 145.4C25.4586 145.8 25.4586 146.3 25.5586 146.7C25.6586 147.3 26.0586 148.7 27.1586 149.6C29.5586 155.2 32.5586 160.2 36.1586 164.7C38.7586 167.7 42.2586 173.3 41.5586 176.6C40.6586 176.3 39.7586 176.2 38.9586 176.4C37.3586 176.7 36.1586 177.7 35.1586 179.5C34.3586 181 34.2586 184.2 36.2586 186.1C37.7586 187.5 39.9586 187.9 42.5586 187C42.5586 187.1 42.5586 187.1 42.6586 187.2C42.9586 187.7 43.4586 188.1 44.0586 188.1C44.4586 188.1 44.8586 188.2 45.3586 188.2C50.1586 188.2 57.7586 185.3 67.0586 171.8C70.2586 172.4 73.0586 172.8 75.3586 173.1L78.9586 173.7C80.4586 174.2 83.7586 174 85.4586 169.7L122.159 74.7003C122.659 73.7003 122.959 72.7003 123.159 71.6003C123.859 67.9003 122.859 64.2003 120.559 61.4003ZM65.3586 29.2003C65.7586 29.9003 75.4586 47.2003 88.7586 50.6003C93.7586 51.9003 98.5586 51.0003 102.959 48.2003C103.059 48.2003 109.059 46.1003 113.959 49.4003C114.259 49.5003 120.059 52.4003 118.059 60.3003C117.859 60.1003 117.659 59.9003 117.459 59.8003C118.159 58.0003 117.459 56.5003 117.459 56.5003C117.359 56.4003 117.259 56.3003 117.159 56.2003C117.059 56.2003 116.859 56.2003 116.759 56.3003C116.359 56.6003 115.859 56.8003 115.259 56.8003C113.959 56.8003 112.859 55.7003 112.859 54.3003C112.859 53.6003 113.159 53.0003 113.659 52.5003C113.759 52.4003 113.859 52.3003 113.859 52.1003C113.859 52.0003 113.759 51.8003 113.659 51.7003L111.559 50.2003C111.459 50.1003 111.259 50.1003 111.059 50.1003C110.859 50.2003 110.759 50.3003 110.759 50.5003C110.559 51.6003 109.559 52.4003 108.459 52.4003C107.259 52.4003 106.159 51.5003 106.059 50.2003C106.059 50.0003 105.959 49.9003 105.859 49.8003C105.759 49.7003 105.559 49.7003 105.459 49.8003L103.359 50.8003C103.159 50.9003 103.059 51.1003 103.059 51.4003C103.059 51.6003 103.159 51.8003 103.159 52.0003C103.159 53.4003 102.059 54.5003 100.759 54.5003C99.6586 54.5003 98.6586 53.7003 98.3586 52.6003C98.3586 52.5003 98.2586 52.4003 98.1586 52.3003C98.0586 52.2003 97.8586 52.2003 97.7586 52.3003L95.5586 53.0003C95.3586 53.1003 95.2586 53.3003 95.2586 53.5003C95.2586 54.8003 94.1586 55.9003 92.8586 55.9003C91.5586 55.9003 90.4586 54.8003 90.4586 53.5003C90.4586 53.3003 90.4586 53.0003 90.5586 52.8003C90.5586 52.7003 90.5586 52.5003 90.4586 52.4003C90.3586 52.3003 90.2586 52.2003 90.1586 52.2003L88.2586 51.8003C88.1586 51.8003 87.9586 51.8003 87.8586 51.9003C87.7586 52.0003 87.6586 52.1003 87.6586 52.3003C87.6586 54.0003 86.2586 54.2003 85.3586 54.2003H85.2586C86.0586 54.1003 86.7586 53.5003 86.9586 52.7003C87.1586 51.7003 86.4586 50.7003 85.4586 50.5003C84.4586 50.3003 83.4586 51.0003 83.3586 52.0003C83.2586 52.5003 83.3586 52.9003 83.6586 53.3003C83.2586 52.9003 83.0586 52.3003 83.0586 51.7003C83.0586 51.3003 83.1586 51.0003 83.2586 50.7003C83.3586 50.6003 83.3586 50.4003 83.2586 50.3003C83.2586 50.2003 83.0586 50.1003 82.9586 50.0003L80.7586 49.2003C80.5586 49.1003 80.2586 49.2003 80.1586 49.4003C79.7586 50.1003 78.9586 50.5003 78.1586 50.5003C78.0586 50.5003 78.0586 50.5003 77.9586 50.5003L76.6586 50.0003C76.0586 49.6003 75.7586 48.9003 75.7586 48.1003C75.7586 47.7003 75.8586 47.2003 76.0586 46.9003C76.1586 46.7003 76.1586 46.4003 75.9586 46.3003L73.8586 44.8003C73.6586 44.7003 73.4586 44.7003 73.2586 44.8003C72.8586 45.2003 72.2586 45.4003 71.7586 45.4003C70.4586 45.4003 69.3586 44.3003 69.3586 42.9003C69.3586 42.2003 69.6586 41.6003 70.0586 41.1003C70.2586 40.9003 70.2586 40.6003 70.0586 40.4003L68.5586 38.5003C68.4586 38.4003 68.3586 38.3003 68.1586 38.3003C68.0586 38.3003 67.8586 38.3003 67.7586 38.4003C67.2586 38.9003 66.6586 39.1003 66.0586 39.1003C64.7586 39.1003 63.6586 38.0003 63.6586 36.7003C63.6586 36.6003 63.6586 36.5003 63.5586 36.5003C63.5586 36.5003 63.5586 36.5003 63.5586 36.4003C63.5586 36.3003 63.4586 36.3003 63.3586 36.3003C63.2586 36.3003 63.2586 36.3003 63.1586 36.3003C63.0586 36.3003 62.9586 36.3003 62.9586 36.4003C62.9586 36.4003 62.8586 36.4003 62.8586 36.5003L59.7586 39.0003C59.6586 39.1003 59.5586 39.2003 59.5586 39.4003C59.5586 39.6003 59.6586 39.7003 59.7586 39.8003C59.7586 39.8003 61.2586 40.9003 61.3586 42.4003C61.3586 43.2003 60.9586 44.0003 60.0586 44.8003C59.8586 45.0003 59.8586 45.2003 59.9586 45.4003C59.9586 45.4003 59.9586 45.4003 59.9586 45.5003L60.0586 45.6003C63.1586 49.6003 63.5586 49.8003 63.7586 49.9003C63.8586 49.9003 63.9586 50.0003 64.0586 49.9003C64.2586 49.9003 64.4586 49.8003 64.5586 49.6003C64.8586 48.6003 65.7586 48.0003 66.7586 48.0003C66.8586 48.0003 66.8586 48.0003 66.9586 48.0003C66.0586 48.0003 65.2586 48.6003 65.1586 49.5003C64.9586 50.5003 65.6586 51.5003 66.6586 51.7003C66.7586 51.7003 66.8586 51.7003 66.9586 51.7003C67.8586 51.7003 68.6586 51.1003 68.7586 50.2003C68.8586 49.6003 68.6586 48.9003 68.1586 48.5003C68.7586 48.9003 69.0586 49.6003 69.0586 50.4003C69.0586 51.0003 68.7586 51.7003 68.3586 52.1003C68.2586 52.2003 68.1586 52.4003 68.2586 52.5003C68.2586 52.7003 68.3586 52.8003 68.4586 52.9003L71.5586 54.8003C71.6586 54.9003 71.8586 54.9003 72.0586 54.8003C72.2586 54.7003 72.3586 54.6003 72.3586 54.4003C72.4586 53.6003 72.8586 53.0003 73.5586 52.7003C73.2586 53.0003 72.9586 53.4003 72.8586 53.8003C72.6586 54.8003 73.3586 55.8003 74.3586 56.0003C74.4586 56.0003 74.5586 56.0003 74.6586 56.0003C75.5586 56.0003 76.3586 55.4003 76.4586 54.5003C76.5586 53.8003 76.2586 53.1003 75.6586 52.7003C76.4586 53.1003 76.9586 53.9003 76.9586 54.8003C76.9586 55.3003 76.7586 55.8003 76.4586 56.3003C76.3586 56.4003 76.3586 56.6003 76.3586 56.7003C76.3586 56.9003 76.5586 57.0003 76.6586 57.0003L79.9586 58.0003C80.0586 58.1003 80.2586 58.0003 80.3586 57.9003C80.4586 57.8003 80.5586 57.7003 80.5586 57.5003C80.5586 56.4003 81.2586 55.5003 82.2586 55.3003C81.7586 55.6003 81.3586 56.0003 81.2586 56.6003C81.0586 57.6003 81.7586 58.6003 82.7586 58.8003C82.8586 58.8003 82.9586 58.8003 83.0586 58.8003C83.9586 58.8003 84.7586 58.2003 84.8586 57.3003C84.9586 56.9003 84.8586 56.5003 84.6586 56.1003C84.9586 56.5003 85.1586 57.0003 85.1586 57.6003C85.1586 58.0003 85.0586 58.4003 84.8586 58.8003C84.7586 58.9003 84.7586 59.1003 84.8586 59.2003C84.9586 59.3003 85.0586 59.4003 85.1586 59.5003C85.2586 59.5003 85.9586 59.7003 86.8586 59.8003C86.7586 59.9003 86.6586 60.1003 86.6586 60.3003C86.2586 60.3003 85.8586 60.3003 85.4586 60.3003C85.3586 59.7003 84.9586 59.3003 84.3586 59.1003C83.6586 59.0003 82.9586 59.4003 82.7586 60.1003C82.3586 60.1003 82.0586 60.0003 81.6586 60.0003C81.6586 59.8003 81.5586 59.6003 81.4586 59.4003C81.2586 59.1003 80.9586 58.9003 80.5586 58.8003C79.9586 58.7003 79.3586 59.0003 79.0586 59.5003C78.5586 59.4003 78.0586 59.3003 77.5586 59.1003C77.5586 59.1003 77.5586 59.1003 77.5586 59.0003C77.6586 58.2003 77.1586 57.5003 76.4586 57.4003C75.7586 57.3003 75.1586 57.7003 74.9586 58.3003C74.5586 58.2003 74.2586 58.0003 73.8586 57.9003C73.8586 57.8003 73.8586 57.8003 73.9586 57.7003C74.0586 56.9003 73.5586 56.2003 72.8586 56.1003C72.2586 56.0003 71.7586 56.3003 71.4586 56.8003C70.8586 56.5003 70.3586 56.2003 69.7586 55.9003C69.7586 55.9003 69.7586 55.8003 69.8586 55.7003C69.9586 54.9003 69.4586 54.2003 68.7586 54.1003C68.2586 54.0003 67.8586 54.2003 67.5586 54.5003C67.0586 54.2003 66.6586 53.9003 66.2586 53.6003C66.3586 53.5003 66.3586 53.4003 66.3586 53.2003C66.4586 52.4003 65.9586 51.7003 65.2586 51.6003C64.7586 51.5003 64.3586 51.7003 64.0586 52.0003C63.4586 51.5003 62.8586 51.1003 62.2586 50.6003C62.3586 50.5003 62.3586 50.3003 62.4586 50.2003C62.5586 49.8003 62.4586 49.5003 62.2586 49.1003C62.0586 48.8003 61.7586 48.6003 61.3586 48.5003C60.9586 48.4003 60.5586 48.5003 60.2586 48.8003C59.3586 48.0003 58.6586 47.3003 58.1586 46.8003C58.2586 46.7003 58.2586 46.5003 58.3586 46.3003C58.4586 45.9003 58.3586 45.5003 58.1586 45.2003C57.9586 44.9003 57.6586 44.7003 57.2586 44.6003C56.4586 44.5003 55.7586 45.0003 55.6586 45.7003C55.5586 46.1003 55.7586 46.6003 56.0586 46.9003C56.0586 47.0003 55.9586 47.1003 55.9586 47.2003C53.4586 44.5003 51.8586 42.3003 51.0586 41.2003L65.8586 29.3003L65.3586 29.2003ZM100.759 57.0003V56.9003C100.759 56.7003 100.759 56.4003 100.659 56.2003C103.359 54.9003 106.959 53.9003 108.959 55.0003C109.959 55.5003 110.459 56.5003 110.759 57.9003C110.459 57.9003 110.259 57.9003 109.959 57.8003C109.659 56.3003 108.959 55.6003 108.259 55.3003C106.159 54.3003 102.959 55.8003 100.759 57.0003ZM108.159 57.8003C104.459 57.8003 101.859 58.8003 100.459 60.8003V59.3003C102.859 57.8003 106.059 56.2003 107.559 56.9003C107.659 57.0003 107.959 57.2003 108.159 57.8003ZM109.459 54.2003C107.559 53.2003 104.959 53.7003 102.859 54.3003C103.459 53.7003 103.759 52.9003 103.759 52.0003C103.759 51.9003 103.759 51.7003 103.759 51.6003L104.959 51.0003C105.359 52.4003 106.659 53.4003 108.259 53.4003C109.559 53.4003 110.759 52.6003 111.359 51.4003L112.459 52.2003C112.059 52.8003 111.759 53.5003 111.759 54.3003C111.759 56.2003 113.259 57.7003 115.159 57.7003C115.659 57.7003 116.159 57.6003 116.659 57.4003C116.759 57.8003 116.759 58.5003 116.559 59.3003C115.559 58.8003 114.559 58.4003 113.359 58.2003C112.759 58.1003 112.259 58.0003 111.759 58.0003C111.459 56.2003 110.659 54.9003 109.459 54.2003ZM107.959 84.8003C109.959 84.8003 111.559 83.2003 111.759 81.2003C112.159 81.2003 112.659 81.2003 113.259 81.1003L104.159 92.0002C104.059 92.0002 103.959 91.9003 103.859 91.9003L104.259 82.1003C104.759 83.7003 106.259 84.8003 107.959 84.8003ZM104.359 79.3003L104.459 77.5003C104.659 77.8003 104.859 78.0003 105.059 78.2003C104.759 78.5003 104.559 78.9003 104.359 79.3003ZM111.359 80.3003C111.059 80.3003 110.959 80.5003 110.959 80.8003C110.959 82.5003 109.659 83.9003 107.959 83.9003C106.359 83.9003 105.059 82.6002 105.059 81.0002C105.059 80.1002 105.459 79.1003 106.059 78.5003C106.159 78.4003 106.259 78.4003 106.259 78.2003C106.259 78.1003 106.159 77.9003 106.059 77.8003C106.059 77.8003 105.159 77.1003 104.559 75.7003V75.1003C105.159 76.3003 106.259 77.5003 107.259 78.3003C106.959 78.4003 106.659 78.5003 106.459 78.7003C105.959 79.1003 105.559 79.7003 105.459 80.4003C105.259 81.8003 106.259 83.1003 107.659 83.2003C107.659 83.2003 107.859 83.2003 107.959 83.2003C108.559 83.2003 109.059 83.0003 109.459 82.7003C109.959 82.3003 110.359 81.7002 110.459 81.0002C110.559 80.5002 110.359 80.1003 110.259 79.7003C110.759 79.8003 111.559 80.0002 112.059 80.0002C112.859 80.0002 113.659 79.9003 114.359 79.6003L113.859 80.0002C112.859 80.3002 111.359 80.3003 111.359 80.3003ZM109.959 74.6003C110.159 74.6003 110.359 74.6003 110.559 74.7003C110.659 74.7003 110.759 74.8003 110.859 74.8003C111.659 75.2003 112.059 76.2003 111.659 77.1003C111.359 78.0003 110.159 78.6003 109.259 78.2003C108.259 77.8003 107.759 76.7003 108.159 75.8003C108.459 75.1003 109.159 74.6003 109.959 74.6003ZM109.759 70.5003C109.759 70.4003 109.859 70.3003 109.859 70.2003C110.459 69.1003 111.759 68.5003 113.059 68.9003C113.159 68.9003 113.259 69.0003 113.359 69.0003C114.459 69.6003 115.059 71.0003 114.559 72.3003C114.459 72.4003 114.459 72.5003 114.459 72.6003C113.859 73.7003 112.559 74.3003 111.259 73.8003C111.159 73.8003 111.059 73.7003 110.959 73.7003C109.859 73.2003 109.259 71.8003 109.759 70.5003ZM108.259 79.1003C109.159 79.2003 109.759 80.0003 109.659 80.9003C109.559 81.3003 109.359 81.7002 109.059 82.0002C108.759 82.3002 108.359 82.4003 107.859 82.3003C106.959 82.2003 106.359 81.4002 106.459 80.5002C106.459 80.1002 106.759 79.7003 107.059 79.4003C107.459 79.2003 107.859 79.1003 108.259 79.1003ZM111.359 79.0003C111.859 78.7003 112.359 78.2003 112.559 77.5003C112.859 76.7003 112.759 75.8003 112.359 75.1003C113.059 75.1003 113.759 74.8003 114.259 74.4003C114.459 75.3003 115.059 76.1003 116.059 76.5003C116.359 76.6003 116.759 76.7003 117.059 76.7003C117.259 76.7003 117.359 76.7003 117.559 76.7003C116.059 78.3003 113.759 79.2003 111.359 79.0003ZM113.759 68.3003C113.659 68.3003 113.559 68.2003 113.459 68.2003C112.659 67.8003 112.259 66.8003 112.659 65.9003C113.059 65.0003 114.159 64.4003 115.059 64.8003C116.059 65.2003 116.559 66.3003 116.159 67.2003C115.859 68.1003 114.759 68.6003 113.759 68.3003ZM111.759 65.5003C111.459 66.3003 111.559 67.2003 111.959 67.9003C111.259 67.9003 110.559 68.2003 110.059 68.6003C109.859 67.7003 109.259 66.9003 108.259 66.5003C107.959 66.4003 107.559 66.3003 107.259 66.3003C107.059 66.3003 106.959 66.3003 106.759 66.3003C108.359 64.6003 110.659 63.7003 113.059 63.9003C112.459 64.4003 111.959 64.9003 111.759 65.5003ZM107.259 67.4003C107.459 67.4003 107.659 67.4003 107.959 67.5003C108.959 67.9003 109.359 68.9003 109.059 69.9003C109.059 70.0003 108.959 70.1003 108.959 70.1003C108.559 70.9003 107.559 71.3003 106.659 71.0003C105.659 70.6003 105.159 69.5003 105.559 68.6003C105.759 67.8003 106.459 67.4003 107.259 67.4003ZM106.259 71.9003C106.559 72.0003 106.959 72.1003 107.259 72.1003C107.759 72.1003 108.259 72.0003 108.659 71.7003C108.659 72.4003 108.959 73.1003 109.359 73.7003C108.459 73.9003 107.659 74.6003 107.259 75.5003C107.059 76.0003 107.059 76.5003 107.159 77.0003C105.459 75.4003 104.559 73.1003 104.859 70.7003C105.159 71.3003 105.559 71.7003 106.259 71.9003ZM105.159 64.1003L102.259 71.1003L100.759 73.0003L105.259 63.2003C105.259 63.3003 105.359 63.6003 105.159 64.1003ZM103.759 72.4003L102.859 91.9003C102.659 91.9003 102.359 91.9002 102.159 92.0002L102.959 74.4003L103.759 72.4003ZM97.2586 110.3C98.2586 110.7 98.8586 111.9 98.4586 112.9C98.0586 113.9 96.9586 114.5 95.8586 114.1C95.7586 114.1 95.6586 114 95.5586 114C94.6586 113.5 94.2586 112.4 94.6586 111.5C95.0586 110.4 96.2586 109.9 97.2586 110.3ZM96.4586 107.3C96.5586 106.8 96.7586 106.4 97.1586 106.1C97.4586 105.9 97.8586 105.7 98.2586 105.7C98.3586 105.7 98.3586 105.7 98.4586 105.7C99.4586 105.8 100.159 106.7 99.9586 107.7C99.8586 108.2 99.6586 108.6 99.2586 108.9C98.8586 109.2 98.4586 109.3 97.9586 109.3C97.0586 109.1 96.3586 108.2 96.4586 107.3ZM59.4586 50.4003C59.4586 50.5003 59.3586 50.6003 59.3586 50.7003V50.9003C58.5586 50.2003 57.7586 49.5003 57.0586 48.7003V47.2003C57.5586 47.7003 58.3586 48.4003 59.2586 49.3003V49.4003C59.1586 49.7003 59.2586 50.1003 59.4586 50.4003ZM59.3586 53.2003V55.5003C58.6586 56.1003 57.9586 56.8003 57.0586 57.7003V51.2003C57.7586 51.8003 58.5586 52.5003 59.3586 53.2003ZM59.3586 59.6003L59.2586 128.7L57.0586 132.4V61.9003L59.3586 59.6003ZM59.1586 134V152.8C59.1586 152.9 59.1586 153 59.1586 153L56.9586 157.5V137.5L59.1586 134ZM57.9586 159.9C58.7586 158.2 60.3586 157.1 62.0586 157.1C62.1586 157.1 62.2586 157.1 62.3586 157.1L60.0586 162.3C59.3586 161.6 58.5586 160.9 57.8586 160.2C57.8586 160.1 57.8586 160 57.9586 159.9ZM67.1586 120.6V136.2C67.1586 136.3 67.1586 136.3 67.1586 136.4L64.7586 141.5L64.8586 124.6L67.1586 120.6ZM64.8586 119.2L65.0586 58.6003C65.5586 59.0003 66.2586 59.5003 67.1586 59.9003V115.3L64.8586 119.2ZM67.0586 56.3003V56.6003C66.3586 56.2003 65.6586 55.8003 65.0586 55.3003V54.0003C65.0586 54.0003 65.1586 54.0003 65.1586 53.9003C65.6586 54.3003 66.1586 54.6003 66.7586 54.9003C66.6586 55.3003 66.8586 55.7003 67.1586 56.0003C67.1586 56.2003 67.0586 56.2003 67.0586 56.3003ZM64.7586 53.1003C64.5586 53.0003 64.4586 52.9003 64.2586 52.9003C64.1586 52.8003 64.1586 52.7003 64.1586 52.6003C64.1586 52.4003 64.3586 52.2003 64.7586 52.2003C65.0586 52.2003 65.2586 52.5003 65.1586 52.8003C65.0586 52.9003 64.8586 53.0003 64.7586 53.1003ZM68.9586 136.8L67.9586 144.7L67.1586 146.6L61.0586 153.4L68.9586 136.8ZM67.6586 55.0003C67.6586 54.8003 67.8586 54.6003 68.2586 54.6003C68.5586 54.6003 68.7586 54.9003 68.6586 55.2003C68.6586 55.4003 68.5586 55.5003 68.3586 55.5003C68.2586 55.4003 68.1586 55.3003 67.9586 55.3003C67.8586 55.3003 67.8586 55.4003 67.7586 55.4003C67.6586 55.3003 67.5586 55.2003 67.6586 55.0003ZM78.4586 116.9L77.4586 123.3L72.4586 129.5L78.4586 116.9ZM75.5586 58.4003C75.5586 58.2003 75.7586 58.0003 76.1586 58.0003C76.4586 58.0003 76.5586 58.3003 76.5586 58.6003C76.5586 58.8003 76.3586 58.9003 76.1586 59.0003C76.0586 59.0003 75.9586 58.9003 75.8586 58.9003C75.8586 58.9003 75.8586 58.9003 75.7586 58.9003C75.5586 58.8003 75.4586 58.6003 75.5586 58.4003ZM85.3586 55.1003C86.9586 55.0003 87.9586 54.1003 88.1586 52.8003L88.9586 53.0003C88.9586 53.1003 88.9586 53.3003 88.9586 53.4003C88.9586 54.7003 89.6586 55.9003 90.7586 56.4003C90.2586 56.6003 89.8586 56.9003 89.4586 57.3003C88.2586 58.5003 86.6586 58.3003 85.7586 58.2003C85.8586 57.8003 85.9586 57.5003 85.9586 57.1003C86.0586 56.4003 85.7586 55.7003 85.3586 55.1003ZM89.0586 121.8C88.8586 122.4 88.8586 122.9 88.9586 123.5C87.0586 121.8 86.0586 119.2 86.3586 116.6C86.6586 117.2 87.2586 117.7 87.8586 117.9C88.1586 118 88.5586 118.1 88.9586 118.1C89.4586 118.1 90.0586 118 90.4586 117.7C90.4586 118.5 90.7586 119.2 91.2586 119.8C90.2586 120.1 89.3586 120.8 89.0586 121.8ZM89.4586 125.6C89.9586 125.7 90.4586 125.9 90.7586 126.4C91.0586 126.8 91.2586 127.4 91.1586 127.9C91.0586 129 90.0586 129.8 88.9586 129.7C87.8586 129.6 87.0586 128.5 87.1586 127.4C87.2586 126.4 88.1586 125.6 89.1586 125.6C89.2586 125.6 89.3586 125.6 89.4586 125.6ZM85.9586 111.2C85.8586 110.3 85.3586 109.6 84.7586 109.2L86.6586 104.9L85.9586 111.2ZM90.8586 115.8C90.7586 115.9 90.7586 116 90.6586 116.1C90.1586 116.9 89.1586 117.3 88.2586 117C87.2586 116.6 86.6586 115.4 87.0586 114.4C87.3586 113.6 88.0586 113.1 88.9586 113.1C89.1586 113.1 89.4586 113.1 89.6586 113.2C90.6586 113.6 91.1586 114.7 90.8586 115.8ZM87.3586 108.1L87.8586 102.9L90.7586 99.7003L87.3586 108.1ZM88.7586 64.1003C89.3586 64.0003 89.9586 63.9003 90.5586 63.8003L90.6586 75.8003L88.6586 79.1003L88.7586 64.1003ZM88.6586 61.2003C88.8586 61.0003 89.0586 60.8003 89.1586 60.6003C89.5586 60.6003 89.9586 60.5003 90.2586 60.5003C90.3586 60.6003 90.4586 60.7003 90.5586 60.7003V61.1003C89.9586 61.1003 89.3586 61.2003 88.6586 61.2003ZM90.6586 81.1003V87.2003L88.5586 91.5002V84.4003L90.6586 81.1003ZM88.6586 95.6003L90.2586 92.3003L92.2586 90.2003L88.3586 99.0002L88.6586 95.6003ZM92.3586 72.9003V63.5003C93.1586 63.3003 93.9586 63.1003 94.6586 62.9003V69.1003L92.3586 72.9003ZM94.6586 74.4003V78.9003L92.4586 83.6003V78.2003L94.6586 74.4003ZM92.3586 60.6003C92.3586 60.5003 92.2586 60.5003 92.2586 60.4003C92.3586 60.3003 92.4586 60.2003 92.5586 60.0003C92.8586 59.9003 93.1586 59.8003 93.4586 59.8003C93.8586 59.7003 94.2586 59.5003 94.6586 59.4003V60.0003C93.8586 60.2003 93.0586 60.4003 92.3586 60.6003ZM94.6586 83.0002L94.3586 85.3003L93.0586 88.1003L91.2586 90.0002L94.6586 83.0002ZM93.3586 89.9003L92.7586 94.8003L91.8586 97.0002L88.5586 100.7L93.3586 89.9003ZM91.5586 59.8003L91.4586 59.7003C91.3586 59.7003 91.2586 59.8003 91.0586 59.8003C90.9586 59.8003 90.8586 59.7003 90.7586 59.6003C90.6586 59.5003 90.6586 59.4003 90.6586 59.2003C90.6586 59.0003 90.8586 58.8003 91.2586 58.8003C91.5586 58.8003 91.7586 59.1003 91.6586 59.4003C91.7586 59.6003 91.6586 59.7003 91.5586 59.8003ZM88.0586 60.5003C87.9586 60.5003 87.9586 60.4003 87.8586 60.4003C87.7586 60.4003 87.7586 60.5003 87.6586 60.5003C87.4586 60.4003 87.2586 60.2003 87.3586 60.0003C87.3586 59.8003 87.5586 59.6003 87.9586 59.6003C88.2586 59.6003 88.4586 59.9003 88.3586 60.2003C88.3586 60.3003 88.1586 60.4003 88.0586 60.5003ZM94.9586 93.9003C95.3586 95.1003 96.2586 96.0003 97.5586 96.1003C97.8586 96.1003 98.1586 96.1003 98.4586 96.1003L89.5586 107.2L94.9586 93.9003ZM97.7586 95.1003C96.5586 95.0003 95.7586 93.9003 95.8586 92.7003C95.9586 92.1003 96.2586 91.6003 96.6586 91.2003C97.0586 90.9003 97.4586 90.7003 97.9586 90.7003C98.0586 90.7003 98.1586 90.7003 98.2586 90.7003C99.4586 90.8003 100.259 91.9003 100.159 93.1003C100.059 93.7003 99.7586 94.2003 99.3586 94.6003C98.8586 95.0003 98.2586 95.2003 97.7586 95.1003ZM93.7586 92.2003L94.7586 87.2003L97.1586 84.2003L93.7586 92.2003ZM95.4586 81.4003L96.1586 80.0002L98.3586 77.0003L95.1586 83.9003L95.4586 81.4003ZM95.1586 58.0003C95.1586 58.0003 95.1586 57.9003 95.2586 57.9003C95.3586 57.7003 95.4586 57.6003 95.7586 57.6003C96.0586 57.7003 96.2586 57.9003 96.1586 58.2003C96.1586 58.4003 96.0586 58.5003 95.8586 58.5003C95.7586 58.5003 95.6586 58.4003 95.5586 58.4003C95.4586 58.4003 95.4586 58.5003 95.3586 58.5003C95.3586 58.5003 95.2586 58.5003 95.2586 58.4003C95.1586 58.3003 95.0586 58.2003 95.1586 58.0003ZM98.7586 67.5003V70.3003L96.3586 75.3003V71.5003L98.7586 67.5003ZM96.3586 66.1003V62.3003C96.8586 62.1003 97.2586 62.0003 97.6586 61.8003V63.9003L96.3586 66.1003ZM98.6586 58.4003C98.5586 58.5003 98.4586 58.6003 98.3586 58.6003C97.6586 58.9003 97.0586 59.1003 96.3586 59.4003V59.3003C96.6586 59.1003 96.8586 58.8003 96.9586 58.5003C97.4586 58.3003 97.9586 58.0003 98.3586 57.7003C98.4586 57.8003 98.5586 57.9003 98.6586 57.9003C98.6586 57.9003 98.6586 57.9003 98.6586 58.0003V58.4003ZM95.2586 85.6003L98.8586 77.6003L98.3586 80.9003L97.6586 82.7003L95.2586 85.6003ZM97.2586 77.2003L99.8586 71.7003L99.0586 75.7003L97.2586 77.2003ZM99.6586 57.1003C99.5586 57.1003 99.5586 57.1003 99.4586 57.1003C99.3586 57.1003 99.3586 57.2003 99.2586 57.2003C99.0586 57.1003 98.8586 56.9003 98.8586 56.6003C98.8586 56.4003 99.0586 56.2003 99.4586 56.2003C99.5586 56.2003 99.6586 56.3003 99.7586 56.4003C99.8586 56.5003 99.8586 56.6003 99.8586 56.8003C99.8586 56.9003 99.7586 57.0003 99.6586 57.1003ZM97.9586 56.4003C97.9586 56.5003 97.9586 56.7003 97.9586 56.8003C97.5586 57.0003 97.1586 57.2003 96.7586 57.4003C96.5586 57.0003 96.2586 56.7003 95.7586 56.6003C95.2586 56.5003 94.8586 56.7003 94.5586 57.0003C94.3586 56.8003 94.0586 56.6003 93.6586 56.5003C94.7586 56.0003 95.5586 55.0003 95.6586 53.7003L97.0586 53.3003C97.4586 54.2003 98.1586 54.9003 99.1586 55.2003C98.6586 55.3003 98.0586 55.8003 97.9586 56.4003ZM94.2586 58.0003C94.2586 58.2003 94.2586 58.3003 94.3586 58.5003C93.9586 58.6003 93.6586 58.7003 93.2586 58.8003C93.0586 58.9003 92.8586 58.9003 92.6586 59.0003C92.5586 58.5003 92.0586 58.1003 91.5586 58.0003C90.7586 57.9003 90.0586 58.4003 89.9586 59.1003C89.9586 59.2003 89.9586 59.4003 89.9586 59.5003C89.7586 59.5003 89.5586 59.6003 89.2586 59.6003C89.1586 59.4003 89.0586 59.1003 88.8586 59.0003C89.3586 58.8003 89.8586 58.5003 90.3586 58.1003C90.9586 57.5003 91.6586 57.2003 92.2586 57.2003C93.1586 57.2003 93.9586 57.8003 94.2586 58.0003ZM86.9586 64.2003L86.8586 82.1003L84.5586 85.9003V64.3003C85.4586 64.3003 86.2586 64.3003 86.9586 64.2003ZM84.6586 61.5003V61.2003C84.8586 61.1003 85.0586 60.9003 85.1586 60.7003C85.3586 60.7003 85.5586 60.7003 85.7586 60.7003C86.0586 60.7003 86.3586 60.7003 86.7586 60.7003C86.8586 60.9003 86.9586 61.0003 87.1586 61.1003L87.0586 61.2003V61.3003C86.1586 61.5003 85.4586 61.5003 84.6586 61.5003ZM86.8586 87.4003V95.0002V95.1003L84.6586 99.7003V91.1003L86.8586 87.4003ZM87.3586 98.2003L86.9586 101.8L86.3586 103.1L83.3586 106.4L87.3586 98.2003ZM84.1586 60.5003C84.0586 60.4003 83.8586 60.3003 83.7586 60.3003C83.6586 60.3003 83.5586 60.4003 83.5586 60.4003C83.4586 60.3003 83.3586 60.1003 83.4586 60.0003C83.4586 59.8003 83.6586 59.6003 84.0586 59.6003C84.3586 59.7003 84.5586 59.9003 84.4586 60.2003C84.3586 60.3003 84.2586 60.4003 84.1586 60.5003ZM85.0586 106L83.7586 108.9C83.3586 108.8 82.9586 108.9 82.5586 109C82.4586 109 82.3586 109.1 82.2586 109.1L85.0586 106ZM82.9586 64.2003V88.8003L80.8586 92.3003V64.0003C81.5586 64.1003 82.2586 64.2003 82.9586 64.2003ZM80.8586 61.3003V61.0003C81.0586 60.9003 81.2586 60.7003 81.4586 60.4003C81.8586 60.4003 82.3586 60.5003 82.7586 60.5003C82.8586 60.7003 82.9586 60.8003 83.0586 61.0003V61.1003V61.4003C82.1586 61.4003 81.4586 61.4003 80.8586 61.3003ZM82.8586 94.1003V103.2C82.8586 103.3 82.8586 103.3 82.8586 103.4L80.7586 107.9V97.7003L82.8586 94.1003ZM80.8586 112C81.3586 111 82.1586 110.2 82.9586 110C83.2586 109.9 83.7586 109.8 84.1586 110C85.1586 110.5 85.3586 112.3 84.5586 113.9C84.0586 114.9 83.2586 115.7 82.4586 115.9C82.1586 116 81.6586 116.1 81.2586 115.9C80.1586 115.4 80.0586 113.6 80.8586 112ZM85.0586 123.6C85.3586 124.1 85.7586 124.4 85.9586 124.7C85.4586 125.3 85.0586 126.1 84.9586 126.9L85.0586 123.6ZM73.1586 133V130.2L75.9586 126.7L73.1586 133ZM76.7586 127.3L75.9586 132.3L73.8586 133.8L76.7586 127.3ZM75.6586 133.7L75.0586 137.7L73.1586 139.8V135.6L75.6586 133.7ZM75.7586 141.2C76.2586 142.2 77.1586 143.1 78.3586 143.2C78.4586 143.2 78.6586 143.2 78.7586 143.2C79.5586 143.2 80.2586 142.9 80.8586 142.4V142.5L69.6586 156L75.7586 141.2ZM78.5586 142.2C77.2586 142 76.3586 140.9 76.4586 139.6L76.9586 138.4C77.3586 137.8 78.0586 137.4 78.8586 137.4C78.9586 137.4 79.0586 137.4 79.1586 137.4C80.4586 137.6 81.3586 138.8 81.2586 140.1C81.0586 141.4 79.8586 142.4 78.5586 142.2ZM79.2586 136.5C78.6586 136.4 78.1586 136.5 77.6586 136.7L82.1586 125.5L82.0586 138.9C81.6586 137.7 80.5586 136.6 79.2586 136.5ZM76.5586 134.7L78.3586 123.8L83.7586 117.1L76.5586 134.7ZM79.8586 120.2L81.2586 117C81.6586 117.1 81.9586 117.1 82.3586 117L79.8586 120.2ZM83.1586 123L84.1586 120.5L83.8586 138.7C83.5586 138.7 83.2586 138.8 83.0586 138.9L83.1586 123ZM80.3586 60.3003C80.2586 60.2003 80.0586 60.1003 79.9586 60.1003C79.8586 60.1003 79.8586 60.2003 79.7586 60.2003C79.6586 60.1003 79.6586 60.0003 79.6586 59.8003C79.6586 59.6003 79.8586 59.4003 80.2586 59.4003C80.3586 59.4003 80.4586 59.5003 80.5586 59.6003C80.6586 59.7003 80.6586 59.8003 80.6586 60.0003C80.5586 60.1003 80.4586 60.2003 80.3586 60.3003ZM80.3586 116.6L78.8586 119.9L79.5586 115.6C79.8586 116 80.0586 116.4 80.3586 116.6ZM79.0586 61.0003C78.2586 60.9003 77.4586 60.8003 76.7586 60.6003V59.8003L76.8586 59.7003C77.5586 59.9003 78.1586 60.0003 78.7586 60.2003C78.7586 60.4003 78.8586 60.6003 78.9586 60.8003C78.9586 60.9003 79.0586 60.9003 79.0586 60.9003C79.1586 60.8003 79.0586 60.9003 79.0586 61.0003ZM76.7586 63.3003C77.4586 63.5003 78.2586 63.6003 79.0586 63.7003V95.3003L76.6586 99.4003L76.7586 63.3003ZM79.0586 100.6V111.6L76.5586 116.7V104.7L79.0586 100.6ZM74.8586 120.4L72.7586 124.7V111.1L74.8586 107.6V120.4C74.7586 120.4 74.7586 120.4 74.8586 120.4ZM74.9586 59.7003V60.0003C74.2586 59.8003 73.5586 59.5003 72.8586 59.3003V58.4003C72.9586 58.4003 73.0586 58.3003 73.0586 58.3003C73.5586 58.5003 74.0586 58.7003 74.6586 58.9003C74.7586 59.1003 74.8586 59.3003 75.0586 59.5003C75.0586 59.5003 74.9586 59.6003 74.9586 59.7003ZM74.9586 62.9003L74.8586 102.4L72.7586 105.9L72.8586 62.4003C73.5586 62.5003 74.2586 62.7003 74.9586 62.9003ZM72.4586 57.6003C72.3586 57.5003 72.1586 57.4003 72.0586 57.4003C72.0586 57.4003 72.0586 57.4003 71.9586 57.4003C71.8586 57.3003 71.8586 57.2003 71.8586 57.0003C71.8586 56.8003 72.0586 56.6003 72.4586 56.6003C72.7586 56.7003 72.9586 56.9003 72.8586 57.2003C72.7586 57.4003 72.6586 57.5003 72.4586 57.6003ZM71.0586 114.1V127.8C71.0586 127.9 71.0586 128.1 71.1586 128.2L68.9586 132.7V117.6L71.0586 114.1ZM68.8586 112.4V60.8003C69.5586 61.1003 70.3586 61.4003 71.1586 61.7003L71.0586 108.8L68.8586 112.4ZM69.7586 138L71.4586 136.8L69.3586 141.5L69.7586 138ZM72.1586 137.6V140.9L69.2586 144.2L72.1586 137.6ZM72.1586 131.4V135L69.9586 136.6L70.2586 133.9L70.4586 133.4L72.1586 131.4ZM71.1586 58.3003V58.6003C70.3586 58.3003 69.5586 57.9003 68.8586 57.5003V56.3003C68.8586 56.3003 68.9586 56.3003 68.9586 56.2003C69.6586 56.6003 70.3586 56.9003 70.9586 57.3003C70.9586 57.6003 71.0586 57.8003 71.2586 58.0003C71.2586 58.1003 71.1586 58.2003 71.1586 58.3003ZM63.0586 145.1L60.9586 149.5V131.1L63.0586 127.6L62.9586 144.8C62.9586 144.9 62.9586 145 63.0586 145.1ZM63.2586 53.7003V54.0003C62.4586 53.5003 61.7586 52.9003 61.0586 52.3003V50.8003C61.6586 51.3003 62.3586 51.9003 63.0586 52.4003C63.0586 52.7003 63.0586 53.1003 63.2586 53.4003C63.3586 53.5003 63.2586 53.6003 63.2586 53.7003ZM62.3586 56.5003C62.6586 56.6003 62.9586 56.8003 63.2586 57.1003L63.0586 122.2L60.9586 125.7L61.0586 57.8003L62.3586 56.5003ZM60.7586 50.1003C60.6586 50.0003 60.4586 49.9003 60.2586 49.9003C60.1586 49.8003 60.1586 49.7003 60.1586 49.5003C60.1586 49.3003 60.3586 49.1003 60.7586 49.1003C60.8586 49.1003 60.9586 49.2003 61.0586 49.3003C61.1586 49.4003 61.1586 49.5003 61.1586 49.7003C61.0586 49.9003 60.8586 50.0003 60.7586 50.1003ZM65.8586 149.5L63.0586 155.9C62.7586 155.8 62.4586 155.8 62.1586 155.8C61.3586 155.8 60.5586 156.1 59.7586 156.4L65.8586 149.5ZM63.3586 157.4C63.4586 157.4 63.5586 157.5 63.6586 157.5C65.4586 158.6 65.7586 161.4 64.4586 163.8C64.1586 164.3 63.7586 164.9 63.2586 164.9C63.1586 164.9 63.0586 164.9 63.0586 164.8C62.3586 164.2 61.5586 163.6 60.8586 163L63.3586 157.4ZM64.3586 156.3C64.2586 156.2 64.0586 156.2 63.8586 156.1L67.4586 148L66.1586 158.5C65.8586 157.6 65.2586 156.8 64.3586 156.3ZM68.7586 146.2L74.4586 139.8L67.3586 157.2L68.7586 146.2ZM68.5586 159.1L81.3586 143.6C81.5586 143.9 81.7586 144.2 81.9586 144.4L67.6586 161.2L68.5586 159.1ZM81.8586 141.7C81.9586 140.5 83.0586 139.6 84.2586 139.6C84.3586 139.6 84.4586 139.6 84.5586 139.6C85.8586 139.8 86.7586 141 86.6586 142.3C86.4586 143.6 85.2586 144.6 83.9586 144.4C82.6586 144.3 81.7586 143.1 81.8586 141.7ZM85.1586 138.8C85.0586 138.8 84.8586 138.7 84.7586 138.7L84.9586 128.2C85.2586 130.3 87.0586 131.9 89.1586 131.9C91.2586 131.9 93.1586 130.1 93.3586 127.9C93.9586 127.9 94.8586 127.8 95.7586 127.6L85.1586 138.8ZM92.9586 127C92.6586 127 92.4586 127.2 92.4586 127.5C92.4586 129.4 90.9586 130.9 89.1586 130.9C87.3586 130.9 85.8586 129.4 85.8586 127.6C85.8586 126.6 86.2586 125.6 86.9586 125C87.0586 124.9 87.1586 124.7 87.1586 124.6C87.1586 124.4 87.0586 124.3 86.9586 124.2C86.9586 124.2 85.9586 123.5 85.2586 122C85.2586 121.9 85.1586 121.8 85.0586 121.8L85.1586 118.4C85.1586 118.3 85.1586 118.3 85.0586 118.3L85.2586 117.8C85.3586 120.5 86.5586 123 88.6586 124.7C87.3586 124.9 86.3586 126 86.1586 127.3C85.9586 129 87.1586 130.5 88.7586 130.7C88.8586 130.7 89.0586 130.7 89.1586 130.7C90.6586 130.7 91.9586 129.6 92.1586 128C92.2586 127.4 92.1586 126.8 91.8586 126.2C92.6586 126.4 93.3586 126.5 94.1586 126.5C95.3586 126.5 96.4586 126.2 97.5586 125.8L97.1586 126.2C97.0586 126.2 96.9586 126.2 96.8586 126.3C96.0586 126.7 93.7586 126.9 92.9586 127ZM91.0586 124.7C90.0586 124.3 89.4586 123.1 89.8586 122.1C90.1586 121.3 90.8586 120.8 91.7586 120.8C91.9586 120.8 92.1586 120.8 92.3586 120.9C92.4586 121 92.5586 121 92.7586 121.1C93.5586 121.6 93.9586 122.7 93.6586 123.6C93.3586 124.5 92.1586 125.1 91.0586 124.7ZM93.2586 120.2C93.1586 120.1 93.0586 120.1 92.8586 120C91.6586 119.3 91.0586 117.9 91.5586 116.5C91.6586 116.4 91.6586 116.3 91.7586 116.1C92.3586 114.9 93.7586 114.3 95.2586 114.8C95.3586 114.8 95.4586 114.9 95.5586 114.9C96.8586 115.6 97.3586 117 96.8586 118.4C96.8586 118.5 96.7586 118.6 96.7586 118.7C96.0586 120 94.5586 120.6 93.2586 120.2ZM93.7586 111.1C93.4586 112 93.5586 112.9 93.9586 113.7C93.1586 113.7 92.4586 114 91.8586 114.5C91.6586 113.5 90.9586 112.7 89.9586 112.3C89.6586 112.2 89.2586 112.1 88.8586 112.1C88.6586 112.1 88.4586 112.1 88.2586 112.2C89.9586 110.3 92.5586 109.3 95.0586 109.6C94.4586 109.9 94.0586 110.4 93.7586 111.1ZM88.0586 111L88.3586 110.3L99.9586 95.9003C100.059 96.2003 100.159 96.5003 100.359 96.8003L90.2586 109.4C89.4586 109.8 88.7586 110.3 88.0586 111ZM98.3586 89.8003C97.6586 89.7003 97.0586 89.9003 96.4586 90.2003L101.859 77.0003L101.159 92.4003C100.859 91.1003 99.7586 90.0003 98.3586 89.8003ZM99.1586 79.1003L99.4586 76.2003L101.859 72.4003L99.1586 79.1003ZM99.8586 74.0003C99.8586 74.0003 100.759 70.0003 100.759 69.9003L104.159 63.1003L104.459 63.0003L99.8586 74.0003ZM100.159 55.5003C100.159 55.5003 100.059 55.5003 100.059 55.4003C100.059 55.4003 100.159 55.5003 100.159 55.5003ZM84.7586 53.2003H84.6586C84.1586 53.1003 83.8586 52.7003 83.9586 52.2003C84.0586 51.8003 84.3586 51.5003 84.8586 51.5003C84.8586 51.5003 84.9586 51.5003 85.0586 51.5003C85.5586 51.6003 85.8586 52.0003 85.7586 52.5003C85.5586 52.9003 85.1586 53.2003 84.7586 53.2003ZM74.2586 51.0003C72.8586 51.0003 71.5586 51.9003 71.1586 53.2003L69.1586 52.0003C69.5586 51.4003 69.7586 50.8003 69.7586 50.1003C69.7586 48.3003 68.2586 46.7003 66.4586 46.7003C65.2586 46.7003 64.1586 47.4003 63.5586 48.4003C63.1586 48.0003 62.3586 47.0003 60.7586 44.9003C61.6586 44.0003 62.0586 43.0003 61.9586 42.0003C61.8586 40.7003 60.9586 39.6003 60.4586 39.1003L62.4586 37.5003C62.8586 38.9003 64.1586 40.0003 65.7586 40.0003C66.4586 40.0003 67.1586 39.8003 67.7586 39.4003L68.6586 40.6003C68.1586 41.2003 67.9586 41.9003 67.9586 42.7003C67.9586 44.6003 69.4586 46.1003 71.3586 46.1003C72.0586 46.1003 72.6586 45.9003 73.1586 45.6003L74.6586 46.7003C74.4586 47.1003 74.3586 47.6003 74.3586 48.0003C74.3586 49.9003 75.8586 51.4003 77.7586 51.4003C78.7586 51.4003 79.7586 50.9003 80.3586 50.2003L81.7586 50.7003C81.6586 51.0003 81.6586 51.3003 81.6586 51.6003C81.6586 52.4003 81.9586 53.1003 82.3586 53.7003C80.9586 53.9003 79.7586 55.0003 79.4586 56.4003L77.2586 55.7003C77.4586 55.2003 77.5586 54.7003 77.5586 54.2003C77.6586 52.5003 76.1586 51.0003 74.2586 51.0003ZM75.1586 53.9003C75.0586 54.4003 74.6586 54.7003 74.1586 54.6003C73.6586 54.5003 73.3586 54.1003 73.4586 53.6003C73.5586 53.2003 73.8586 52.9003 74.2586 52.9003H74.3586C74.8586 53.0003 75.2586 53.5003 75.1586 53.9003ZM67.4586 49.7003C67.3586 50.1003 67.0586 50.4003 66.6586 50.4003H66.5586C66.0586 50.3003 65.7586 49.9003 65.8586 49.4003C65.9586 49.0003 66.2586 48.7003 66.6586 48.7003C66.7586 48.7003 66.7586 48.7003 66.8586 48.7003C67.2586 48.8003 67.5586 49.2003 67.4586 49.7003ZM83.7586 56.7003C83.6586 57.2003 83.2586 57.5003 82.7586 57.4003C82.2586 57.3003 81.9586 56.9003 82.0586 56.4003C82.1586 56.0003 82.4586 55.7003 82.8586 55.7003C82.8586 55.7003 82.9586 55.7003 83.0586 55.7003C83.5586 55.7003 83.8586 56.2003 83.7586 56.7003ZM56.9586 45.9003C56.9586 46.0003 56.8586 46.0003 56.8586 46.1003C56.7586 46.1003 56.7586 46.1003 56.6586 46.2003V46.3003C56.5586 46.3003 56.5586 46.4003 56.4586 46.4003C56.3586 46.4003 56.3586 46.3003 56.2586 46.3003C56.0586 46.2003 55.9586 46.0003 55.9586 45.8003C55.9586 45.6003 56.1586 45.4003 56.5586 45.4003C56.6586 45.4003 56.7586 45.5003 56.8586 45.6003C56.9586 45.6003 56.9586 45.7003 56.9586 45.9003ZM47.7586 172.6C47.8586 172 48.2586 171.4 48.7586 171.1C48.9586 171 49.2586 170.8 49.6586 170.8C49.7586 170.8 49.9586 170.8 50.0586 170.9C50.3586 171 50.4586 171 50.5586 171.1L50.1586 171.9C50.0586 172 50.0586 172.2 49.9586 172.3L48.7586 174.8C48.0586 174.3 47.6586 173.5 47.7586 172.6ZM48.2586 176L47.9586 176.6C47.9586 176.4 47.9586 176.1 47.9586 175.9C48.0586 175.9 48.1586 175.9 48.2586 176ZM48.8586 146C39.9586 129.3 39.5586 111.9 39.5586 111.7C38.5586 89.2003 47.3586 73.3003 55.2586 63.8003V135.3L48.8586 146ZM55.2586 140.6V157.2C53.2586 154.8 51.4586 152.2 49.8586 149.7L55.2586 140.6ZM41.6586 136.2C41.6586 136.3 41.6586 136.3 41.6586 136.2L39.3586 141.7L34.0586 139.4L37.3586 135.2L41.6586 136.2ZM38.1586 134.2L40.2586 131.6C40.5586 132.7 40.8586 133.8 41.2586 135L38.1586 134.2ZM39.9586 143.2L44.4586 145.2C42.6586 145.5 40.0586 146.2 38.1586 147.4L39.9586 143.2ZM40.3586 142.2L42.2586 137.9C43.0586 140 43.8586 142.1 44.8586 144.2L40.3586 142.2ZM36.8586 110.8L32.3586 108.8L36.8586 106.1C36.8586 107.6 36.8586 109.2 36.8586 110.8ZM34.1586 101.4L37.3586 99.5002C37.1586 100.8 37.0586 102.1 37.0586 103.5L34.1586 101.4ZM36.9586 113C37.0586 113.9 37.1586 115.4 37.3586 117.2L33.0586 115.5L36.9586 113ZM37.5586 119.3C37.7586 120.5 37.9586 121.8 38.1586 123.2L33.5586 121.9L37.5586 119.3ZM35.2586 94.5002L38.4586 92.8003C38.1586 94.1003 37.9586 95.5003 37.7586 96.8003L35.2586 94.5002ZM38.6586 125.4C38.9586 126.6 39.2586 127.9 39.5586 129.3L35.3586 128.1L38.6586 125.4ZM40.8586 84.1003L36.0586 86.6003L33.4586 83.3003L38.5586 81.0002L40.8586 84.1003ZM39.5586 80.5002L42.8586 79.0003C42.2586 80.3003 41.7586 81.5003 41.2586 82.9003L39.5586 80.5002ZM40.3586 85.6003C39.8586 87.1003 39.4586 88.7003 39.0586 90.4003L36.7586 87.5002L40.3586 85.6003ZM44.0586 76.4003L42.1586 73.3003L46.4586 71.7003C45.6586 73.2003 44.8586 74.7003 44.0586 76.4003ZM47.5586 70.0003L46.2586 66.1003L51.4586 64.3003C50.1586 66.0003 48.8586 67.9003 47.5586 70.0003ZM45.8586 65.0003L44.8586 62.0003C45.8586 62.7003 47.2586 63.5003 48.9586 63.8003L45.8586 65.0003ZM45.1586 66.5003L46.5586 70.5003L41.6586 72.3003L39.4586 68.6003L45.1586 66.5003ZM40.4586 72.7003L36.3586 74.2003C37.1586 72.4003 37.9586 70.9003 38.6586 69.7003L40.4586 72.7003ZM41.0586 73.7003L43.3586 77.5003L38.8586 79.5002L35.9586 75.5003L41.0586 73.7003ZM37.8586 80.0002L33.2586 82.1003C33.9586 80.1003 34.5586 78.2003 35.2586 76.6003L37.8586 80.0002ZM34.9586 87.1003L31.3586 89.0002C31.7586 87.3002 32.1586 85.7003 32.6586 84.2003L34.9586 87.1003ZM35.7586 88.0002L38.5586 91.5002L34.4586 93.7003L31.0586 90.5002C31.0586 90.4002 31.0586 90.4003 31.0586 90.3003C31.1586 90.3003 31.2586 90.3003 31.2586 90.3003L35.7586 88.0002ZM33.3586 94.3003L30.0586 96.1003C30.2586 94.6003 30.5586 93.2003 30.8586 91.9003L33.3586 94.3003ZM34.1586 95.1003L37.3586 98.2003L33.0586 100.7L29.5586 98.1003C29.5586 97.9003 29.6586 97.6003 29.6586 97.4003H29.7586L34.1586 95.1003ZM32.0586 101.3L29.0586 103C29.1586 101.8 29.2586 100.5 29.4586 99.4003L32.0586 101.3ZM33.0586 102L36.8586 104.8L31.1586 108.2L28.7586 107.1C28.8586 105.8 28.9586 104.8 28.9586 104.3L33.0586 102ZM29.9586 109L28.6586 109.8C28.6586 109.3 28.6586 108.9 28.6586 108.4L29.9586 109ZM31.2586 109.5L36.5586 111.9L31.6586 115L28.6586 113.8C28.6586 112.9 28.6586 112 28.6586 111.1L31.2586 109.5ZM30.4586 115.7L28.7586 116.8C28.7586 116.2 28.6586 115.6 28.6586 115L30.4586 115.7ZM31.7586 116.2L36.9586 118.3L32.2586 121.5L29.1586 120.6C29.0586 119.7 28.9586 118.9 28.9586 118L31.7586 116.2ZM31.0586 122.3L29.4586 123.4C29.3586 122.9 29.3586 122.4 29.2586 121.9L31.0586 122.3ZM32.4586 122.7L38.1586 124.3L34.0586 127.7L29.9586 126.5C29.8586 125.9 29.7586 125.2 29.6586 124.6L32.4586 122.7ZM33.0586 128.5L30.7586 130.4C30.5586 129.5 30.3586 128.6 30.1586 127.7L33.0586 128.5ZM34.3586 128.9L39.7586 130.4L36.9586 133.9L31.3586 132.6C31.2586 132.3 31.1586 131.9 31.1586 131.6L34.3586 128.9ZM36.1586 134.9L33.5586 138.2C33.2586 137.2 32.7586 136.1 32.0586 135C31.9586 134.6 31.8586 134.2 31.7586 133.8L36.1586 134.9ZM33.9586 140.6L38.9586 142.7C38.9586 142.7 35.9586 149.6 36.0586 149.7L34.6586 153C32.4586 149.1 32.1586 147.6 32.1586 147.3C32.6586 146.7 33.0586 145.9 33.3586 145.1C33.6586 144.1 34.0586 142.5 33.9586 140.6ZM37.0586 150.1C38.0586 147.7 43.2586 146.5 45.8586 146.2C48.0586 150.5 50.7586 154.8 54.1586 158.7C53.6586 158.8 53.2586 159 52.8586 159.2C52.0586 159.7 51.5586 160.5 51.4586 161.5C51.2586 162.4 51.4586 163.3 51.9586 164C51.3586 164 50.6586 164.2 50.1586 164.6C49.3586 165.1 48.8586 165.9 48.6586 166.9C48.4586 167.8 48.7586 168.7 49.2586 169.5C48.8586 169.6 48.5586 169.7 48.1586 169.9C47.4586 170.3 46.9586 170.9 46.6586 171.7C45.6586 169.7 44.1586 167.1 41.6586 163.7C38.8586 159.8 36.8586 156.7 35.4586 154.4L37.0586 150.1ZM49.9586 167.1C50.0586 166.5 50.3586 166.1 50.8586 165.7C51.2586 165.5 51.6586 165.3 52.0586 165.3C52.1586 165.3 52.2586 165.3 52.4586 165.3C53.0586 165.4 53.2586 165.5 53.2586 165.5L51.4586 169.3C50.4586 169 49.8586 168.1 49.9586 167.1ZM52.7586 161.7C52.8586 161.1 53.1586 160.7 53.6586 160.3C54.0586 160.1 54.4586 159.9 54.8586 159.9C54.9586 159.9 55.0586 159.9 55.2586 159.9C55.3586 159.9 55.3586 159.9 55.4586 160C55.5586 160.1 55.6586 160.2 55.7586 160.3V160.4L55.1586 161.8C54.6586 162.6 54.2586 163.4 54.0586 163.9C53.0586 163.6 52.5586 162.7 52.7586 161.7ZM58.6586 27.7003C59.6586 27.0003 60.4586 26.9003 60.8586 26.9003C60.9586 26.9003 61.0586 26.9003 61.0586 26.9003C61.1586 27.1003 60.6586 28.0003 59.3586 28.8003C58.0586 29.6003 57.0586 29.7003 56.9586 29.6003C56.9586 29.5003 57.3586 28.6003 58.6586 27.7003ZM49.9586 34.9003C50.9586 34.2003 51.7586 34.1003 52.1586 34.1003C52.2586 34.1003 52.3586 34.1003 52.3586 34.1003C52.4586 34.3003 51.9586 35.2003 50.6586 36.0003C49.3586 36.9003 48.3586 36.9003 48.2586 36.8003C48.2586 36.6003 48.6586 35.8003 49.9586 34.9003ZM46.4586 38.8003L47.7586 37.8003C47.8586 37.9003 47.9586 37.9003 48.1586 37.9003C48.9586 38.1003 50.1586 37.7003 51.3586 36.9003C52.8586 35.9003 53.9586 34.5003 53.4586 33.5003L57.1586 30.7003C57.9586 30.8003 59.0586 30.4003 60.0586 29.7003C61.2586 28.9003 62.2586 27.8003 62.2586 26.9003L62.7586 26.6003L64.2586 27.6003L48.9586 39.9003L46.4586 38.8003ZM49.7586 43.0003C49.5586 43.2003 49.1586 43.5003 48.5586 44.0003C48.0586 43.1003 47.2586 41.5003 46.5586 40.1003L48.4586 41.0003C48.4586 41.1003 48.4586 41.2003 48.5586 41.3003C48.5586 41.3003 49.0586 42.0003 49.7586 43.0003ZM50.8586 44.4003C51.9586 45.8003 53.4586 47.5003 55.2586 49.4003V52.5003C54.4586 50.8003 52.8586 49.5003 50.8586 49.1003C47.4586 48.5003 44.3586 50.8003 43.7586 54.1003C43.1586 57.5003 45.3586 60.7003 48.7586 61.2003C49.1586 61.3003 49.4586 61.3003 49.8586 61.3003C52.2586 61.3003 54.3586 59.9003 55.3586 57.8003V59.4003C54.4586 60.4003 53.5586 61.5003 52.5586 62.7003C52.4586 62.7003 52.3586 62.6003 52.3586 62.6003C52.2586 62.6003 52.0586 62.6003 51.9586 62.6003C51.8586 62.6003 51.8586 62.6003 51.7586 62.6003H51.6586C51.3586 62.6003 51.1586 62.7003 50.8586 62.7003C46.6586 62.7003 44.0586 59.5003 44.0586 59.5003C44.0586 59.5003 43.9586 59.5003 43.9586 59.4003L43.8586 59.3003C43.7586 59.3003 43.6586 59.3003 43.6586 59.3003H43.5586C43.4586 59.3003 43.4586 59.4003 43.3586 59.5003C43.3586 59.5003 43.2586 59.5003 43.2586 59.6003C43.1586 59.7003 43.1586 59.9003 43.2586 60.0003L44.8586 65.1003L40.6586 66.6003C41.7586 65.0003 42.4586 64.2003 42.4586 64.1003C42.6586 64.0003 42.8586 63.9003 42.9586 63.6003C42.9586 63.4003 44.0586 57.9003 40.1586 55.2003C45.2586 48.8003 50.0586 45.0003 50.8586 44.4003ZM54.7586 56.2003C54.2586 58.9003 51.7586 60.8003 48.9586 60.3003C46.2586 59.8003 44.4586 57.2003 44.9586 54.5003C45.3586 52.1003 47.4586 50.3003 49.8586 50.3003C50.1586 50.3003 50.4586 50.3003 50.7586 50.4003C53.3586 50.8003 55.1586 53.4003 54.7586 56.2003ZM36.4586 57.4003C36.5586 56.8003 37.0586 56.2003 37.7586 56.2003C38.0586 56.2003 38.3586 56.3003 38.7586 56.5003C40.6586 57.6003 41.2586 59.6003 41.4586 61.2003C40.4586 60.0003 39.2586 59.5003 38.0586 59.1003C37.6586 59.0003 37.3586 58.8003 36.9586 58.7003C36.4586 58.4003 36.3586 57.9003 36.4586 57.4003ZM36.6586 60.1003C36.9586 60.2003 37.2586 60.3003 37.5586 60.4003C39.0586 61.0003 40.3586 61.5003 41.1586 63.6003C40.8586 63.9003 39.2586 65.7003 37.2586 69.2003C37.1586 68.7003 36.7586 68.2003 36.1586 68.1003C36.9586 67.8003 37.6586 67.3003 38.1586 66.6003C39.2586 64.9003 38.6586 62.7003 37.0586 61.6003C36.6586 61.4003 36.2586 61.2003 35.9586 61.2003C36.2586 60.8003 36.4586 60.4003 36.6586 60.1003ZM34.5586 63.4003C34.7586 63.3003 34.9586 63.2003 35.1586 63.2003C35.9586 63.2003 36.5586 63.8003 36.5586 64.6003C36.5586 65.4003 35.9586 66.0003 35.1586 66.0003C34.3586 66.0003 33.7586 65.4003 33.7586 64.6003C34.0586 64.3003 34.3586 63.9003 34.5586 63.4003ZM33.1586 65.9003C33.5586 66.6003 34.3586 67.1003 35.1586 67.1003C36.4586 67.1003 37.5586 66.0003 37.5586 64.7003C37.5586 63.4003 36.5586 62.4003 35.2586 62.3003L35.3586 62.2003C35.7586 62.1003 36.1586 62.2003 36.5586 62.5003C37.7586 63.3003 38.1586 64.9003 37.3586 66.2003C36.9586 66.8003 36.3586 67.2003 35.7586 67.4003C35.0586 67.6003 34.3586 67.4003 33.7586 67.1003C33.3586 66.9003 33.1586 66.5003 33.0586 66.2003C33.0586 65.9003 33.1586 65.9003 33.1586 65.9003ZM30.4586 71.1003L30.6586 71.2003L30.3586 71.4003C30.3586 71.3003 30.4586 71.2003 30.4586 71.1003ZM31.5586 71.8003L32.4586 73.2003L30.6586 74.3003L29.8586 72.7003L31.5586 71.8003ZM32.9586 74.1003L33.0586 74.2003C32.7586 75.0003 32.3586 75.9003 31.9586 76.9003L31.0586 75.2003L32.9586 74.1003ZM32.7586 72.0003L33.8586 72.4003L33.2586 72.8003L32.7586 72.0003ZM29.2586 73.8003L29.8586 74.9003L28.5586 75.7003C28.7586 75.1003 28.9586 74.4003 29.2586 73.8003ZM30.2586 75.8003L31.3586 77.9003L29.0586 79.5002L27.9586 77.2003L30.2586 75.8003ZM31.1586 79.3003C30.8586 80.2003 30.5586 81.0003 30.2586 81.8003L29.5586 80.4003L31.1586 79.3003ZM27.4586 78.4003L28.2586 80.1003L26.5586 81.3003C26.8586 80.3003 27.1586 79.3003 27.4586 78.4003ZM28.6586 81.0002L29.6586 83.2003L27.3586 84.7003L26.2586 82.7003L28.6586 81.0002ZM29.7586 84.1003L29.3586 85.4003L28.0586 85.1003L28.3586 85.0002L29.7586 84.1003ZM25.7586 83.7003L26.3586 84.7003L25.5586 84.5002C25.6586 84.2002 25.7586 83.9003 25.7586 83.7003ZM23.2586 95.9003C23.6586 96.4003 23.8586 97.1003 23.7586 97.9003C23.6586 98.5003 23.3586 99.0003 22.8586 99.4003C23.0586 98.2003 23.1586 97.0003 23.2586 95.9003ZM22.7586 100.5C22.7586 100.5 24.6586 99.7002 24.8586 97.5002C25.0586 95.3002 23.4586 94.4003 23.3586 94.4003L23.5586 93.4003C23.6586 93.4003 25.9586 94.9002 25.6586 97.5002C25.3586 100.1 22.7586 101.3 22.6586 101.4L22.7586 100.5ZM22.6586 102.6C24.8586 102.1 26.5586 100.3 26.7586 98.0002C27.0586 95.7002 25.7586 93.5003 23.7586 92.6003C23.9586 91.1003 24.2586 89.7003 24.5586 88.3003L28.3586 89.2003C28.2586 89.5003 28.1586 90.0002 28.0586 90.5002C27.9586 90.3002 27.9586 90.1002 27.7586 90.0002C27.4586 89.6002 27.0586 89.3003 26.5586 89.2003C26.0586 89.1003 25.5586 89.2002 25.1586 89.5002C24.7586 89.8002 24.4586 90.2003 24.3586 90.7003C24.1586 91.7003 24.8586 92.7003 25.8586 92.9003C26.3586 93.0003 26.8586 92.9003 27.2586 92.6003C27.3586 92.5003 27.5586 92.4003 27.6586 92.3003C27.0586 95.4003 26.2586 100.2 26.0586 105C25.8586 104.4 25.2586 104 24.6586 103.9C24.1586 103.8 23.6586 103.9 23.2586 104.2C22.8586 104.5 22.5586 104.9 22.4586 105.4C22.2586 106.4 22.9586 107.4 23.9586 107.6H22.3586C22.5586 105.8 22.5586 104.2 22.6586 102.6ZM26.8586 91.0002C26.8586 91.1002 26.7586 91.2003 26.6586 91.3003C26.5586 91.4003 26.4586 91.4003 26.2586 91.4003C25.9586 91.4003 25.8586 91.1003 25.8586 90.8003C25.8586 90.7003 25.9586 90.6002 26.0586 90.5002C26.1586 90.4002 26.2586 90.4003 26.3586 90.4003H26.4586C26.5586 90.4003 26.6586 90.5003 26.7586 90.6003C26.7586 90.8003 26.8586 90.9002 26.8586 91.0002ZM25.5586 107.2C25.8586 107 26.0586 106.8 26.1586 106.5C26.1586 106.8 26.1586 107.2 26.1586 107.5H24.8586C25.0586 107.4 25.3586 107.3 25.5586 107.2ZM24.7586 106C24.6586 106.1 24.5586 106.1 24.4586 106.1C24.1586 106.1 24.0586 105.8 24.0586 105.5C24.0586 105.4 24.1586 105.3 24.2586 105.2C24.3586 105.1 24.4586 105.1 24.5586 105.1C24.8586 105.1 24.9586 105.4 24.9586 105.7C24.9586 105.8 24.8586 106 24.7586 106ZM22.5586 114.1L23.6586 115.1L22.6586 116.8C22.5586 115.7 22.5586 114.8 22.5586 114.1ZM22.5586 111.4H22.9586L22.5586 112C22.5586 111.8 22.5586 111.7 22.5586 111.6C22.5586 111.6 22.5586 111.5 22.5586 111.4ZM25.1586 124.9L23.5586 123.6L24.8586 121.2L26.4586 122.7L25.1586 124.9ZM26.7586 123.7L26.9586 125.1L26.0586 125.3L26.7586 123.7ZM24.7586 119.5L23.0586 117.9L24.4586 115.7L26.0586 117.2L24.7586 119.5ZM25.4586 120.2L26.2586 118.7C26.2586 119.5 26.3586 120.4 26.3586 121.1L25.4586 120.2ZM24.9586 114.9L26.0586 113.1C26.0586 113.9 26.1586 114.9 26.1586 116L24.9586 114.9ZM25.8586 111.8L24.9586 111.2L25.9586 111.1L25.8586 111.8ZM25.2586 112.5L24.1586 114.2L22.9586 113.1L24.0586 111.5L25.2586 112.5ZM22.7586 119L24.2586 120.4L23.0586 122.6C22.8586 121.3 22.7586 120.1 22.7586 119ZM23.2586 124.5L24.3586 125.4L23.4586 125.5C23.3586 125.2 23.2586 124.9 23.2586 124.5ZM25.8586 132.4C26.0586 132.2 26.3586 132.1 26.6586 132.1C26.9586 132.1 27.2586 132.3 27.4586 132.6C27.8586 133.2 27.7586 134.1 27.2586 134.6C27.0586 134.8 26.7586 134.9 26.4586 134.9C26.1586 134.9 25.8586 134.7 25.6586 134.4C25.1586 133.8 25.2586 132.9 25.8586 132.4ZM25.4586 135.7C25.6586 135.8 25.9586 135.9 26.2586 136C26.8586 136.1 27.4586 135.9 27.8586 135.5C28.7586 134.7 28.9586 133.2 28.2586 132.2C27.8586 131.7 27.3586 131.3 26.7586 131.2C26.1586 131.1 25.6586 131.3 25.1586 131.7C25.3586 131.3 25.7586 131 26.2586 131C26.8586 131 27.4586 131.1 27.9586 131.5C28.4586 132 28.8586 132.7 28.9586 133.4C29.1586 135.2 28.0586 136.3 26.8586 136.4C26.4586 136.4 26.0586 136.3 25.7586 136.1C25.6586 135.9 25.5586 135.8 25.4586 135.7ZM25.6586 137.1C25.9586 137.2 26.1586 137.3 26.4586 137.3C26.5586 137.3 26.6586 137.3 26.7586 137.3C28.5586 137.1 29.9586 135.4 29.7586 133.4C29.6586 132.4 29.2586 131.4 28.4586 130.8C27.8586 130.3 27.0586 130 26.1586 130.1C25.2586 130.2 24.6586 130.6 24.2586 131.4C23.9586 129.8 23.6586 128.2 23.4586 126.7L27.3586 126.1C27.4586 126.1 27.5586 126 27.6586 125.9C27.6586 125.9 27.6586 125.9 27.6586 125.8C27.4586 124.3 26.6586 118.9 26.6586 110.4C26.5586 110.3 26.4586 110.3 26.3586 110.3L22.4586 110.5C22.4586 110 22.4586 109.5 22.4586 109L26.7586 108.9L26.8586 108.7C26.8586 108.7 27.2586 101.3 27.7586 98.0002C28.2586 94.9002 29.3586 88.8002 29.6586 88.0002C29.5586 88.0002 29.5586 87.9003 29.4586 87.9003L24.9586 86.9003C25.0586 86.4003 25.1586 85.9002 25.3586 85.5002L29.3586 86.6003H29.4586C29.5586 86.6003 29.6586 86.6002 29.7586 86.5002C29.8586 86.4002 29.9586 86.3003 29.9586 86.2003C30.0586 85.6003 30.1586 85.1003 30.5586 84.2003L34.9586 72.4003C34.9586 72.3003 34.9586 72.1003 34.9586 72.0003C34.8586 71.9003 34.7586 71.8003 34.6586 71.7003L30.9586 70.2003C31.4586 69.1003 32.0586 68.0003 32.5586 67.0003C32.7586 67.3003 32.9586 67.5003 33.3586 67.7003C33.9586 68.1003 34.6586 68.3003 35.4586 68.3003C35.0586 68.5003 34.7586 69.0003 34.7586 69.5003C34.7586 70.2003 35.3586 70.8003 36.0586 70.8003C36.2586 70.8003 36.3586 70.8003 36.5586 70.7003C34.3586 74.8003 31.8586 80.7003 30.0586 88.7003C30.0586 88.6003 30.0586 88.6002 30.0586 88.5002C29.6586 90.5002 28.5586 97.1003 28.2586 99.7003C27.9586 102.7 27.5586 107.8 27.4586 109.3C27.4586 109.6 27.3586 109.7 27.3586 109.9C27.2586 115.8 27.6586 125.5 30.8586 135.9C31.1586 137.8 31.1586 140.9 30.0586 141.9C29.5586 142.4 29.0586 142.7 28.5586 143C28.2586 143.2 28.0586 143.4 27.7586 143.6C26.8586 141.3 26.2586 139.1 25.6586 137.1ZM29.1586 147.9C29.0586 147.8 28.9586 147.8 28.7586 147.8C28.4586 147.7 27.8586 147.6 27.5586 146.4C27.4586 146.1 27.7586 145.5 27.8586 145.3C27.9586 145.2 27.9586 145.1 27.9586 145C28.1586 144.7 28.5586 144.4 29.1586 144C29.6586 143.7 30.1586 143.3 30.7586 142.7C31.7586 141.8 32.0586 140.3 32.1586 138.8C32.7586 141 32.4586 143 31.9586 144.3C31.1586 146.4 29.9586 147.6 29.5586 147.7C29.4586 147.9 29.2586 147.9 29.1586 147.9ZM44.4586 183.1C41.5586 184.8 39.3586 185.1 38.2586 184.1C37.2586 183.2 37.3586 181.4 37.6586 180.8C38.1586 179.8 38.7586 179.3 39.4586 179.1C40.5586 178.9 41.7586 179.8 41.7586 179.8C41.9586 180 42.1586 180 42.3586 180C42.5586 180 42.7586 179.9 42.9586 179.7C47.7586 174 38.4586 163.3 38.1586 162.9C34.9586 158.8 32.1586 154.2 29.9586 149.1C29.9586 149.1 29.9586 149.1 30.0586 149.1C30.3586 149 30.6586 148.8 30.9586 148.5C31.5586 150.5 33.6586 155 40.4586 164.3C47.3586 173.8 46.8586 176 46.1586 178.9C46.0586 179.5 45.8586 180.2 45.7586 180.9L44.7586 182.9C44.7586 183 44.5586 183 44.4586 183.1ZM45.0586 185.4L53.1586 169.7V169.6L56.6586 161.5C56.7586 161.6 57.3586 162.2 57.3586 162.3L46.2586 185.3C46.2586 185.3 45.1586 185.4 45.0586 185.4ZM47.6586 185.1L49.5586 181.5L55.5586 168.6L55.6586 168.5L58.2586 163C59.8586 164.6 61.6586 166.1 63.5586 167.5L63.8586 168.8C63.8586 169.1 63.7586 169.3 63.7586 169.6C63.7586 169.8 63.9586 170 64.1586 170.1C64.3586 170.1 64.5586 170.2 64.7586 170.2C57.5586 180.9 51.6586 184.3 47.6586 185.1ZM69.9586 169C69.9586 169 69.8586 169.1 69.7586 169.2L66.0586 168.5C66.1586 167.5 67.0586 166.7 68.0586 166.7C68.1586 166.7 68.2586 166.7 68.2586 166.7C69.2586 166.9 70.0586 167.9 69.9586 169ZM68.3586 165.8C67.0586 165.7 65.9586 166.4 65.3586 167.5L65.2586 167.1L66.0586 165C67.5586 162.6 70.2586 160.9 73.2586 160.9C72.3586 161.4 71.6586 162.3 71.5586 163.4C71.4586 164.3 71.6586 165.2 72.2586 166C72.3586 166.1 72.4586 166.2 72.5586 166.3C71.7586 166.5 71.0586 167 70.5586 167.6C70.2586 166.6 69.3586 165.9 68.3586 165.8ZM77.4586 164.2C77.2586 165.5 76.1586 166.5 74.7586 166.4C74.1586 166.3 73.5586 166 73.1586 165.5C72.7586 165 72.5586 164.3 72.6586 163.7C72.8586 162.5 73.8586 161.5 75.0586 161.5C75.1586 161.5 75.2586 161.5 75.3586 161.5C76.7586 161.6 77.6586 162.8 77.4586 164.2ZM75.4586 158.1C75.5586 157.1 76.4586 156.3 77.4586 156.3C77.5586 156.3 77.6586 156.3 77.6586 156.3C78.7586 156.4 79.5586 157.5 79.3586 158.6C79.2586 159.1 79.0586 159.6 78.5586 160C78.1586 160.3 77.5586 160.5 77.0586 160.4C76.1586 160.2 75.3586 159.2 75.4586 158.1ZM76.3586 170.2C76.3586 170.3 76.3586 170.3 76.3586 170.4L70.9586 169.4C71.2586 168 72.3586 167.1 73.6586 167.1C73.7586 167.1 73.8586 167.1 73.9586 167.1C75.4586 167.3 76.4586 168.7 76.3586 170.2ZM79.7586 171L77.2586 170.6V170.5C77.4586 169.6 78.2586 169 79.1586 169C79.2586 169 79.3586 169 79.3586 169C80.3586 169.1 81.0586 170 81.0586 170.9C80.4586 171.2 79.8586 171 79.7586 171ZM82.0586 170.1C81.7586 169 80.7586 168.1 79.5586 168C78.6586 167.9 77.7586 168.2 77.1586 168.8C76.9586 168.2 76.5586 167.6 76.1586 167.1C77.3586 166.7 78.3586 165.6 78.5586 164.3C78.6586 163.6 78.4586 162.9 78.1586 162.4C80.5586 164 82.1586 166.7 82.1586 169.7C82.0586 169.8 82.0586 170 82.0586 170.1ZM82.4586 166.3C81.6586 164.2 80.1586 162.4 78.2586 161.2C78.6586 161.1 78.9586 160.9 79.2586 160.7C79.8586 160.2 80.2586 159.5 80.3586 158.7C80.5586 157.1 79.3586 155.5 77.7586 155.3C76.1586 155.1 74.6586 156.3 74.3586 157.9C74.2586 158.7 74.4586 159.4 74.8586 160C72.8586 159.7 70.7586 160 69.0586 160.8L69.9586 159.8C70.0586 159.8 70.1586 159.8 70.1586 159.7C70.9586 159.3 72.8586 159 73.5586 158.9C73.8586 158.9 73.9586 158.7 73.9586 158.4C73.9586 156.5 75.4586 155 77.2586 155C79.0586 155 80.5586 156.5 80.5586 158.3C80.5586 159.3 80.1586 160.3 79.4586 160.9C79.3586 161 79.2586 161.2 79.2586 161.3C79.2586 161.5 79.3586 161.6 79.5586 161.7C79.6586 161.7 81.2586 162.4 82.2586 164.9C82.2586 165 82.3586 165 82.3586 165.1L82.4586 166.3ZM82.5586 163.3C81.8586 162.3 81.1586 161.7 80.6586 161.4C81.2586 160.6 81.6586 159.6 81.6586 158.5C81.6586 156.1 79.7586 154.2 77.3586 154.2C75.1586 154.2 73.3586 156 73.1586 158.2C72.7586 158.2 71.9586 158.4 71.2586 158.5L82.6586 145.1C82.7586 145.2 82.8586 145.2 83.0586 145.2L82.5586 163.3ZM84.3586 165.1L83.3586 167.6L83.9586 145.5C84.0586 145.5 84.0586 145.5 84.1586 145.5C84.3586 145.5 84.5586 145.4 84.8586 145.4L84.3586 165.1ZM85.4586 162.3L85.9586 144.9C86.0586 144.8 86.2586 144.8 86.3586 144.7C86.5586 146.1 87.7586 147.3 89.2586 147.5C89.3586 147.5 89.5586 147.5 89.6586 147.5C90.2586 147.5 90.8586 147.3 91.3586 147L85.4586 162.3ZM92.0586 144.5C91.8586 145.8 90.6586 146.8 89.3586 146.6C88.0586 146.4 87.1586 145.2 87.2586 143.9C87.3586 142.7 88.4586 141.8 89.6586 141.8C89.7586 141.8 89.8586 141.8 89.9586 141.8C91.2586 141.9 92.1586 143.2 92.0586 144.5ZM92.8586 143.2C92.4586 142 91.4586 141 90.0586 140.8C89.1586 140.7 88.2586 141 87.5586 141.5C87.4586 141.2 87.3586 140.8 87.2586 140.5L98.2586 129L92.8586 143.2ZM99.2586 126.7L86.7586 139.7C86.5586 139.5 86.4586 139.4 86.2586 139.3L100.159 124.6L99.2586 126.7ZM94.1586 125.5C93.8586 125.5 93.5586 125.5 93.2586 125.4C93.8586 125.1 94.3586 124.5 94.5586 123.8C94.8586 122.9 94.7586 122 94.3586 121.2C95.1586 121.2 95.8586 120.9 96.4586 120.4C96.6586 121.4 97.3586 122.2 98.3586 122.6C98.6586 122.7 99.0586 122.8 99.4586 122.8C99.6586 122.8 99.8586 122.8 100.059 122.7C98.5586 124.5 96.4586 125.5 94.1586 125.5ZM101.359 120.6C100.959 121.6 99.7586 122.2 98.7586 121.8C97.7586 121.4 97.1586 120.2 97.5586 119.2C97.5586 119.1 97.6586 119 97.6586 118.9C98.1586 118 99.1586 117.6 100.159 118C101.159 118.4 101.759 119.6 101.359 120.6ZM102.059 118.4C101.759 117.8 101.159 117.3 100.459 117.1C100.159 117 99.7586 116.9 99.3586 116.9C98.8586 116.9 98.3586 117 97.8586 117.3C97.8586 116.5 97.5586 115.8 97.0586 115.2C98.0586 115 98.8586 114.3 99.2586 113.3C99.4586 112.7 99.4586 112.2 99.3586 111.6C101.359 113.2 102.359 115.8 102.059 118.4ZM102.359 113.8C101.659 112.3 100.659 111 99.2586 110C99.5586 109.9 99.7586 109.8 99.9586 109.6C100.559 109.2 100.959 108.5 101.059 107.7C101.259 106.2 100.159 104.8 98.6586 104.6C97.9586 104.5 97.2586 104.7 96.6586 105.2C96.0586 105.7 95.6586 106.3 95.6586 107C95.5586 107.6 95.7586 108.1 95.9586 108.5C95.4586 108.4 94.8586 108.3 94.3586 108.3C93.6586 108.3 92.9586 108.4 92.2586 108.6L92.5586 108.3C93.8586 108.2 95.0586 108 95.1586 108C95.3586 108 95.5586 107.8 95.5586 107.5C95.5586 105.8 96.8586 104.4 98.4586 104.4C100.059 104.4 101.359 105.7 101.359 107.3C101.359 108.2 101.059 108.8 100.459 109.4C100.359 109.5 100.259 109.6 100.259 109.8C100.259 109.9 100.359 110.1 100.459 110.2C100.459 110.2 101.759 111.2 102.559 113.2L102.359 113.8ZM102.359 111.4C101.959 110.8 101.559 110.3 101.259 110C101.859 109.3 102.059 108.5 102.059 107.6C102.059 105.4 100.359 103.7 98.1586 103.7C96.1586 103.7 94.5586 105.3 94.3586 107.3C94.0586 107.3 93.6586 107.4 93.1586 107.5L101.059 97.6003C101.459 97.9003 102.059 98.2003 102.659 98.3003C102.759 98.3003 102.759 98.3003 102.859 98.3003L102.359 111.4ZM103.859 114.6L103.159 116.3L103.759 98.1003C103.959 98.0003 104.259 98.0003 104.459 97.8003L103.859 114.6ZM104.359 96.7003C103.859 97.1003 103.359 97.2003 102.759 97.1003C101.559 97.0003 100.759 95.9003 100.859 94.7003C100.959 94.1003 101.259 93.6003 101.659 93.2003C102.059 92.9003 102.459 92.7003 102.959 92.7003C103.059 92.7003 103.159 92.7003 103.259 92.7003C103.559 92.7003 103.759 92.8003 103.959 92.9003L104.059 93.0002C104.359 93.2002 104.659 93.5003 104.859 93.9003C104.859 94.0003 104.859 94.2003 105.059 94.3003C105.159 94.6003 105.159 94.9003 105.159 95.2003C105.059 95.9003 104.759 96.4003 104.359 96.7003ZM104.959 111.8L105.359 98.8003C105.859 99.5003 106.659 100 107.559 100.1C108.359 100.2 109.059 100 109.659 99.6003L104.959 111.8ZM110.059 97.2003C109.959 97.8003 109.659 98.3003 109.259 98.7003C108.759 99.1003 108.259 99.2003 107.659 99.1003C106.459 98.9003 105.659 97.8003 105.759 96.7003C105.859 96.1003 106.159 95.6003 106.559 95.2003C106.959 94.9003 107.359 94.7003 107.859 94.7003C107.959 94.7003 108.059 94.7003 108.159 94.7003C109.359 95.0003 110.259 96.1003 110.059 97.2003ZM110.959 96.2003C110.659 95.0003 109.659 94.0003 108.359 93.8003C107.559 93.7003 106.759 93.9003 106.159 94.4003C106.159 94.3003 106.159 94.2003 106.059 94.1003L116.859 81.2003L110.959 96.2003ZM117.859 78.4003L105.459 93.1003C105.359 92.9003 105.159 92.7003 104.959 92.6003L116.559 78.7003C117.159 78.3003 117.759 77.8003 118.259 77.3003L117.859 78.4003ZM118.859 74.4003C118.559 75.3003 117.359 75.9003 116.459 75.5003C115.559 75.1003 115.059 74.1003 115.359 73.1003C115.359 73.0003 115.459 72.9003 115.459 72.8003C115.859 72.0003 116.859 71.6003 117.759 72.0003C118.759 72.4003 119.259 73.5003 118.859 74.4003ZM119.559 72.3003C119.259 71.8003 118.759 71.3003 118.159 71.1003C117.859 71.0003 117.459 70.9003 117.159 70.9003C116.659 70.9003 116.159 71.0003 115.759 71.3003C115.659 70.6003 115.459 69.9003 115.059 69.3003C115.959 69.1003 116.759 68.4003 117.159 67.5003C117.359 67.0003 117.359 66.5003 117.259 66.0003C118.959 67.6003 119.859 69.9003 119.559 72.3003ZM120.559 71.0003C120.359 67.8003 118.359 64.8003 115.159 63.6003C114.159 63.2003 113.159 63.1003 112.159 63.1003C110.059 63.1003 108.159 63.9003 106.659 65.2003L105.859 65.7003C107.059 62.9003 106.259 62.4003 105.659 62.0003C104.859 61.5003 104.159 62.1003 103.659 62.4003C103.159 62.7003 100.259 67.9003 100.259 67.9003L100.459 64.8003L102.059 62.0003C102.159 61.9003 102.159 61.7003 102.159 61.5003C103.959 59.6003 107.559 59.2003 112.859 60.1003C118.059 60.9003 121.459 65.8003 120.559 71.0003Z" fill="#1E1E1E"/>
</svg>
