<svg width="146" height="151" viewBox="0 0 146 151" fill="none" xmlns="http://www.w3.org/2000/svg">
<path d="M73.8813 12.5771C108.536 12.5773 136.629 40.6704 136.629 75.3252C136.629 109.979 108.536 138.072 73.8813 138.072H15.6616C13.1593 138.072 11.1343 136.048 11.1343 133.546V17.1045C11.1343 14.6032 13.1593 12.5772 15.6616 12.5771H73.8813ZM22.6313 89.7764C22.1227 89.7765 21.7097 90.1877 21.7095 90.6973V106.052C21.7096 106.561 22.1226 106.974 22.6313 106.974H24.645C25.1538 106.974 25.5667 106.561 25.5669 106.052V90.6973C25.5666 90.1876 25.1538 89.7764 24.645 89.7764H22.6313ZM29.2769 89.7764C28.7681 89.7765 28.355 90.1885 28.355 90.6982V106.052C28.355 106.561 28.7681 106.973 29.2769 106.974H31.2905C31.7994 106.974 32.2124 106.561 32.2124 106.052V99.9395H34.2007C34.7106 99.9395 35.0015 100.279 35.0015 100.909V106.052C35.0015 106.561 35.39 106.974 35.8989 106.974H38.0093C38.4951 106.974 38.9067 106.561 38.9067 106.052V101.516C38.9067 99.7451 38.1787 98.4114 36.2622 98.3145C38.0578 98.1445 38.6401 96.9078 38.6401 95.1123V92.9287C38.6401 91.1592 37.2336 89.7765 35.2202 89.7764H29.2769ZM42.4077 89.7764C41.9229 89.7764 41.5348 90.1637 41.5347 90.6484V106.101C41.5348 106.585 41.9229 106.974 42.4077 106.974H50.1206C50.6055 106.974 50.9945 106.585 50.9946 106.101V104.378C50.9946 103.893 50.6055 103.505 50.1206 103.505H45.3911V99.6719H49.4663C49.952 99.6716 50.3394 99.2836 50.3394 98.7998V97.2227C50.3394 96.7379 49.952 96.3489 49.4663 96.3486H45.3911V93.2441H49.9995C50.4604 93.2441 50.8481 92.8569 50.8481 92.3701V90.6484C50.848 90.1637 50.4603 89.7764 49.9995 89.7764H42.4077ZM54.5122 89.7764C54.0025 89.7764 53.5906 90.1876 53.5903 90.6973V106.052C53.5905 106.561 54.0024 106.974 54.5122 106.974H61.4976C61.9823 106.973 62.3705 106.585 62.3706 106.101V104.378C62.3706 103.893 61.9823 103.505 61.4976 103.505H57.4458V90.6973C57.4456 90.1876 57.0341 89.7764 56.5493 89.7764H54.5122ZM68.1606 89.7764C67.6757 89.7764 67.3592 90.1884 67.2622 90.6982L63.9888 106.052C63.9638 106.125 63.9644 106.149 63.9644 106.198C63.9647 106.634 64.449 106.973 64.9097 106.974H66.9478C67.4326 106.974 67.7473 106.561 67.8452 106.052L68.3306 103.603H71.9927L72.5024 106.052C72.6234 106.561 72.9154 106.974 73.4243 106.974H75.438C75.8987 106.974 76.383 106.634 76.3833 106.198C76.3833 106.149 76.3839 106.125 76.3599 106.052L73.0845 90.6982C72.9875 90.1884 72.6719 89.7764 72.187 89.7764H68.1606ZM79.3677 89.7764C78.8829 89.7764 78.4695 90.1876 78.4692 90.6973V106.052C78.4694 106.561 78.8829 106.974 79.3677 106.974H81.4048C81.9136 106.974 82.3265 106.561 82.3267 106.052V97.6846L85.9165 106.052C86.1344 106.536 86.3543 106.974 86.9351 106.974H89.2886C89.7973 106.973 90.2103 106.561 90.2104 106.052V90.6973C90.2102 90.1877 89.7972 89.7765 89.2886 89.7764H87.2749C86.7661 89.7764 86.3542 90.1876 86.354 90.6973V99.2363L82.7144 90.6973C82.5214 90.2365 82.3264 89.7764 81.6958 89.7764H79.3677ZM93.7075 89.7764C93.1988 89.7764 92.7859 90.1876 92.7856 90.6973V106.052C92.7858 106.561 93.1987 106.974 93.7075 106.974H99.8677C101.638 106.974 103.361 105.397 103.361 103.626V92.9297C103.361 91.16 101.638 89.7764 99.8677 89.7764H93.7075ZM98.3403 92.9297C98.9711 92.9298 99.4556 93.3903 99.4556 93.9961V102.752C99.4556 103.359 98.9711 103.819 98.3403 103.819H96.6411V92.9297H98.3403ZM71.3862 100.424H68.936L70.1743 94.2637L71.3862 100.424ZM34.0308 92.9287C34.5645 92.9287 35.0012 93.3653 35.0015 93.875V95.792C35.0015 96.3249 34.5646 96.7617 34.0308 96.7617H32.2124V92.9287H34.0308ZM49.4438 66.2656C45.9997 66.2656 44.2291 68.0608 44.229 71.3838C44.229 72.9604 44.6652 74.3669 46.0718 75.2656L49.4927 77.4727C50.3415 78.0296 50.8755 78.3937 50.8755 79.1465V79.9473C50.8755 80.7471 50.4132 81.3291 49.4194 81.3291C48.6437 81.3291 48.0134 80.6254 48.0132 79.8008V78.7803C48.013 78.2725 47.6245 77.8594 47.1147 77.8594H45.1021C44.5925 77.8596 44.1804 78.2726 44.1802 78.7803V79.752C44.1802 83.22 46.5569 84.5067 49.395 84.5068C52.9363 84.5068 54.7808 82.9537 54.7808 79.3154C54.7807 76.9872 54.2945 76.3083 52.4272 75.0947L49.3716 73.1055C48.4739 72.5227 48.062 72.2327 48.062 71.5049V70.8994C48.062 69.9767 48.644 69.4678 49.4438 69.4678C50.1475 69.4679 50.8266 69.9766 50.8267 70.9951V71.6025C50.8269 72.0873 51.2393 72.499 51.7241 72.499H53.7612C54.27 72.499 54.6819 72.0873 54.6821 71.6025V70.9951C54.682 67.866 52.427 66.2657 49.4438 66.2656ZM116.521 66.2656C113.076 66.2657 111.305 68.0609 111.305 71.3838C111.305 72.9605 111.742 74.3669 113.149 75.2656L116.57 77.4727C117.419 78.0295 117.952 78.3938 117.952 79.1465V79.9473C117.952 80.7471 117.491 81.329 116.498 81.3291C115.721 81.3291 115.091 80.6254 115.09 79.8008V78.7803C115.09 78.2725 114.702 77.8594 114.193 77.8594H112.179C111.669 77.8594 111.258 78.2725 111.257 78.7803V79.752C111.257 83.2201 113.635 84.5068 116.472 84.5068C120.013 84.5068 121.857 82.9537 121.857 79.3154C121.857 76.987 121.372 76.3084 119.504 75.0947L116.449 73.1055C115.551 72.5226 115.138 72.2327 115.138 71.5049V70.8994C115.138 69.9768 115.72 69.4679 116.521 69.4678C117.224 69.4678 117.903 69.9765 117.903 70.9951V71.6025C117.903 72.0873 118.317 72.499 118.802 72.499H120.838C121.347 72.499 121.76 72.0873 121.76 71.6025V70.9951C121.76 67.8659 119.504 66.2656 116.521 66.2656ZM67.8052 66.2646C64.967 66.2648 62.5415 67.8909 62.5415 70.9951V79.8252C62.5415 82.3955 63.7793 84.5057 66.3745 84.5059C67.805 84.5059 68.6789 83.9483 69.2368 83.0996C69.2609 83.6083 69.649 83.9969 70.1577 83.9971H72.1714C72.6803 83.9971 73.0933 83.5841 73.0933 83.0752V76.0537C73.0933 75.5438 72.6803 75.1309 72.1714 75.1309H68.894C68.4333 75.1311 68.0444 75.5201 68.0444 76.0049V77.6055C68.0446 78.0901 68.4334 78.4773 68.894 78.4775H69.2368V79.8252C69.2368 80.65 68.606 81.3525 67.8052 81.3525C67.0046 81.3523 66.3746 80.6498 66.3745 79.8252V70.9951C66.3745 70.1704 67.0045 69.468 67.8052 69.4678C68.606 69.4678 69.2368 70.1703 69.2368 70.9951V71.6016C69.2368 72.0864 69.649 72.4988 70.1577 72.499H72.1714C72.6803 72.499 73.0933 72.0865 73.0933 71.6016V70.9951C73.0933 67.8658 70.6436 66.2646 67.8052 66.2646ZM22.6313 66.7988C22.1218 66.7991 21.7107 67.2112 21.7104 67.7207V83.0752C21.7106 83.5848 22.1218 83.9978 22.6313 83.998H28.7935C30.5631 83.998 32.2856 82.42 32.2856 80.6494V69.9521C32.2853 68.1818 30.563 66.7988 28.7935 66.7988H22.6313ZM35.2212 66.7998C34.7363 66.7998 34.3481 67.187 34.3481 67.6729V83.123C34.3481 83.608 34.7363 83.9971 35.2212 83.9971H42.0454C42.5303 83.997 42.9194 83.6079 42.9194 83.123V81.4014C42.9192 80.9167 42.5301 80.5284 42.0454 80.5283H38.2046V76.6953H41.3901C41.875 76.6953 42.264 76.308 42.2642 75.8223V74.2451C42.264 73.7613 41.875 73.3711 41.3901 73.3711H38.2046V70.2676H41.9243C42.3851 70.2676 42.7729 69.8803 42.7729 69.3945V67.6729C42.7729 67.187 42.3852 66.7998 41.9243 66.7998H35.2212ZM57.5454 66.7998C57.0365 66.7998 56.6235 67.2108 56.6235 67.7207V83.0752C56.6235 83.5841 57.0365 83.9971 57.5454 83.9971H59.5581C60.067 83.9971 60.48 83.5841 60.48 83.0752V67.7207C60.48 67.2108 60.067 66.7998 59.5581 66.7998H57.5454ZM75.9321 66.7998C75.4453 66.7998 75.0337 67.2108 75.0337 67.7207V83.0752C75.0337 83.5841 75.4453 83.9971 75.9321 83.9971H77.9692C78.4781 83.9971 78.8911 83.5841 78.8911 83.0752V74.707L82.481 83.0752C82.6989 83.5601 82.9186 83.9971 83.4995 83.9971H85.853C86.3618 83.9969 86.7749 83.584 86.7749 83.0752V67.7207C86.7749 67.2109 86.3618 66.8 85.853 66.7998H83.8394C83.3295 66.7998 82.9185 67.2108 82.9185 67.7207V76.2588L79.2778 67.7207C79.0839 67.2599 78.891 66.7998 78.2603 66.7998H75.9321ZM89.8062 66.7998C89.3205 66.8001 88.9331 67.1871 88.9331 67.6729V83.123C88.9331 83.6078 89.3205 83.9968 89.8062 83.9971H96.6304C97.1143 83.9971 97.5034 83.608 97.5034 83.123V81.4014C97.5032 80.9166 97.1142 80.5283 96.6304 80.5283H92.7896V76.6953H95.9761C96.4599 76.6953 96.849 76.308 96.8491 75.8223V74.2451C96.849 73.7613 96.4599 73.3712 95.9761 73.3711H92.7896V70.2676H96.5093C96.9699 70.2674 97.3578 69.8802 97.3579 69.3945V67.6729C97.3579 67.1871 96.97 66.8 96.5093 66.7998H89.8062ZM100.148 66.7998C99.6381 66.7998 99.2271 67.2118 99.2271 67.7207V83.0752C99.2271 83.5841 99.6381 83.9971 100.148 83.9971H102.162C102.67 83.9969 103.083 83.584 103.083 83.0752V76.9629H105.072C105.581 76.963 105.872 77.3018 105.872 77.9326V83.0752C105.872 83.584 106.26 83.9969 106.769 83.9971H108.878C109.365 83.9971 109.778 83.5841 109.778 83.0752V78.5391C109.778 76.7685 109.05 75.4349 107.134 75.3379C108.928 75.1679 109.51 73.9302 109.51 72.1357V69.9521C109.51 68.1825 108.103 66.7998 106.09 66.7998H100.148ZM27.2651 69.9521C27.8958 69.9523 28.3804 70.4138 28.3804 71.0195V79.7764C28.3804 80.3821 27.8958 80.8436 27.2651 80.8438H25.5669V69.9521H27.2651ZM104.902 69.9521C105.436 69.9522 105.871 70.3888 105.872 70.8984V72.8145C105.872 73.3473 105.436 73.7851 104.902 73.7852H103.083V69.9521H104.902ZM80.4028 43.8232C79.8941 43.8234 79.481 44.2354 79.481 44.7451V56.8486C79.481 59.9528 81.9318 61.6025 84.769 61.6025C87.6314 61.6025 90.0561 59.9529 90.0562 56.8486V44.7451C90.0562 44.2354 89.6694 43.8234 89.1597 43.8232H87.1216C86.6368 43.8234 86.2241 44.2353 86.2241 44.7451V56.8486C86.224 57.6734 85.5688 58.377 84.769 58.377C83.9684 58.3768 83.3385 57.6733 83.3384 56.8486V44.7451C83.3384 44.2353 82.9258 43.8233 82.4409 43.8232H80.4028ZM46.3296 43.2891C42.8857 43.2892 41.1149 45.0843 41.1147 48.4072C41.1147 49.9839 41.5518 51.3913 42.9585 52.2891L46.3794 54.4951C47.2281 55.0529 47.7612 55.4172 47.7612 56.1689V56.9697C47.7612 57.7705 47.2999 58.3525 46.3062 58.3525C45.5304 58.3525 44.8991 57.6489 44.8989 56.8242V55.8047C44.8988 55.2959 44.5112 54.8828 44.0015 54.8828H41.9888C41.4791 54.8829 41.0671 55.296 41.0669 55.8047V56.7754C41.0669 60.2436 43.4435 61.5292 46.2817 61.5293C49.823 61.5293 51.6665 59.9771 51.6665 56.3389C51.6665 54.0104 51.1806 53.3319 49.313 52.1182L46.2583 50.1289C45.3605 49.5461 44.9487 49.2571 44.9487 48.5283V47.9229C44.9487 47.0003 45.53 46.4914 46.3296 46.4912C47.0334 46.4912 47.7123 46.9999 47.7124 48.0186V48.626C47.7127 49.1107 48.1261 49.5225 48.6108 49.5225H50.6479C51.1577 49.5225 51.5686 49.1107 51.5688 48.626V48.0186C51.5688 44.8893 49.3129 43.2891 46.3296 43.2891ZM22.6313 43.8232C22.1227 43.8234 21.7097 44.2345 21.7095 44.7441V60.0986C21.7097 60.6083 22.1227 61.0204 22.6313 61.0205H24.645C25.1538 61.0205 25.5667 60.6083 25.5669 60.0986V44.7441C25.5667 44.2345 25.1538 43.8232 24.645 43.8232H22.6313ZM28.5259 43.8232C28.0412 43.8233 27.6286 44.2345 27.6284 44.7441V60.0986C27.6286 60.6083 28.0411 61.0204 28.5259 61.0205H30.564C31.0736 61.0203 31.4857 60.6082 31.4858 60.0986V51.7305L35.0757 60.0986C35.2936 60.5834 35.5116 61.0204 36.0942 61.0205H38.4468C38.9556 61.0205 39.3685 60.6083 39.3687 60.0986V44.7441C39.3684 44.2345 38.9555 43.8232 38.4468 43.8232H36.4331C35.9235 43.8234 35.5115 44.2345 35.5112 44.7441V53.2832L31.8735 44.7441C31.6787 44.2834 31.4854 43.8235 30.855 43.8232H28.5259ZM53.313 43.8232C52.8283 43.8233 52.4402 44.2106 52.4399 44.6953V46.2969C52.4402 46.7585 52.8283 47.1465 53.313 47.1465H55.1372V60.0986C55.1373 60.6075 55.5508 61.0205 56.0356 61.0205H58.0728C58.5816 61.0205 58.9945 60.6075 58.9946 60.0986V47.1465H60.814C61.2987 47.1465 61.6868 46.7585 61.687 46.2969V44.6953C61.6868 44.2106 61.2987 43.8232 60.814 43.8232H53.313ZM64.1851 43.8232C63.6764 43.8234 63.2644 44.2345 63.2642 44.7441V60.0986C63.2643 60.6083 63.6764 61.0204 64.1851 61.0205H66.1987C66.7075 61.0205 67.1204 60.6083 67.1206 60.0986V44.7441C67.1204 44.2345 66.7075 43.8232 66.1987 43.8232H64.1851ZM69.3433 43.8232C68.8585 43.8232 68.4705 44.2106 68.4702 44.6953V46.2969C68.4705 46.7585 68.8585 47.1465 69.3433 47.1465H71.1675V60.0986C71.1676 60.6074 71.5792 61.0204 72.064 61.0205H74.103C74.6127 61.0203 75.0238 60.6073 75.0239 60.0986V47.1465H76.8442C77.3289 47.1464 77.717 46.7585 77.7173 46.2969V44.6953C77.717 44.2107 77.3289 43.8234 76.8442 43.8232H69.3433ZM92.5083 43.8232C92.0245 43.8232 91.6355 44.2106 91.6353 44.6953V46.2969C91.6355 46.7585 92.0245 47.1465 92.5083 47.1465H94.3335V60.0986C94.3336 60.6073 94.7453 61.0203 95.23 61.0205H97.2681C97.7778 61.0204 98.1899 60.6074 98.1899 60.0986V47.1465H100.009C100.494 47.1465 100.883 46.7585 100.883 46.2969V44.6953C100.883 44.2106 100.494 43.8232 100.009 43.8232H92.5083ZM103.19 43.8232C102.704 43.8233 102.316 44.2106 102.316 44.6953V60.1465C102.316 60.6323 102.704 61.0205 103.19 61.0205H110.014C110.499 61.0205 110.886 60.6323 110.886 60.1465V58.4248C110.886 57.9399 110.499 57.5508 110.014 57.5508H106.173V53.7197H109.359C109.844 53.7197 110.232 53.3306 110.232 52.8457V51.2695C110.232 50.7846 109.844 50.3955 109.359 50.3955H106.173V47.291H109.892C110.353 47.291 110.742 46.9038 110.742 46.417V44.6953C110.742 44.2105 110.353 43.8232 109.892 43.8232H103.19Z" fill="#231F20"/>
</svg>
