<svg width="305" height="132" viewBox="0 0 305 132" fill="none" xmlns="http://www.w3.org/2000/svg">
<path d="M61.7813 32.5911C61.6276 32.8371 61.4636 33.0215 61.2894 33.1445C61.1254 33.2675 60.9102 33.329 60.6438 33.329C60.4081 33.329 60.1519 33.2572 59.8752 33.1137C59.6088 32.96 59.3013 32.7909 58.9529 32.6065C58.6147 32.422 58.2253 32.2581 57.7847 32.1146C57.344 31.9609 56.8419 31.884 56.2782 31.884C55.3047 31.884 54.5771 32.0941 54.0955 32.5143C53.6241 32.9242 53.3884 33.4827 53.3884 34.1898C53.3884 34.6407 53.5318 35.0147 53.8188 35.3119C54.1057 35.6091 54.4797 35.8653 54.9409 36.0805C55.4123 36.2957 55.9452 36.4955 56.5396 36.68C57.1442 36.8542 57.759 37.054 58.3842 37.2795C59.0093 37.4947 59.619 37.7509 60.2134 38.0481C60.818 38.3453 61.3509 38.7244 61.8121 39.1856C62.2835 39.6467 62.6626 40.2104 62.9496 40.8765C63.2365 41.5323 63.38 42.3265 63.38 43.2591C63.38 44.2941 63.2006 45.2625 62.842 46.1643C62.4833 47.0661 61.9606 47.8552 61.274 48.5316C60.5977 49.1977 59.7574 49.7254 58.7531 50.1149C57.759 50.494 56.6267 50.6836 55.3559 50.6836C54.6591 50.6836 53.9469 50.6119 53.2193 50.4684C52.5019 50.3249 51.8051 50.1251 51.1287 49.8689C50.4524 49.6025 49.817 49.2899 49.2226 48.9312C48.6282 48.5726 48.1107 48.1729 47.6701 47.7322L49.2072 45.3035C49.32 45.1191 49.4788 44.9705 49.6838 44.8577C49.8887 44.745 50.1091 44.6886 50.3448 44.6886C50.6522 44.6886 50.9596 44.786 51.2671 44.9807C51.5847 45.1754 51.9383 45.3906 52.3277 45.6263C52.7274 45.862 53.1834 46.0772 53.6958 46.2719C54.2082 46.4666 54.8128 46.564 55.5096 46.564C56.4524 46.564 57.1852 46.359 57.7078 45.9491C58.2304 45.529 58.4918 44.868 58.4918 43.9662C58.4918 43.4435 58.3483 43.0183 58.0614 42.6903C57.7744 42.3624 57.3952 42.0908 56.9238 41.8756C56.4627 41.6604 55.9349 41.4708 55.3406 41.3069C54.7462 41.1429 54.1364 40.9636 53.5113 40.7689C52.8862 40.5639 52.2765 40.318 51.6821 40.031C51.0877 39.7338 50.5548 39.3495 50.0834 38.8781C49.6223 38.3965 49.2482 37.8021 48.9613 37.095C48.6744 36.3777 48.5309 35.4964 48.5309 34.4511C48.5309 33.6108 48.7 32.7909 49.0382 31.9916C49.3763 31.1923 49.8734 30.4801 50.5292 29.8549C51.1851 29.2298 51.9895 28.7328 52.9426 28.3639C53.8956 27.9847 54.987 27.7951 56.2168 27.7951C56.9034 27.7951 57.5695 27.8515 58.2151 27.9642C58.8709 28.0667 59.4909 28.2255 60.075 28.4407C60.6592 28.6457 61.2023 28.8968 61.7044 29.194C62.2168 29.4809 62.6729 29.8088 63.0725 30.1777L61.7813 32.5911Z" fill="#1A1919"/>
<path d="M72.1723 34.2513C73.2279 34.2513 74.1912 34.4152 75.0622 34.7431C75.9435 35.0711 76.6967 35.5476 77.3219 36.1727C77.9572 36.7978 78.4491 37.5664 78.7975 38.4785C79.1562 39.3803 79.3356 40.4051 79.3356 41.5528C79.3356 41.9115 79.3202 42.2036 79.2894 42.429C79.2587 42.6545 79.2023 42.8338 79.1204 42.967C79.0384 43.1002 78.9256 43.1925 78.7822 43.2437C78.649 43.2949 78.4747 43.3206 78.2595 43.3206H69.0673C69.221 44.6528 69.6258 45.6212 70.2816 46.2258C70.9375 46.8202 71.7829 47.1174 72.818 47.1174C73.3713 47.1174 73.8479 47.0508 74.2475 46.9175C74.6472 46.7843 75.0007 46.6357 75.3082 46.4718C75.6259 46.3078 75.9128 46.1592 76.169 46.026C76.4354 45.8928 76.7121 45.8261 76.9991 45.8261C77.3782 45.8261 77.6652 45.9645 77.8599 46.2412L79.2433 47.9474C78.7514 48.5111 78.2185 48.9722 77.6447 49.3309C77.081 49.6793 76.4969 49.956 75.8923 50.161C75.2979 50.3557 74.6984 50.4889 74.0938 50.5606C73.4994 50.6426 72.9307 50.6836 72.3875 50.6836C71.2705 50.6836 70.2201 50.5043 69.2363 50.1456C68.2628 49.7767 67.4071 49.2335 66.6693 48.5162C65.9417 47.7989 65.3627 46.9073 64.9323 45.8415C64.5121 44.7758 64.302 43.5358 64.302 42.1216C64.302 41.0558 64.4814 40.0464 64.84 39.0933C65.209 38.1403 65.7316 37.3051 66.408 36.5878C67.0946 35.8704 67.9195 35.3017 68.8828 34.8815C69.8563 34.4613 70.9529 34.2513 72.1723 34.2513ZM72.2646 37.5408C71.3525 37.5408 70.6403 37.8021 70.1279 38.3248C69.6155 38.8371 69.2773 39.5801 69.1134 40.5537H75.0622C75.0622 40.1745 75.011 39.8056 74.9085 39.4469C74.8163 39.0882 74.6574 38.7705 74.432 38.4938C74.2168 38.2069 73.9298 37.9763 73.5712 37.8021C73.2125 37.6279 72.777 37.5408 72.2646 37.5408Z" fill="#1A1919"/>
<path d="M86.3741 34.4972V50.4377H81.6089V34.4972H86.3741ZM86.9275 30.1316C86.9275 30.5108 86.8506 30.8695 86.6969 31.2077C86.5432 31.5356 86.3331 31.8276 86.0667 32.0838C85.8002 32.3298 85.4877 32.5296 85.129 32.6833C84.7806 32.8268 84.4065 32.8985 84.0069 32.8985C83.6175 32.8985 83.2537 32.8268 82.9155 32.6833C82.5773 32.5296 82.275 32.3298 82.0086 32.0838C81.7524 31.8276 81.5474 31.5356 81.3937 31.2077C81.2502 30.8695 81.1785 30.5108 81.1785 30.1316C81.1785 29.7422 81.2502 29.3784 81.3937 29.0402C81.5474 28.7021 81.7524 28.4049 82.0086 28.1487C82.275 27.8925 82.5773 27.6927 82.9155 27.5492C83.2537 27.4057 83.6175 27.334 84.0069 27.334C84.4065 27.334 84.7806 27.4057 85.129 27.5492C85.4877 27.6927 85.8002 27.8925 86.0667 28.1487C86.3331 28.4049 86.5432 28.7021 86.6969 29.0402C86.8506 29.3784 86.9275 29.7422 86.9275 30.1316Z" fill="#1A1919"/>
<path d="M89.607 50.4377V34.4972H92.4354C92.6711 34.4972 92.8658 34.5177 93.0195 34.5587C93.1835 34.5997 93.3167 34.6663 93.4192 34.7585C93.5319 34.8405 93.6139 34.9532 93.6651 35.0967C93.7266 35.2402 93.7778 35.4144 93.8188 35.6193L94.0801 37.1104C94.6643 36.2086 95.3201 35.4964 96.0477 34.9737C96.7753 34.4511 97.5695 34.1898 98.4303 34.1898C99.1579 34.1898 99.7421 34.364 100.183 34.7124L99.5678 38.2172C99.5269 38.4324 99.4449 38.5861 99.3219 38.6783C99.1989 38.7603 99.035 38.8013 98.83 38.8013C98.6558 38.8013 98.4508 38.7808 98.2151 38.7398C97.9794 38.6886 97.6823 38.6629 97.3236 38.6629C96.0733 38.6629 95.0896 39.329 94.3722 40.6613V50.4377H89.607Z" fill="#1A1919"/>
<path d="M101.692 50.4377V27.4262H106.457V36.1881C107.051 35.604 107.723 35.1377 108.471 34.7893C109.229 34.4306 110.115 34.2513 111.13 34.2513C111.96 34.2513 112.729 34.4306 113.436 34.7893C114.143 35.1479 114.753 35.6757 115.265 36.3725C115.777 37.0592 116.177 37.9046 116.464 38.9089C116.761 39.9132 116.91 41.0558 116.91 42.3368C116.91 43.5358 116.741 44.6425 116.403 45.6571C116.075 46.6716 115.608 47.5529 115.004 48.301C114.409 49.0491 113.692 49.6332 112.852 50.0534C112.022 50.4735 111.099 50.6836 110.085 50.6836C109.613 50.6836 109.188 50.6375 108.809 50.5453C108.44 50.453 108.097 50.3249 107.779 50.161C107.472 49.9868 107.185 49.7818 106.918 49.5461C106.662 49.3104 106.411 49.0542 106.165 48.7775L105.996 49.5768C105.924 49.9048 105.791 50.1302 105.596 50.2532C105.412 50.3762 105.166 50.4377 104.858 50.4377H101.692ZM109.47 37.8329C109.121 37.8329 108.804 37.8687 108.517 37.9405C108.24 38.002 107.979 38.0942 107.733 38.2172C107.497 38.3401 107.277 38.499 107.072 38.6937C106.867 38.8781 106.662 39.0933 106.457 39.3393V46.1028C106.816 46.5025 107.205 46.7843 107.625 46.9483C108.045 47.102 108.486 47.1789 108.947 47.1789C109.388 47.1789 109.793 47.0918 110.162 46.9175C110.531 46.7433 110.848 46.4666 111.115 46.0875C111.391 45.6981 111.607 45.1959 111.76 44.581C111.914 43.9662 111.991 43.2181 111.991 42.3368C111.991 41.4965 111.929 40.7894 111.806 40.2155C111.683 39.6416 111.509 39.1804 111.284 38.832C111.069 38.4733 110.807 38.2172 110.5 38.0634C110.192 37.9097 109.849 37.8329 109.47 37.8329Z" fill="#1A1919"/>
<path d="M118.911 50.4377V27.4262H123.676V35.896C124.25 35.4041 124.87 35.0096 125.536 34.7124C126.212 34.405 127.017 34.2513 127.949 34.2513C128.82 34.2513 129.589 34.405 130.255 34.7124C130.931 35.0096 131.5 35.4298 131.961 35.9729C132.422 36.5058 132.771 37.1463 133.006 37.8943C133.242 38.6322 133.36 39.4366 133.36 40.3077V50.4377H128.595V40.3077C128.595 39.5289 128.415 38.9243 128.057 38.4938C127.698 38.0532 127.17 37.8329 126.473 37.8329C125.951 37.8329 125.459 37.9456 124.998 38.171C124.537 38.3965 124.096 38.6988 123.676 39.078V50.4377H118.911Z" fill="#1A1919"/>
<path d="M141.048 34.4972V50.4377H136.283V34.4972H141.048ZM144.906 27.7951L140.91 31.8379C140.674 32.0736 140.449 32.2427 140.233 32.3452C140.018 32.4374 139.731 32.4835 139.373 32.4835H136.514L138.604 28.7174C138.778 28.4203 138.983 28.1948 139.219 28.0411C139.455 27.8771 139.813 27.7951 140.295 27.7951H144.906Z" fill="#1A1919"/>
<path d="M154.027 37.9866C153.904 38.1813 153.771 38.3196 153.627 38.4016C153.494 38.4836 153.32 38.5246 153.104 38.5246C152.879 38.5246 152.653 38.4785 152.428 38.3862C152.203 38.2838 151.957 38.1762 151.69 38.0634C151.434 37.9507 151.142 37.8482 150.814 37.756C150.486 37.6535 150.112 37.6023 149.692 37.6023C149.087 37.6023 148.621 37.7201 148.293 37.9558C147.975 38.1813 147.817 38.499 147.817 38.9089C147.817 39.2061 147.919 39.452 148.124 39.6467C148.339 39.8414 148.621 40.0156 148.969 40.1694C149.318 40.3128 149.712 40.4512 150.153 40.5844C150.594 40.7176 151.045 40.8662 151.506 41.0302C151.967 41.1941 152.418 41.3889 152.858 41.6143C153.299 41.8295 153.694 42.1011 154.042 42.429C154.391 42.7467 154.667 43.1361 154.872 43.5973C155.087 44.0584 155.195 44.6118 155.195 45.2574C155.195 46.0465 155.051 46.7741 154.765 47.4402C154.478 48.1063 154.047 48.6802 153.473 49.1618C152.91 49.6435 152.208 50.0175 151.367 50.2839C150.537 50.5504 149.579 50.6836 148.493 50.6836C147.95 50.6836 147.407 50.6324 146.863 50.5299C146.32 50.4274 145.793 50.2891 145.28 50.1149C144.778 49.9406 144.312 49.7357 143.881 49.5C143.451 49.254 143.082 48.9927 142.775 48.716L143.881 46.9637C144.015 46.7587 144.173 46.5999 144.358 46.4871C144.542 46.3642 144.783 46.3027 145.08 46.3027C145.357 46.3027 145.603 46.3642 145.818 46.4871C146.044 46.6101 146.284 46.7433 146.541 46.8868C146.797 47.0303 147.094 47.1635 147.432 47.2865C147.781 47.4094 148.216 47.4709 148.739 47.4709C149.108 47.4709 149.42 47.4351 149.676 47.3633C149.933 47.2813 150.138 47.1737 150.291 47.0405C150.445 46.9073 150.558 46.7587 150.63 46.5947C150.701 46.4308 150.737 46.2617 150.737 46.0875C150.737 45.7698 150.63 45.5085 150.414 45.3035C150.199 45.0986 149.917 44.9243 149.569 44.7809C149.22 44.6272 148.821 44.4888 148.37 44.3658C147.929 44.2326 147.478 44.084 147.017 43.9201C146.556 43.7561 146.1 43.5614 145.649 43.3359C145.208 43.1002 144.814 42.8082 144.465 42.4597C144.117 42.1011 143.835 41.6655 143.62 41.1531C143.405 40.6408 143.297 40.0208 143.297 39.2932C143.297 38.6168 143.425 37.9763 143.682 37.3717C143.948 36.7568 144.343 36.2188 144.865 35.7577C145.388 35.2965 146.044 34.9327 146.833 34.6663C147.622 34.3896 148.544 34.2513 149.6 34.2513C150.174 34.2513 150.727 34.3025 151.26 34.405C151.803 34.5074 152.31 34.6509 152.782 34.8354C153.253 35.0198 153.683 35.2402 154.073 35.4964C154.462 35.7423 154.806 36.0139 155.103 36.3111L154.027 37.9866Z" fill="#1A1919"/>
<path d="M162.125 34.4972V50.4377H157.36V34.4972H162.125ZM165.984 27.7951L161.987 31.8379C161.751 32.0736 161.526 32.2427 161.311 32.3452C161.096 32.4374 160.809 32.4835 160.45 32.4835H157.591L159.681 28.7174C159.856 28.4203 160.06 28.1948 160.296 28.0411C160.532 27.8771 160.891 27.7951 161.372 27.7951H165.984Z" fill="#1A1919"/>
<path d="M93.1213 70.2791V77.7651H87.9257V55.3686H95.8268C97.4049 55.3686 98.7576 55.5581 99.8849 55.9373C101.022 56.3062 101.955 56.8186 102.683 57.4745C103.42 58.1303 103.964 58.9041 104.312 59.7956C104.66 60.6872 104.835 61.6505 104.835 62.6855C104.835 63.8025 104.655 64.8273 104.297 65.7598C103.938 66.6924 103.39 67.4917 102.652 68.1578C101.914 68.8239 100.976 69.3466 99.8388 69.7257C98.7115 70.0947 97.3742 70.2791 95.8268 70.2791H93.1213ZM93.1213 66.3593H95.8268C97.1795 66.3593 98.153 66.0365 98.7474 65.3909C99.3418 64.7453 99.6389 63.8435 99.6389 62.6855C99.6389 62.1731 99.5621 61.7068 99.4084 61.2867C99.2547 60.8665 99.019 60.5078 98.7013 60.2107C98.3938 59.9032 97.9993 59.6675 97.5177 59.5036C97.0463 59.3396 96.4826 59.2576 95.8268 59.2576H93.1213V66.3593Z" fill="#1A1919"/>
<path d="M113.567 61.5787C114.776 61.5787 115.878 61.7683 116.872 62.1475C117.866 62.5267 118.717 63.0698 119.424 63.7769C120.141 64.484 120.695 65.3448 121.084 66.3593C121.484 67.3636 121.683 68.496 121.683 69.7565C121.683 71.0272 121.484 72.175 121.084 73.1997C120.695 74.2143 120.141 75.0802 119.424 75.7976C118.717 76.5047 117.866 77.0529 116.872 77.4423C115.878 77.8215 114.776 78.0111 113.567 78.0111C112.348 78.0111 111.236 77.8215 110.231 77.4423C109.237 77.0529 108.377 76.5047 107.649 75.7976C106.932 75.0802 106.373 74.2143 105.974 73.1997C105.584 72.175 105.389 71.0272 105.389 69.7565C105.389 68.496 105.584 67.3636 105.974 66.3593C106.373 65.3448 106.932 64.484 107.649 63.7769C108.377 63.0698 109.237 62.5267 110.231 62.1475C111.236 61.7683 112.348 61.5787 113.567 61.5787ZM113.567 74.4756C114.664 74.4756 115.468 74.0913 115.981 73.3227C116.503 72.5439 116.764 71.3654 116.764 69.7872C116.764 68.2091 116.503 67.0357 115.981 66.2671C115.468 65.4985 114.664 65.1142 113.567 65.1142C112.44 65.1142 111.615 65.4985 111.092 66.2671C110.57 67.0357 110.308 68.2091 110.308 69.7872C110.308 71.3654 110.57 72.5439 111.092 73.3227C111.615 74.0913 112.44 74.4756 113.567 74.4756Z" fill="#1A1919"/>
<path d="M128.603 61.8247V77.7651H123.838V61.8247H128.603ZM129.156 57.4591C129.156 57.8383 129.08 58.197 128.926 58.5351C128.772 58.8631 128.562 59.1551 128.296 59.4113C128.029 59.6573 127.717 59.8571 127.358 60.0108C127.01 60.1543 126.636 60.226 126.236 60.226C125.846 60.226 125.483 60.1543 125.144 60.0108C124.806 59.8571 124.504 59.6573 124.238 59.4113C123.981 59.1551 123.776 58.8631 123.623 58.5351C123.479 58.197 123.407 57.8383 123.407 57.4591C123.407 57.0697 123.479 56.7059 123.623 56.3677C123.776 56.0295 123.981 55.7324 124.238 55.4762C124.504 55.22 124.806 55.0201 125.144 54.8767C125.483 54.7332 125.846 54.6615 126.236 54.6615C126.636 54.6615 127.01 54.7332 127.358 54.8767C127.717 55.0201 128.029 55.22 128.296 55.4762C128.562 55.7324 128.772 56.0295 128.926 56.3677C129.08 56.7059 129.156 57.0697 129.156 57.4591Z" fill="#1A1919"/>
<path d="M131.836 77.7651V54.7537H136.601V63.5156C137.196 62.9314 137.867 62.4652 138.615 62.1167C139.373 61.7581 140.26 61.5787 141.274 61.5787C142.104 61.5787 142.873 61.7581 143.58 62.1167C144.287 62.4754 144.897 63.0032 145.409 63.7C145.922 64.3866 146.321 65.2321 146.608 66.2364C146.905 67.2406 147.054 68.3833 147.054 69.6643C147.054 70.8632 146.885 71.97 146.547 72.9845C146.219 73.9991 145.752 74.8804 145.148 75.6285C144.553 76.3766 143.836 76.9607 142.996 77.3809C142.166 77.801 141.243 78.0111 140.229 78.0111C139.758 78.0111 139.332 77.965 138.953 77.8727C138.584 77.7805 138.241 77.6524 137.923 77.4885C137.616 77.3142 137.329 77.1093 137.062 76.8736C136.806 76.6379 136.555 76.3817 136.309 76.105L136.14 76.9043C136.068 77.2323 135.935 77.4577 135.74 77.5807C135.556 77.7037 135.31 77.7651 135.003 77.7651H131.836ZM139.614 65.1603C139.266 65.1603 138.948 65.1962 138.661 65.2679C138.384 65.3294 138.123 65.4217 137.877 65.5446C137.641 65.6676 137.421 65.8264 137.216 66.0212C137.011 66.2056 136.806 66.4208 136.601 66.6668V73.4303C136.96 73.83 137.349 74.1118 137.769 74.2758C138.19 74.4295 138.63 74.5063 139.091 74.5063C139.532 74.5063 139.937 74.4192 140.306 74.245C140.675 74.0708 140.992 73.7941 141.259 73.415C141.536 73.0255 141.751 72.5234 141.904 71.9085C142.058 71.2937 142.135 70.5456 142.135 69.6643C142.135 68.8239 142.074 68.1168 141.951 67.543C141.828 66.9691 141.653 66.5079 141.428 66.1595C141.213 65.8008 140.951 65.5446 140.644 65.3909C140.337 65.2372 139.993 65.1603 139.614 65.1603Z" fill="#1A1919"/>
<path d="M153.974 54.7537V77.7651H149.208V54.7537H153.974Z" fill="#1A1919"/>
<path d="M162.125 61.8247V77.7651H157.36V61.8247H162.125ZM165.984 55.1226L161.987 59.1654C161.751 59.4011 161.526 59.5702 161.311 59.6726C161.096 59.7649 160.809 59.811 160.45 59.811H157.591L159.681 56.0449C159.856 55.7477 160.06 55.5223 160.296 55.3686C160.532 55.2046 160.891 55.1226 161.372 55.1226H165.984Z" fill="#1A1919"/>
<path d="M30.0433 82.696C30.2687 82.696 30.4583 82.7063 30.612 82.7268C30.7658 82.7473 30.9041 82.7883 31.0271 82.8498C31.1501 82.901 31.2679 82.9779 31.3806 83.0803C31.4934 83.1828 31.6215 83.3212 31.7649 83.4954L42.4021 96.9456C42.3612 96.5152 42.3304 96.1002 42.3099 95.7005C42.2894 95.2906 42.2792 94.9063 42.2792 94.5476V82.696H46.8599V105.093H44.1545C43.7549 105.093 43.4167 105.031 43.14 104.908C42.8633 104.785 42.5969 104.56 42.3407 104.232L31.7803 90.8892C31.811 91.2786 31.8367 91.6629 31.8572 92.042C31.8777 92.411 31.8879 92.7594 31.8879 93.0873V105.093H27.3071V82.696H30.0433Z" fill="#1A1919"/>
<path d="M54.8489 89.1522V105.093H50.0837V89.1522H54.8489ZM58.7072 82.4501L54.7106 86.4929C54.4749 86.7286 54.2494 86.8976 54.0342 87.0001C53.819 87.0924 53.5321 87.1385 53.1734 87.1385H50.3143L52.4048 83.3724C52.579 83.0752 52.784 82.8498 53.0197 82.696C53.2554 82.5321 53.614 82.4501 54.0957 82.4501H58.7072Z" fill="#1A1919"/>
<path d="M65.1835 88.9062C66.3927 88.9062 67.4944 89.0958 68.4884 89.475C69.4825 89.8541 70.333 90.3973 71.0401 91.1044C71.7575 91.8115 72.3108 92.6723 72.7003 93.6868C73.0999 94.6911 73.2998 95.8235 73.2998 97.084C73.2998 98.3547 73.0999 99.5024 72.7003 100.527C72.3108 101.542 71.7575 102.408 71.0401 103.125C70.333 103.832 69.4825 104.38 68.4884 104.77C67.4944 105.149 66.3927 105.339 65.1835 105.339C63.964 105.339 62.8521 105.149 61.8478 104.77C60.8538 104.38 59.993 103.832 59.2654 103.125C58.548 102.408 57.9895 101.542 57.5899 100.527C57.2005 99.5024 57.0058 98.3547 57.0058 97.084C57.0058 95.8235 57.2005 94.6911 57.5899 93.6868C57.9895 92.6723 58.548 91.8115 59.2654 91.1044C59.993 90.3973 60.8538 89.8541 61.8478 89.475C62.8521 89.0958 63.964 88.9062 65.1835 88.9062ZM65.1835 101.803C66.28 101.803 67.0845 101.419 67.5969 100.65C68.1195 99.8714 68.3808 98.6929 68.3808 97.1147C68.3808 95.5365 68.1195 94.3632 67.5969 93.5946C67.0845 92.826 66.28 92.4417 65.1835 92.4417C64.0562 92.4417 63.2313 92.826 62.7087 93.5946C62.186 94.3632 61.9247 95.5365 61.9247 97.1147C61.9247 98.6929 62.186 99.8714 62.7087 100.65C63.2313 101.419 64.0562 101.803 65.1835 101.803Z" fill="#1A1919"/>
<path d="M85.0461 92.6415C84.9232 92.8363 84.79 92.9746 84.6465 93.0566C84.5133 93.1386 84.339 93.1795 84.1238 93.1795C83.8984 93.1795 83.6729 93.1334 83.4475 93.0412C83.222 92.9387 82.9761 92.8311 82.7096 92.7184C82.4535 92.6057 82.1614 92.5032 81.8335 92.411C81.5055 92.3085 81.1315 92.2573 80.7113 92.2573C80.1067 92.2573 79.6404 92.3751 79.3125 92.6108C78.9948 92.8363 78.836 93.1539 78.836 93.5638C78.836 93.861 78.9385 94.107 79.1434 94.3017C79.3586 94.4964 79.6404 94.6706 79.9889 94.8243C80.3373 94.9678 80.7318 95.1061 81.1725 95.2394C81.6131 95.3726 82.064 95.5212 82.5252 95.6851C82.9863 95.8491 83.4372 96.0438 83.8779 96.2693C84.3186 96.4845 84.7131 96.756 85.0615 97.084C85.4099 97.4017 85.6866 97.7911 85.8916 98.2522C86.1068 98.7134 86.2144 99.2667 86.2144 99.9124C86.2144 100.701 86.0709 101.429 85.784 102.095C85.4971 102.761 85.0666 103.335 84.4928 103.817C83.9291 104.298 83.2272 104.672 82.3868 104.939C81.5568 105.205 80.5986 105.339 79.5123 105.339C78.9692 105.339 78.4261 105.287 77.8829 105.185C77.3398 105.082 76.812 104.944 76.2996 104.77C75.7975 104.596 75.3312 104.391 74.9008 104.155C74.4704 103.909 74.1015 103.648 73.7941 103.371L74.9008 101.619C75.034 101.414 75.1929 101.255 75.3773 101.142C75.5618 101.019 75.8026 100.958 76.0998 100.958C76.3765 100.958 76.6225 101.019 76.8377 101.142C77.0631 101.265 77.3039 101.398 77.5601 101.542C77.8163 101.685 78.1135 101.818 78.4517 101.941C78.8001 102.064 79.2356 102.126 79.7583 102.126C80.1272 102.126 80.4398 102.09 80.696 102.018C80.9522 101.936 81.1571 101.829 81.3108 101.695C81.4645 101.562 81.5773 101.414 81.649 101.25C81.7207 101.086 81.7566 100.917 81.7566 100.742C81.7566 100.425 81.649 100.163 81.4338 99.9585C81.2186 99.7535 80.9368 99.5793 80.5884 99.4358C80.2399 99.2821 79.8403 99.1438 79.3894 99.0208C78.9487 98.8876 78.4978 98.739 78.0366 98.575C77.5755 98.4111 77.1195 98.2163 76.6686 97.9909C76.2279 97.7552 75.8334 97.4631 75.4849 97.1147C75.1365 96.756 74.8547 96.3205 74.6395 95.8081C74.4243 95.2957 74.3167 94.6757 74.3167 93.9481C74.3167 93.2718 74.4448 92.6313 74.701 92.0267C74.9674 91.4118 75.362 90.8738 75.8846 90.4126C76.4073 89.9515 77.0631 89.5877 77.8522 89.3213C78.6413 89.0446 79.5636 88.9062 80.6191 88.9062C81.193 88.9062 81.7464 88.9575 82.2792 89.0599C82.8224 89.1624 83.3296 89.3059 83.801 89.4903C84.2724 89.6748 84.7028 89.8951 85.0923 90.1513C85.4817 90.3973 85.825 90.6688 86.1222 90.966L85.0461 92.6415Z" fill="#1A1919"/>
<path d="M107.974 82.696V86.6927H98.782V92.3649H106.437V96.3769H98.782V105.093H93.5556V82.696H107.974Z" fill="#1A1919"/>
<path d="M115.948 88.9062C117.004 88.9062 117.967 89.0702 118.838 89.3981C119.719 89.726 120.472 90.2026 121.098 90.8277C121.733 91.4528 122.225 92.2214 122.573 93.1334C122.932 94.0352 123.111 95.06 123.111 96.2078C123.111 96.5665 123.096 96.8585 123.065 97.084C123.034 97.3094 122.978 97.4888 122.896 97.622C122.814 97.7552 122.701 97.8474 122.558 97.8987C122.425 97.9499 122.25 97.9755 122.035 97.9755H112.843C112.997 99.3077 113.402 100.276 114.057 100.881C114.713 101.475 115.559 101.772 116.594 101.772C117.147 101.772 117.624 101.706 118.023 101.573C118.423 101.439 118.776 101.291 119.084 101.127C119.402 100.963 119.689 100.814 119.945 100.681C120.211 100.548 120.488 100.481 120.775 100.481C121.154 100.481 121.441 100.619 121.636 100.896L123.019 102.602C122.527 103.166 121.994 103.627 121.42 103.986C120.857 104.334 120.273 104.611 119.668 104.816C119.074 105.011 118.474 105.144 117.87 105.216C117.275 105.298 116.706 105.339 116.163 105.339C115.046 105.339 113.996 105.159 113.012 104.801C112.039 104.432 111.183 103.889 110.445 103.171C109.717 102.454 109.138 101.562 108.708 100.496C108.288 99.4307 108.078 98.1907 108.078 96.7765C108.078 95.7108 108.257 94.7013 108.616 93.7483C108.985 92.7953 109.507 91.9601 110.184 91.2427C110.87 90.5254 111.695 89.9566 112.659 89.5365C113.632 89.1163 114.729 88.9062 115.948 88.9062ZM116.04 92.1958C115.128 92.1958 114.416 92.4571 113.904 92.9797C113.391 93.4921 113.053 94.2351 112.889 95.2086H118.838C118.838 94.8295 118.787 94.4605 118.684 94.1019C118.592 93.7432 118.433 93.4255 118.208 93.1488C117.993 92.8619 117.706 92.6313 117.347 92.4571C116.988 92.2829 116.553 92.1958 116.04 92.1958Z" fill="#1A1919"/>
<path d="M136.237 105.093C135.786 105.093 135.443 105.031 135.207 104.908C134.982 104.785 134.792 104.529 134.638 104.14L134.3 103.263C133.901 103.602 133.516 103.899 133.147 104.155C132.778 104.411 132.394 104.631 131.994 104.816C131.605 104.99 131.185 105.118 130.734 105.2C130.293 105.292 129.801 105.339 129.258 105.339C128.531 105.339 127.87 105.246 127.275 105.062C126.681 104.867 126.174 104.585 125.754 104.216C125.344 103.848 125.026 103.391 124.801 102.848C124.575 102.295 124.462 101.66 124.462 100.942C124.462 100.379 124.606 99.7996 124.893 99.2053C125.18 98.6109 125.677 98.0729 126.384 97.5912C127.091 97.0993 128.044 96.6894 129.243 96.3615C130.442 96.0336 131.953 95.8491 133.778 95.8081V95.1318C133.778 94.1992 133.583 93.528 133.193 93.1181C132.814 92.6979 132.271 92.4878 131.564 92.4878C131 92.4878 130.539 92.5493 130.181 92.6723C129.822 92.7953 129.499 92.9336 129.212 93.0873C128.936 93.241 128.664 93.3794 128.397 93.5024C128.131 93.6253 127.813 93.6868 127.444 93.6868C127.117 93.6868 126.835 93.61 126.599 93.4562C126.374 93.2923 126.194 93.0924 126.061 92.8567L125.2 91.3657C126.163 90.5151 127.229 89.8849 128.397 89.475C129.576 89.0548 130.836 88.8447 132.179 88.8447C133.142 88.8447 134.008 89.0036 134.777 89.3213C135.556 89.6287 136.211 90.0642 136.744 90.6278C137.287 91.1812 137.702 91.8422 137.989 92.6108C138.276 93.3794 138.42 94.2197 138.42 95.1318V105.093H136.237ZM130.765 102.187C131.38 102.187 131.918 102.08 132.379 101.865C132.84 101.649 133.306 101.301 133.778 100.819V98.6058C132.825 98.6468 132.041 98.7287 131.426 98.8517C130.811 98.9747 130.324 99.1284 129.965 99.3129C129.607 99.4973 129.356 99.7074 129.212 99.9431C129.079 100.179 129.012 100.435 129.012 100.712C129.012 101.255 129.161 101.639 129.458 101.865C129.755 102.08 130.191 102.187 130.765 102.187Z" fill="#1A1919"/>
<path d="M141.189 105.093V89.1522H144.017C144.253 89.1522 144.447 89.1727 144.601 89.2137C144.765 89.2546 144.898 89.3213 145.001 89.4135C145.114 89.4955 145.196 89.6082 145.247 89.7517C145.308 89.8951 145.36 90.0693 145.401 90.2743L145.662 91.7654C146.246 90.8635 146.902 90.1513 147.629 89.6287C148.357 89.106 149.151 88.8447 150.012 88.8447C150.74 88.8447 151.324 89.0189 151.764 89.3674L151.15 92.8721C151.109 93.0873 151.027 93.241 150.904 93.3333C150.781 93.4152 150.617 93.4562 150.412 93.4562C150.237 93.4562 150.033 93.4358 149.797 93.3948C149.561 93.3435 149.264 93.3179 148.905 93.3179C147.655 93.3179 146.671 93.984 145.954 95.3162V105.093H141.189Z" fill="#1A1919"/>
<path d="M153.273 105.093V89.1522H156.102C156.338 89.1522 156.532 89.1727 156.686 89.2137C156.85 89.2546 156.983 89.3213 157.086 89.4135C157.198 89.4955 157.28 89.6082 157.332 89.7517C157.393 89.8951 157.444 90.0693 157.485 90.2743L157.747 91.7654C158.331 90.8635 158.987 90.1513 159.714 89.6287C160.442 89.106 161.236 88.8447 162.097 88.8447C162.824 88.8447 163.409 89.0189 163.849 89.3674L163.234 92.8721C163.193 93.0873 163.111 93.241 162.988 93.3333C162.865 93.4152 162.701 93.4562 162.497 93.4562C162.322 93.4562 162.117 93.4358 161.882 93.3948C161.646 93.3435 161.349 93.3179 160.99 93.3179C159.74 93.3179 158.756 93.984 158.039 95.3162V105.093H153.273Z" fill="#1A1919"/>
<path d="M172.934 50.4377V28.0411H181.174C182.721 28.0411 184.038 28.1846 185.124 28.4715C186.21 28.7584 187.097 29.1632 187.783 29.6859C188.47 30.2085 188.967 30.8439 189.274 31.5919C189.592 32.34 189.751 33.1752 189.751 34.0975C189.751 34.5997 189.679 35.0864 189.536 35.5578C189.392 36.019 189.167 36.4545 188.859 36.8644C188.552 37.2744 188.157 37.6484 187.676 37.9866C187.194 38.3145 186.615 38.6014 185.939 38.8474C187.414 39.2061 188.506 39.7902 189.213 40.5998C189.92 41.3991 190.274 42.429 190.274 43.6895C190.274 44.6425 190.089 45.529 189.72 46.3488C189.351 47.1686 188.808 47.886 188.091 48.5008C187.384 49.1054 186.508 49.582 185.462 49.9304C184.417 50.2686 183.223 50.4377 181.881 50.4377H172.934ZM178.13 40.9379V46.5179H181.788C182.475 46.5179 183.034 46.4308 183.464 46.2566C183.905 46.0823 184.248 45.8569 184.494 45.5802C184.74 45.3035 184.909 44.991 185.001 44.6425C185.093 44.2941 185.139 43.9406 185.139 43.5819C185.139 43.172 185.083 42.803 184.97 42.4751C184.868 42.1472 184.683 41.8705 184.417 41.645C184.161 41.4196 183.817 41.2454 183.387 41.1224C182.957 40.9994 182.414 40.9379 181.758 40.9379H178.13ZM178.13 37.4639H180.835C181.409 37.4639 181.927 37.4229 182.388 37.341C182.849 37.259 183.238 37.1155 183.556 36.9106C183.884 36.7056 184.13 36.4238 184.294 36.0651C184.468 35.7064 184.555 35.2555 184.555 34.7124C184.555 34.1795 184.489 33.7389 184.355 33.3904C184.222 33.0318 184.017 32.7448 183.741 32.5296C183.464 32.3144 183.11 32.1607 182.68 32.0685C182.26 31.9762 181.758 31.9301 181.174 31.9301H178.13V37.4639Z" fill="#1A1919"/>
<path d="M199.32 34.2513C200.375 34.2513 201.339 34.4152 202.21 34.7431C203.091 35.0711 203.844 35.5476 204.469 36.1727C205.105 36.7978 205.597 37.5664 205.945 38.4785C206.304 39.3803 206.483 40.4051 206.483 41.5528C206.483 41.9115 206.468 42.2036 206.437 42.429C206.406 42.6545 206.35 42.8338 206.268 42.967C206.186 43.1002 206.073 43.1925 205.93 43.2437C205.796 43.2949 205.622 43.3206 205.407 43.3206H196.215C196.368 44.6528 196.773 45.6212 197.429 46.2258C198.085 46.8202 198.93 47.1174 199.965 47.1174C200.519 47.1174 200.995 47.0508 201.395 46.9175C201.795 46.7843 202.148 46.6357 202.456 46.4718C202.773 46.3078 203.06 46.1592 203.316 46.026C203.583 45.8928 203.86 45.8261 204.147 45.8261C204.526 45.8261 204.813 45.9645 205.007 46.2412L206.391 47.9474C205.899 48.5111 205.366 48.9722 204.792 49.3309C204.229 49.6793 203.644 49.956 203.04 50.161C202.445 50.3557 201.846 50.4889 201.241 50.5606C200.647 50.6426 200.078 50.6836 199.535 50.6836C198.418 50.6836 197.368 50.5043 196.384 50.1456C195.41 49.7767 194.555 49.2335 193.817 48.5162C193.089 47.7989 192.51 46.9073 192.08 45.8415C191.66 44.7758 191.45 43.5358 191.45 42.1216C191.45 41.0558 191.629 40.0464 191.988 39.0933C192.356 38.1403 192.879 37.3051 193.555 36.5878C194.242 35.8704 195.067 35.3017 196.03 34.8815C197.004 34.4613 198.1 34.2513 199.32 34.2513ZM199.412 37.5408C198.5 37.5408 197.788 37.8021 197.275 38.3248C196.763 38.8371 196.425 39.5801 196.261 40.5537H202.21C202.21 40.1745 202.158 39.8056 202.056 39.4469C201.964 39.0882 201.805 38.7705 201.579 38.4938C201.364 38.2069 201.077 37.9763 200.719 37.8021C200.36 37.6279 199.924 37.5408 199.412 37.5408Z" fill="#1A1919"/>
<path d="M214.198 50.6836C213.44 50.6836 212.768 50.576 212.184 50.3608C211.61 50.1354 211.124 49.8228 210.724 49.4231C210.335 49.0132 210.037 48.5213 209.832 47.9474C209.627 47.3736 209.525 46.7331 209.525 46.026V37.7867H208.172C207.926 37.7867 207.716 37.7099 207.542 37.5562C207.368 37.3922 207.281 37.1565 207.281 36.8491V34.9891L209.817 34.4972L210.755 30.6082C210.878 30.1163 211.226 29.8703 211.8 29.8703H214.29V34.5279H218.164V37.7867H214.29V45.7032C214.29 46.0721 214.377 46.3795 214.552 46.6255C214.736 46.8612 214.997 46.979 215.335 46.979C215.51 46.979 215.653 46.9637 215.766 46.9329C215.889 46.8919 215.991 46.8509 216.073 46.8099C216.166 46.7587 216.248 46.7177 216.319 46.687C216.401 46.646 216.493 46.6255 216.596 46.6255C216.739 46.6255 216.852 46.6613 216.934 46.7331C217.026 46.7946 217.119 46.897 217.211 47.0405L218.656 49.3002C218.041 49.7613 217.349 50.1097 216.581 50.3454C215.812 50.5709 215.018 50.6836 214.198 50.6836Z" fill="#1A1919"/>
<path d="M225.892 50.6836C225.134 50.6836 224.463 50.576 223.879 50.3608C223.305 50.1354 222.818 49.8228 222.418 49.4231C222.029 49.0132 221.732 48.5213 221.527 47.9474C221.322 47.3736 221.219 46.7331 221.219 46.026V37.7867H219.867C219.621 37.7867 219.411 37.7099 219.237 37.5562C219.062 37.3922 218.975 37.1565 218.975 36.8491V34.9891L221.512 34.4972L222.449 30.6082C222.572 30.1163 222.921 29.8703 223.494 29.8703H225.985V34.5279H229.858V37.7867H225.985V45.7032C225.985 46.0721 226.072 46.3795 226.246 46.6255C226.43 46.8612 226.692 46.979 227.03 46.979C227.204 46.979 227.348 46.9637 227.46 46.9329C227.583 46.8919 227.686 46.8509 227.768 46.8099C227.86 46.7587 227.942 46.7177 228.014 46.687C228.096 46.646 228.188 46.6255 228.29 46.6255C228.434 46.6255 228.547 46.6613 228.629 46.7331C228.721 46.7946 228.813 46.897 228.905 47.0405L230.35 49.3002C229.735 49.7613 229.044 50.1097 228.275 50.3454C227.507 50.5709 226.712 50.6836 225.892 50.6836Z" fill="#1A1919"/>
<path d="M238.817 34.2513C239.872 34.2513 240.836 34.4152 241.707 34.7431C242.588 35.0711 243.341 35.5476 243.966 36.1727C244.602 36.7978 245.094 37.5664 245.442 38.4785C245.801 39.3803 245.98 40.4051 245.98 41.5528C245.98 41.9115 245.965 42.2036 245.934 42.429C245.903 42.6545 245.847 42.8338 245.765 42.967C245.683 43.1002 245.57 43.1925 245.427 43.2437C245.293 43.2949 245.119 43.3206 244.904 43.3206H235.712C235.865 44.6528 236.27 45.6212 236.926 46.2258C237.582 46.8202 238.427 47.1174 239.462 47.1174C240.016 47.1174 240.492 47.0508 240.892 46.9175C241.292 46.7843 241.645 46.6357 241.953 46.4718C242.27 46.3078 242.557 46.1592 242.813 46.026C243.08 45.8928 243.356 45.8261 243.643 45.8261C244.023 45.8261 244.31 45.9645 244.504 46.2412L245.888 47.9474C245.396 48.5111 244.863 48.9722 244.289 49.3309C243.725 49.6793 243.141 49.956 242.537 50.161C241.942 50.3557 241.343 50.4889 240.738 50.5606C240.144 50.6426 239.575 50.6836 239.032 50.6836C237.915 50.6836 236.865 50.5043 235.881 50.1456C234.907 49.7767 234.051 49.2335 233.314 48.5162C232.586 47.7989 232.007 46.9073 231.577 45.8415C231.156 44.7758 230.946 43.5358 230.946 42.1216C230.946 41.0558 231.126 40.0464 231.484 39.0933C231.853 38.1403 232.376 37.3051 233.052 36.5878C233.739 35.8704 234.564 35.3017 235.527 34.8815C236.501 34.4613 237.597 34.2513 238.817 34.2513ZM238.909 37.5408C237.997 37.5408 237.285 37.8021 236.772 38.3248C236.26 38.8371 235.922 39.5801 235.758 40.5537H241.707C241.707 40.1745 241.655 39.8056 241.553 39.4469C241.461 39.0882 241.302 38.7705 241.076 38.4938C240.861 38.2069 240.574 37.9763 240.216 37.8021C239.857 37.6279 239.421 37.5408 238.909 37.5408Z" fill="#1A1919"/>
<path d="M248.1 50.4377V34.4972H250.928C251.164 34.4972 251.358 34.5177 251.512 34.5587C251.676 34.5997 251.809 34.6663 251.912 34.7585C252.024 34.8405 252.106 34.9532 252.158 35.0967C252.219 35.2402 252.27 35.4144 252.311 35.6193L252.573 37.1104C253.157 36.2086 253.813 35.4964 254.54 34.9737C255.268 34.4511 256.062 34.1898 256.923 34.1898C257.651 34.1898 258.235 34.364 258.675 34.7124L258.06 38.2172C258.019 38.4324 257.937 38.5861 257.814 38.6783C257.692 38.7603 257.528 38.8013 257.323 38.8013C257.148 38.8013 256.943 38.7808 256.708 38.7398C256.472 38.6886 256.175 38.6629 255.816 38.6629C254.566 38.6629 253.582 39.329 252.865 40.6613V50.4377H248.1Z" fill="#1A1919"/>
<path d="M178.13 70.2791V77.7651H172.934V55.3686H180.835C182.414 55.3686 183.766 55.5581 184.893 55.9373C186.031 56.3062 186.964 56.8186 187.691 57.4745C188.429 58.1303 188.972 58.9041 189.321 59.7956C189.669 60.6872 189.843 61.6505 189.843 62.6855C189.843 63.8025 189.664 64.8273 189.305 65.7598C188.946 66.6924 188.398 67.4917 187.66 68.1578C186.923 68.8239 185.985 69.3466 184.847 69.7257C183.72 70.0947 182.383 70.2791 180.835 70.2791H178.13ZM178.13 66.3593H180.835C182.188 66.3593 183.162 66.0365 183.756 65.3909C184.35 64.7453 184.648 63.8435 184.648 62.6855C184.648 62.1731 184.571 61.7068 184.417 61.2867C184.263 60.8665 184.028 60.5078 183.71 60.2107C183.402 59.9032 183.008 59.6675 182.526 59.5036C182.055 59.3396 181.491 59.2576 180.835 59.2576H178.13V66.3593Z" fill="#1A1919"/>
<path d="M196.382 61.8247V71.9393C196.382 72.7283 196.561 73.3381 196.92 73.7685C197.279 74.1989 197.807 74.4141 198.503 74.4141C199.026 74.4141 199.513 74.3065 199.964 74.0913C200.425 73.8761 200.871 73.5738 201.301 73.1844V61.8247H206.066V77.7651H203.115C202.521 77.7651 202.131 77.4987 201.947 76.9658L201.655 76.0435C201.347 76.3407 201.03 76.6123 200.702 76.8582C200.374 77.0939 200.02 77.2989 199.641 77.4731C199.272 77.637 198.872 77.7651 198.442 77.8574C198.012 77.9599 197.54 78.0111 197.028 78.0111C196.157 78.0111 195.383 77.8625 194.707 77.5653C194.041 77.2579 193.477 76.8326 193.016 76.2895C192.555 75.7463 192.206 75.1058 191.97 74.368C191.735 73.6302 191.617 72.8206 191.617 71.9393V61.8247H196.382Z" fill="#1A1919"/>
<path d="M209.143 77.7651V54.7537H213.908V63.5156C214.503 62.9314 215.174 62.4652 215.922 62.1167C216.68 61.7581 217.567 61.5787 218.581 61.5787C219.411 61.5787 220.18 61.7581 220.887 62.1167C221.594 62.4754 222.204 63.0032 222.716 63.7C223.229 64.3866 223.628 65.2321 223.915 66.2364C224.212 67.2406 224.361 68.3833 224.361 69.6643C224.361 70.8632 224.192 71.97 223.854 72.9845C223.526 73.9991 223.06 74.8804 222.455 75.6285C221.861 76.3766 221.143 76.9607 220.303 77.3809C219.473 77.801 218.551 78.0111 217.536 78.0111C217.065 78.0111 216.639 77.965 216.26 77.8727C215.891 77.7805 215.548 77.6524 215.23 77.4885C214.923 77.3142 214.636 77.1093 214.369 76.8736C214.113 76.6379 213.862 76.3817 213.616 76.105L213.447 76.9043C213.375 77.2323 213.242 77.4577 213.047 77.5807C212.863 77.7037 212.617 77.7651 212.31 77.7651H209.143ZM216.921 65.1603C216.573 65.1603 216.255 65.1962 215.968 65.2679C215.691 65.3294 215.43 65.4217 215.184 65.5446C214.948 65.6676 214.728 65.8264 214.523 66.0212C214.318 66.2056 214.113 66.4208 213.908 66.6668V73.4303C214.267 73.83 214.656 74.1118 215.077 74.2758C215.497 74.4295 215.937 74.5063 216.399 74.5063C216.839 74.5063 217.244 74.4192 217.613 74.245C217.982 74.0708 218.299 73.7941 218.566 73.415C218.843 73.0255 219.058 72.5234 219.212 71.9085C219.365 71.2937 219.442 70.5456 219.442 69.6643C219.442 68.8239 219.381 68.1168 219.258 67.543C219.135 66.9691 218.96 66.5079 218.735 66.1595C218.52 65.8008 218.259 65.5446 217.951 65.3909C217.644 65.2372 217.3 65.1603 216.921 65.1603Z" fill="#1A1919"/>
<path d="M231.281 54.7537V77.7651H226.516V54.7537H231.281Z" fill="#1A1919"/>
<path d="M239.433 61.8247V77.7651H234.667V61.8247H239.433ZM239.986 57.4591C239.986 57.8383 239.909 58.197 239.755 58.5351C239.602 58.8631 239.392 59.1551 239.125 59.4113C238.859 59.6573 238.546 59.8571 238.187 60.0108C237.839 60.1543 237.465 60.226 237.065 60.226C236.676 60.226 236.312 60.1543 235.974 60.0108C235.636 59.8571 235.333 59.6573 235.067 59.4113C234.811 59.1551 234.606 58.8631 234.452 58.5351C234.309 58.197 234.237 57.8383 234.237 57.4591C234.237 57.0697 234.309 56.7059 234.452 56.3677C234.606 56.0295 234.811 55.7324 235.067 55.4762C235.333 55.22 235.636 55.0201 235.974 54.8767C236.312 54.7332 236.676 54.6615 237.065 54.6615C237.465 54.6615 237.839 54.7332 238.187 54.8767C238.546 55.0201 238.859 55.22 239.125 55.4762C239.392 55.7324 239.602 56.0295 239.755 56.3677C239.909 56.7059 239.986 57.0697 239.986 57.4591Z" fill="#1A1919"/>
<path d="M254.163 65.6061C254.02 65.7803 253.882 65.9187 253.748 66.0212C253.615 66.1236 253.426 66.1749 253.18 66.1749C252.944 66.1749 252.729 66.1185 252.534 66.0058C252.35 65.8931 252.14 65.7701 251.904 65.6369C251.668 65.4934 251.391 65.3653 251.074 65.2526C250.756 65.1398 250.362 65.0835 249.89 65.0835C249.306 65.0835 248.799 65.1911 248.368 65.4063C247.948 65.6215 247.6 65.9289 247.323 66.3286C247.046 66.7283 246.841 67.2202 246.708 67.8043C246.575 68.3782 246.508 69.0289 246.508 69.7565C246.508 71.2834 246.8 72.4568 247.385 73.2766C247.979 74.0964 248.794 74.5063 249.829 74.5063C250.382 74.5063 250.818 74.4397 251.135 74.3065C251.463 74.163 251.74 74.0093 251.965 73.8454C252.191 73.6711 252.396 73.5123 252.58 73.3688C252.775 73.2254 253.016 73.1536 253.303 73.1536C253.682 73.1536 253.969 73.292 254.163 73.5687L255.547 75.2749C255.055 75.8386 254.537 76.2997 253.994 76.6584C253.451 77.0068 252.893 77.2835 252.319 77.4885C251.755 77.6832 251.186 77.8164 250.613 77.8881C250.039 77.9701 249.48 78.0111 248.937 78.0111C247.964 78.0111 247.031 77.8266 246.139 77.4577C245.258 77.0888 244.479 76.5559 243.803 75.8591C243.137 75.152 242.604 74.286 242.204 73.2612C241.815 72.2365 241.62 71.0682 241.62 69.7565C241.62 68.6087 241.789 67.5378 242.127 66.5438C242.476 65.5395 242.983 64.6736 243.649 63.946C244.326 63.2081 245.156 62.6291 246.139 62.209C247.133 61.7888 248.281 61.5787 249.583 61.5787C250.833 61.5787 251.929 61.7786 252.872 62.1782C253.815 62.5779 254.666 63.162 255.424 63.9306L254.163 65.6061Z" fill="#1A1919"/>
<path d="M185.416 87.2461C185.262 87.492 185.098 87.6765 184.924 87.7995C184.76 87.9224 184.545 87.9839 184.279 87.9839C184.043 87.9839 183.787 87.9122 183.51 87.7687C183.244 87.615 182.936 87.4459 182.588 87.2614C182.25 87.077 181.86 86.913 181.419 86.7695C180.979 86.6158 180.477 86.539 179.913 86.539C178.94 86.539 178.212 86.7491 177.73 87.1692C177.259 87.5791 177.023 88.1376 177.023 88.8447C177.023 89.2956 177.167 89.6697 177.454 89.9669C177.741 90.2641 178.115 90.5202 178.576 90.7354C179.047 90.9507 179.58 91.1505 180.174 91.3349C180.779 91.5092 181.394 91.709 182.019 91.9344C182.644 92.1496 183.254 92.4058 183.848 92.703C184.453 93.0002 184.986 93.3794 185.447 93.8405C185.918 94.3017 186.297 94.8653 186.584 95.5314C186.871 96.1873 187.015 96.9815 187.015 97.914C187.015 98.9491 186.835 99.9175 186.477 100.819C186.118 101.721 185.595 102.51 184.909 103.187C184.233 103.853 183.392 104.38 182.388 104.77C181.394 105.149 180.261 105.339 178.991 105.339C178.294 105.339 177.582 105.267 176.854 105.123C176.137 104.98 175.44 104.78 174.764 104.524C174.087 104.257 173.452 103.945 172.857 103.586C172.263 103.228 171.746 102.828 171.305 102.387L172.842 99.9585C172.955 99.774 173.114 99.6254 173.319 99.5127C173.524 99.4 173.744 99.3436 173.98 99.3436C174.287 99.3436 174.594 99.441 174.902 99.6357C175.22 99.8304 175.573 100.046 175.963 100.281C176.362 100.517 176.818 100.732 177.331 100.927C177.843 101.122 178.448 101.219 179.144 101.219C180.087 101.219 180.82 101.014 181.343 100.604C181.865 100.184 182.127 99.5229 182.127 98.6211C182.127 98.0985 181.983 97.6732 181.696 97.3453C181.409 97.0174 181.03 96.7458 180.559 96.5306C180.098 96.3154 179.57 96.1258 178.975 95.9618C178.381 95.7979 177.771 95.6185 177.146 95.4238C176.521 95.2189 175.911 94.9729 175.317 94.686C174.723 94.3888 174.19 94.0045 173.718 93.5331C173.257 93.0515 172.883 92.4571 172.596 91.75C172.309 91.0326 172.166 90.1513 172.166 89.106C172.166 88.2657 172.335 87.4459 172.673 86.6466C173.011 85.8472 173.508 85.135 174.164 84.5099C174.82 83.8848 175.624 83.3878 176.577 83.0189C177.53 82.6397 178.622 82.4501 179.852 82.4501C180.538 82.4501 181.204 82.5065 181.85 82.6192C182.506 82.7217 183.126 82.8805 183.71 83.0957C184.294 83.3007 184.837 83.5517 185.339 83.8489C185.852 84.1359 186.308 84.4638 186.707 84.8327L185.416 87.2461Z" fill="#1A1919"/>
<path d="M195.807 88.9062C196.863 88.9062 197.826 89.0702 198.697 89.3981C199.578 89.726 200.332 90.2026 200.957 90.8277C201.592 91.4528 202.084 92.2214 202.432 93.1334C202.791 94.0352 202.97 95.06 202.97 96.2078C202.97 96.5665 202.955 96.8585 202.924 97.084C202.894 97.3094 202.837 97.4888 202.755 97.622C202.673 97.7552 202.56 97.8474 202.417 97.8987C202.284 97.9499 202.11 97.9755 201.894 97.9755H192.702C192.856 99.3077 193.261 100.276 193.916 100.881C194.572 101.475 195.418 101.772 196.453 101.772C197.006 101.772 197.483 101.706 197.882 101.573C198.282 101.439 198.636 101.291 198.943 101.127C199.261 100.963 199.548 100.814 199.804 100.681C200.07 100.548 200.347 100.481 200.634 100.481C201.013 100.481 201.3 100.619 201.495 100.896L202.878 102.602C202.386 103.166 201.853 103.627 201.279 103.986C200.716 104.334 200.132 104.611 199.527 104.816C198.933 105.011 198.333 105.144 197.729 105.216C197.134 105.298 196.565 105.339 196.022 105.339C194.905 105.339 193.855 105.159 192.871 104.801C191.898 104.432 191.042 103.889 190.304 103.171C189.576 102.454 188.997 101.562 188.567 100.496C188.147 99.4307 187.937 98.1907 187.937 96.7765C187.937 95.7108 188.116 94.7013 188.475 93.7483C188.844 92.7953 189.366 91.9601 190.043 91.2427C190.729 90.5254 191.554 89.9566 192.518 89.5365C193.491 89.1163 194.588 88.9062 195.807 88.9062ZM195.899 92.1958C194.987 92.1958 194.275 92.4571 193.763 92.9797C193.25 93.4921 192.912 94.2351 192.748 95.2086H198.697C198.697 94.8295 198.646 94.4605 198.543 94.1019C198.451 93.7432 198.292 93.4255 198.067 93.1488C197.852 92.8619 197.565 92.6313 197.206 92.4571C196.847 92.2829 196.412 92.1958 195.899 92.1958Z" fill="#1A1919"/>
<path d="M205.09 105.093V89.1522H207.918C208.154 89.1522 208.349 89.1727 208.503 89.2137C208.666 89.2546 208.8 89.3213 208.902 89.4135C209.015 89.4955 209.097 89.6082 209.148 89.7517C209.21 89.8951 209.261 90.0693 209.302 90.2743L209.563 91.7654C210.147 90.8635 210.803 90.1513 211.531 89.6287C212.258 89.106 213.053 88.8447 213.913 88.8447C214.641 88.8447 215.225 89.0189 215.666 89.3674L215.051 92.8721C215.01 93.0873 214.928 93.241 214.805 93.3333C214.682 93.4152 214.518 93.4562 214.313 93.4562C214.139 93.4562 213.934 93.4358 213.698 93.3948C213.462 93.3435 213.165 93.3179 212.807 93.3179C211.556 93.3179 210.573 93.984 209.855 95.3162V105.093H205.09Z" fill="#1A1919"/>
<path d="M225.998 105.093H221.663L215.484 89.1522H219.45C219.788 89.1522 220.07 89.2341 220.295 89.3981C220.531 89.5518 220.69 89.7465 220.772 89.9822L222.985 97.1301C223.16 97.7142 223.323 98.283 223.477 98.8363C223.641 99.3897 223.779 99.9431 223.892 100.496C224.005 99.9431 224.143 99.3897 224.307 98.8363C224.471 98.283 224.645 97.7142 224.83 97.1301L227.136 89.9822C227.218 89.7465 227.371 89.5518 227.597 89.3981C227.822 89.2341 228.089 89.1522 228.396 89.1522H232.178L225.998 105.093Z" fill="#1A1919"/>
<path d="M238.472 89.1522V105.093H233.707V89.1522H238.472ZM239.025 84.7866C239.025 85.1658 238.948 85.5244 238.795 85.8626C238.641 86.1906 238.431 86.4826 238.164 86.7388C237.898 86.9848 237.585 87.1846 237.227 87.3383C236.878 87.4818 236.504 87.5535 236.105 87.5535C235.715 87.5535 235.351 87.4818 235.013 87.3383C234.675 87.1846 234.373 86.9848 234.106 86.7388C233.85 86.4826 233.645 86.1906 233.491 85.8626C233.348 85.5244 233.276 85.1658 233.276 84.7866C233.276 84.3972 233.348 84.0334 233.491 83.6952C233.645 83.357 233.85 83.0598 234.106 82.8037C234.373 82.5475 234.675 82.3476 235.013 82.2042C235.351 82.0607 235.715 81.9889 236.105 81.9889C236.504 81.9889 236.878 82.0607 237.227 82.2042C237.585 82.3476 237.898 82.5475 238.164 82.8037C238.431 83.0598 238.641 83.357 238.795 83.6952C238.948 84.0334 239.025 84.3972 239.025 84.7866Z" fill="#1A1919"/>
<path d="M253.203 92.9336C253.059 93.1078 252.921 93.2462 252.788 93.3486C252.654 93.4511 252.465 93.5024 252.219 93.5024C251.983 93.5024 251.768 93.446 251.573 93.3333C251.389 93.2205 251.179 93.0976 250.943 92.9643C250.707 92.8209 250.431 92.6928 250.113 92.5801C249.795 92.4673 249.401 92.411 248.929 92.411C248.345 92.411 247.838 92.5186 247.408 92.7338C246.987 92.949 246.639 93.2564 246.362 93.6561C246.086 94.0557 245.881 94.5476 245.747 95.1318C245.614 95.7056 245.548 96.3564 245.548 97.084C245.548 98.6109 245.84 99.7843 246.424 100.604C247.018 101.424 247.833 101.834 248.868 101.834C249.421 101.834 249.857 101.767 250.174 101.634C250.502 101.491 250.779 101.337 251.005 101.173C251.23 100.999 251.435 100.84 251.619 100.696C251.814 100.553 252.055 100.481 252.342 100.481C252.721 100.481 253.008 100.619 253.203 100.896L254.586 102.602C254.094 103.166 253.577 103.627 253.034 103.986C252.49 104.334 251.932 104.611 251.358 104.816C250.794 105.011 250.226 105.144 249.652 105.216C249.078 105.298 248.519 105.339 247.976 105.339C247.003 105.339 246.07 105.154 245.179 104.785C244.297 104.416 243.519 103.883 242.842 103.187C242.176 102.479 241.643 101.613 241.244 100.589C240.854 99.5639 240.659 98.3957 240.659 97.084C240.659 95.9362 240.828 94.8653 241.167 93.8713C241.515 92.867 242.022 92.0011 242.688 91.2735C243.365 90.5356 244.195 89.9566 245.179 89.5365C246.173 89.1163 247.32 88.9062 248.622 88.9062C249.872 88.9062 250.969 89.1061 251.911 89.5057C252.854 89.9054 253.705 90.4895 254.463 91.2581L253.203 92.9336Z" fill="#1A1919"/>
<path d="M262.866 88.9062C263.922 88.9062 264.885 89.0702 265.756 89.3981C266.637 89.726 267.391 90.2026 268.016 90.8277C268.651 91.4528 269.143 92.2214 269.491 93.1334C269.85 94.0352 270.029 95.06 270.029 96.2078C270.029 96.5665 270.014 96.8585 269.983 97.084C269.953 97.3094 269.896 97.4888 269.814 97.622C269.732 97.7552 269.62 97.8474 269.476 97.8987C269.343 97.9499 269.169 97.9755 268.953 97.9755H259.761C259.915 99.3077 260.32 100.276 260.976 100.881C261.631 101.475 262.477 101.772 263.512 101.772C264.065 101.772 264.542 101.706 264.941 101.573C265.341 101.439 265.695 101.291 266.002 101.127C266.32 100.963 266.607 100.814 266.863 100.681C267.129 100.548 267.406 100.481 267.693 100.481C268.072 100.481 268.359 100.619 268.554 100.896L269.937 102.602C269.445 103.166 268.912 103.627 268.339 103.986C267.775 104.334 267.191 104.611 266.586 104.816C265.992 105.011 265.392 105.144 264.788 105.216C264.193 105.298 263.625 105.339 263.081 105.339C261.964 105.339 260.914 105.159 259.93 104.801C258.957 104.432 258.101 103.889 257.363 103.171C256.636 102.454 256.057 101.562 255.626 100.496C255.206 99.4307 254.996 98.1907 254.996 96.7765C254.996 95.7108 255.175 94.7013 255.534 93.7483C255.903 92.7953 256.425 91.9601 257.102 91.2427C257.788 90.5254 258.613 89.9566 259.577 89.5365C260.55 89.1163 261.647 88.9062 262.866 88.9062ZM262.958 92.1958C262.046 92.1958 261.334 92.4571 260.822 92.9797C260.309 93.4921 259.971 94.2351 259.807 95.2086H265.756C265.756 94.8295 265.705 94.4605 265.602 94.1019C265.51 93.7432 265.351 93.4255 265.126 93.1488C264.911 92.8619 264.624 92.6313 264.265 92.4571C263.906 92.2829 263.471 92.1958 262.958 92.1958Z" fill="#1A1919"/>
<path d="M281.895 92.6415C281.772 92.8363 281.639 92.9746 281.495 93.0566C281.362 93.1386 281.188 93.1795 280.972 93.1795C280.747 93.1795 280.522 93.1334 280.296 93.0412C280.071 92.9387 279.825 92.8311 279.558 92.7184C279.302 92.6057 279.01 92.5032 278.682 92.411C278.354 92.3085 277.98 92.2573 277.56 92.2573C276.955 92.2573 276.489 92.3751 276.161 92.6108C275.843 92.8363 275.685 93.1539 275.685 93.5638C275.685 93.861 275.787 94.107 275.992 94.3017C276.207 94.4964 276.489 94.6706 276.837 94.8243C277.186 94.9678 277.58 95.1061 278.021 95.2394C278.462 95.3726 278.913 95.5212 279.374 95.6851C279.835 95.8491 280.286 96.0438 280.726 96.2693C281.167 96.4845 281.562 96.756 281.91 97.084C282.259 97.4017 282.535 97.7911 282.74 98.2522C282.955 98.7134 283.063 99.2667 283.063 99.9124C283.063 100.701 282.92 101.429 282.633 102.095C282.346 102.761 281.915 103.335 281.341 103.817C280.778 104.298 280.076 104.672 279.235 104.939C278.405 105.205 277.447 105.339 276.361 105.339C275.818 105.339 275.275 105.287 274.732 105.185C274.188 105.082 273.661 104.944 273.148 104.77C272.646 104.596 272.18 104.391 271.749 104.155C271.319 103.909 270.95 103.648 270.643 103.371L271.749 101.619C271.883 101.414 272.041 101.255 272.226 101.142C272.41 101.019 272.651 100.958 272.948 100.958C273.225 100.958 273.471 101.019 273.686 101.142C273.912 101.265 274.153 101.398 274.409 101.542C274.665 101.685 274.962 101.818 275.3 101.941C275.649 102.064 276.084 102.126 276.607 102.126C276.976 102.126 277.288 102.09 277.545 102.018C277.801 101.936 278.006 101.829 278.159 101.695C278.313 101.562 278.426 101.414 278.498 101.25C278.569 101.086 278.605 100.917 278.605 100.742C278.605 100.425 278.498 100.163 278.282 99.9585C278.067 99.7535 277.785 99.5793 277.437 99.4358C277.089 99.2821 276.689 99.1438 276.238 99.0208C275.797 98.8876 275.346 98.739 274.885 98.575C274.424 98.4111 273.968 98.2163 273.517 97.9909C273.076 97.7552 272.682 97.4631 272.334 97.1147C271.985 96.756 271.703 96.3205 271.488 95.8081C271.273 95.2957 271.165 94.6757 271.165 93.9481C271.165 93.2718 271.293 92.6313 271.55 92.0267C271.816 91.4118 272.211 90.8738 272.733 90.4126C273.256 89.9515 273.912 89.5877 274.701 89.3213C275.49 89.0446 276.412 88.9062 277.468 88.9062C278.042 88.9062 278.595 88.9575 279.128 89.0599C279.671 89.1624 280.178 89.3059 280.65 89.4903C281.121 89.6748 281.551 89.8951 281.941 90.1513C282.33 90.3973 282.674 90.6688 282.971 90.966L281.895 92.6415Z" fill="#1A1919"/>
</svg>
