<svg width="126" height="126" viewBox="0 0 126 126" fill="none" xmlns="http://www.w3.org/2000/svg">
<path d="M62.7471 0C97.4018 0.000178818 125.495 28.0933 125.495 62.748C125.495 97.4017 97.4017 125.495 62.7471 125.495H4.52734C2.02506 125.495 0 123.471 0 120.969V4.52734C1.91146e-05 2.02603 2.02507 2.10932e-05 4.52734 0H62.7471ZM11.4971 77.1992C10.9884 77.1993 10.5754 77.6105 10.5752 78.1201V93.4746C10.5754 93.9843 10.9884 94.3964 11.4971 94.3965H13.5107C14.0196 94.3965 14.4325 93.9843 14.4326 93.4746V78.1201C14.4324 77.6105 14.0195 77.1992 13.5107 77.1992H11.4971ZM18.1426 77.1992C17.6338 77.1994 17.2207 77.6113 17.2207 78.1211V93.4746C17.2207 93.9834 17.6338 94.3963 18.1426 94.3965H20.1562C20.6652 94.3965 21.0781 93.9835 21.0781 93.4746V87.3623H23.0664C23.5763 87.3623 23.8672 87.7021 23.8672 88.332V93.4746C23.8672 93.9835 24.2557 94.3965 24.7646 94.3965H26.875C27.3609 94.3965 27.7725 93.9835 27.7725 93.4746V88.9385C27.7724 87.168 27.0444 85.8343 25.1279 85.7373C26.9235 85.5674 27.5058 84.3307 27.5059 82.5352V80.3516C27.5059 78.582 26.0993 77.1994 24.0859 77.1992H18.1426ZM31.2734 77.1992C30.7886 77.1992 30.4006 77.5865 30.4004 78.0713V93.5234C30.4005 94.0083 30.7886 94.3965 31.2734 94.3965H38.9863C39.4712 94.3965 39.8603 94.0083 39.8604 93.5234V91.8008C39.8604 91.3159 39.4712 90.9277 38.9863 90.9277H34.2568V87.0947H38.332C38.8177 87.0945 39.2051 86.7065 39.2051 86.2227V84.6455C39.2051 84.1607 38.8177 83.7717 38.332 83.7715H34.2568V80.667H38.8652C39.3261 80.667 39.7139 80.2798 39.7139 79.793V78.0713C39.7137 77.5865 39.326 77.1992 38.8652 77.1992H31.2734ZM43.3779 77.1992C42.8682 77.1992 42.4563 77.6105 42.4561 78.1201V93.4746C42.4562 93.9843 42.8682 94.3965 43.3779 94.3965H50.3633C50.848 94.3963 51.2362 94.0082 51.2363 93.5234V91.8008C51.2363 91.316 50.8481 90.9279 50.3633 90.9277H46.3115V78.1201C46.3113 77.6105 45.8998 77.1992 45.415 77.1992H43.3779ZM57.0264 77.1992C56.5415 77.1992 56.2249 77.6112 56.1279 78.1211L52.8545 93.4746C52.8295 93.5475 52.8301 93.5721 52.8301 93.6211C52.8304 94.0567 53.3148 94.3963 53.7754 94.3965H55.8135C56.2983 94.3964 56.613 93.9835 56.7109 93.4746L57.1963 91.0254H60.8584L61.3682 93.4746C61.4892 93.9835 61.7811 94.3965 62.29 94.3965H64.3037C64.7644 94.3964 65.2487 94.0568 65.249 93.6211C65.249 93.5721 65.2496 93.5476 65.2256 93.4746L61.9502 78.1211C61.8532 77.6112 61.5376 77.1992 61.0527 77.1992H57.0264ZM68.2334 77.1992C67.7486 77.1992 67.3352 77.6105 67.335 78.1201V93.4746C67.3351 93.9843 67.7486 94.3965 68.2334 94.3965H70.2705C70.7793 94.3965 71.1922 93.9843 71.1924 93.4746V85.1074L74.7822 93.4746C75.0001 93.9593 75.22 94.3965 75.8008 94.3965H78.1543C78.663 94.3963 79.076 93.9842 79.0762 93.4746V78.1201C79.0759 77.6105 78.6629 77.1994 78.1543 77.1992H76.1406C75.6319 77.1992 75.22 77.6105 75.2197 78.1201V86.6592L71.5801 78.1201C71.3871 77.6594 71.1921 77.1992 70.5615 77.1992H68.2334ZM82.5732 77.1992C82.0645 77.1992 81.6516 77.6105 81.6514 78.1201V93.4746C81.6515 93.9843 82.0644 94.3965 82.5732 94.3965H88.7334C90.504 94.3965 92.2266 92.8194 92.2266 91.0488V80.3525C92.2266 78.5829 90.504 77.1992 88.7334 77.1992H82.5732ZM87.2061 80.3525C87.8368 80.3526 88.3213 80.8131 88.3213 81.4189V90.1748C88.3213 90.7816 87.8368 91.2421 87.2061 91.2422H85.5068V80.3525H87.2061ZM60.252 87.8467H57.8018L59.04 81.6865L60.252 87.8467ZM22.8965 80.3516C23.4302 80.3516 23.8669 80.7882 23.8672 81.2979V83.2148C23.8672 83.7478 23.4304 84.1846 22.8965 84.1846H21.0781V80.3516H22.8965ZM38.3096 53.6885C34.8654 53.6885 33.0949 55.4836 33.0947 58.8066C33.0947 60.3832 33.5309 61.7897 34.9375 62.6885L38.3584 64.8955C39.2072 65.4524 39.7412 65.8166 39.7412 66.5693V67.3701C39.7412 68.17 39.279 68.752 38.2852 68.752C37.5094 68.7519 36.8791 68.0483 36.8789 67.2236V66.2031C36.8787 65.6954 36.4902 65.2822 35.9805 65.2822H33.9678C33.4582 65.2824 33.0461 65.6955 33.0459 66.2031V67.1748C33.0459 70.6429 35.4226 71.9295 38.2607 71.9297C41.802 71.9297 43.6465 70.3765 43.6465 66.7383C43.6465 64.41 43.1602 63.7311 41.293 62.5176L38.2373 60.5283C37.3396 59.9455 36.9277 59.6555 36.9277 58.9277V58.3223C36.9277 57.3995 37.5097 56.8906 38.3096 56.8906C39.0132 56.8908 39.6923 57.3995 39.6924 58.418V59.0254C39.6926 59.5101 40.1051 59.9219 40.5898 59.9219H42.627C43.1357 59.9219 43.5476 59.5101 43.5479 59.0254V58.418C43.5478 55.2889 41.2927 53.6886 38.3096 53.6885ZM105.387 53.6885C101.942 53.6886 100.171 55.4837 100.171 58.8066C100.171 60.3833 100.608 61.7897 102.015 62.6885L105.436 64.8955C106.285 65.4523 106.817 65.8166 106.817 66.5693V67.3701C106.817 68.1699 106.357 68.7519 105.363 68.752C104.587 68.752 103.956 68.0483 103.956 67.2236V66.2031C103.956 65.6954 103.567 65.2823 103.059 65.2822H101.045C100.535 65.2823 100.123 65.6954 100.123 66.2031V67.1748C100.123 70.643 102.501 71.9296 105.338 71.9297C108.879 71.9297 110.723 70.3765 110.723 66.7383C110.723 64.4098 110.238 63.7313 108.37 62.5176L105.314 60.5283C104.417 59.9455 104.004 59.6556 104.004 58.9277V58.3223C104.004 57.3996 104.586 56.8908 105.387 56.8906C106.09 56.8906 106.768 57.3993 106.769 58.418V59.0254C106.769 59.5101 107.182 59.9219 107.668 59.9219H109.704C110.213 59.9219 110.626 59.5101 110.626 59.0254V58.418C110.626 55.2888 108.37 53.6885 105.387 53.6885ZM56.6709 53.6875C53.8327 53.6876 51.4072 55.3138 51.4072 58.418V67.248C51.4073 69.8184 52.645 71.9285 55.2402 71.9287C56.6708 71.9287 57.5446 71.3711 58.1025 70.5225C58.1266 71.0312 58.5148 71.4197 59.0234 71.4199H61.0371C61.546 71.4199 61.959 71.007 61.959 70.498V63.4766C61.959 62.9667 61.546 62.5537 61.0371 62.5537H57.7598C57.299 62.5539 56.9102 62.943 56.9102 63.4277V65.0283C56.9104 65.5129 57.2991 65.9002 57.7598 65.9004H58.1025V67.248C58.1025 68.0728 57.4717 68.7754 56.6709 68.7754C55.8703 68.7752 55.2403 68.0727 55.2402 67.248V58.418C55.2402 57.5933 55.8703 56.8908 56.6709 56.8906C57.4717 56.8906 58.1025 57.5931 58.1025 58.418V59.0244C58.1025 59.5092 58.5147 59.9217 59.0234 59.9219H61.0371C61.546 59.9219 61.959 59.5093 61.959 59.0244V58.418C61.959 55.2886 59.5093 53.6875 56.6709 53.6875ZM11.4971 54.2217C10.9875 54.2219 10.5764 54.634 10.5762 55.1436V70.498C10.5764 71.0076 10.9875 71.4207 11.4971 71.4209H17.6592C19.4288 71.4209 21.1513 69.8429 21.1514 68.0723V57.375C21.1511 55.6046 19.4287 54.2217 17.6592 54.2217H11.4971ZM24.0869 54.2227C23.602 54.2227 23.2139 54.6098 23.2139 55.0957V70.5459C23.2139 71.0308 23.602 71.4199 24.0869 71.4199H30.9111C31.396 71.4198 31.7852 71.0308 31.7852 70.5459V68.8242C31.7849 68.3395 31.3958 67.9512 30.9111 67.9512H27.0703V64.1182H30.2559C30.7407 64.1182 31.1297 63.7309 31.1299 63.2451V61.668C31.1298 61.1841 30.7407 60.7939 30.2559 60.7939H27.0703V57.6904H30.79C31.2509 57.6904 31.6386 57.3032 31.6387 56.8174V55.0957C31.6387 54.6098 31.2509 54.2227 30.79 54.2227H24.0869ZM46.4111 54.2227C45.9022 54.2227 45.4893 54.6337 45.4893 55.1436V70.498C45.4893 71.007 45.9022 71.4199 46.4111 71.4199H48.4238C48.9327 71.4199 49.3457 71.007 49.3457 70.498V55.1436C49.3457 54.6337 48.9327 54.2227 48.4238 54.2227H46.4111ZM64.7979 54.2227C64.311 54.2227 63.8994 54.6337 63.8994 55.1436V70.498C63.8994 71.007 64.311 71.4199 64.7979 71.4199H66.835C67.3439 71.4199 67.7568 71.007 67.7568 70.498V62.1299L71.3467 70.498C71.5646 70.983 71.7843 71.4199 72.3652 71.4199H74.7188C75.2275 71.4198 75.6406 71.0069 75.6406 70.498V55.1436C75.6406 54.6338 75.2275 54.2228 74.7188 54.2227H72.7051C72.1952 54.2227 71.7842 54.6337 71.7842 55.1436V63.6816L68.1436 55.1436C67.9496 54.6827 67.7568 54.2227 67.126 54.2227H64.7979ZM78.6719 54.2227C78.1862 54.2229 77.7988 54.61 77.7988 55.0957V70.5459C77.7988 71.0306 78.1862 71.4197 78.6719 71.4199H85.4961C85.98 71.4199 86.3691 71.0308 86.3691 70.5459V68.8242C86.3689 68.3395 85.9799 67.9512 85.4961 67.9512H81.6553V64.1182H84.8418C85.3256 64.1181 85.7147 63.7308 85.7148 63.2451V61.668C85.7147 61.1842 85.3256 60.794 84.8418 60.7939H81.6553V57.6904H85.375C85.8357 57.6902 86.2235 57.303 86.2236 56.8174V55.0957C86.2236 54.61 85.8357 54.2229 85.375 54.2227H78.6719ZM89.0137 54.2227C88.5038 54.2227 88.0928 54.6346 88.0928 55.1436V70.498C88.0928 71.007 88.5038 71.4199 89.0137 71.4199H91.0273C91.5361 71.4197 91.9492 71.0068 91.9492 70.498V64.3857H93.9375C94.4463 64.3858 94.7373 64.7247 94.7373 65.3555V70.498C94.7373 71.0069 95.126 71.4198 95.6348 71.4199H97.7441C98.231 71.4199 98.6436 71.007 98.6436 70.498V65.9619C98.6435 64.1914 97.9155 62.8578 96 62.7607C97.7935 62.5908 98.3759 61.3531 98.376 59.5586V57.375C98.376 55.6053 96.9687 54.2227 94.9561 54.2227H89.0137ZM16.1309 57.375C16.7615 57.3752 17.2461 57.8366 17.2461 58.4424V67.1992C17.2461 67.805 16.7615 68.2664 16.1309 68.2666H14.4326V57.375H16.1309ZM93.7676 57.375C94.3012 57.3751 94.7371 57.8116 94.7373 58.3213V60.2373C94.7373 60.7701 94.3014 61.2079 93.7676 61.208H91.9492V57.375H93.7676ZM69.2686 31.2461C68.7598 31.2463 68.3467 31.6582 68.3467 32.168V44.2715C68.3468 47.3756 70.7975 49.0253 73.6348 49.0254C76.4971 49.0254 78.9218 47.3757 78.9219 44.2715V32.168C78.9219 31.6582 78.5351 31.2463 78.0254 31.2461H75.9873C75.5025 31.2462 75.0898 31.6582 75.0898 32.168V44.2715C75.0898 45.0962 74.4346 45.7998 73.6348 45.7998C72.8341 45.7997 72.2042 45.0962 72.2041 44.2715V32.168C72.2041 31.6582 71.7915 31.2462 71.3066 31.2461H69.2686ZM35.1953 30.7119C31.7514 30.7121 29.9806 32.5071 29.9805 35.8301C29.9805 37.4067 30.4175 38.8141 31.8242 39.7119L35.2451 41.918C36.0938 42.4758 36.627 42.84 36.627 43.5918V44.3926C36.627 45.1934 36.1656 45.7753 35.1719 45.7754C34.3962 45.7754 33.7649 45.0717 33.7646 44.2471V43.2275C33.7645 42.7188 33.377 42.3057 32.8672 42.3057H30.8545C30.3448 42.3057 29.9328 42.7188 29.9326 43.2275V44.1982C29.9326 47.6664 32.3092 48.9521 35.1475 48.9521C38.6887 48.9521 40.5322 47.3999 40.5322 43.7617C40.5322 41.4332 40.0463 40.7547 38.1787 39.541L35.124 37.5518C34.2262 36.9689 33.8145 36.68 33.8145 35.9512V35.3457C33.8145 34.4231 34.3957 33.9142 35.1953 33.9141C35.8991 33.9141 36.5781 34.4227 36.5781 35.4414V36.0488C36.5784 36.5335 36.9918 36.9453 37.4766 36.9453H39.5137C40.0234 36.9453 40.4343 36.5335 40.4346 36.0488V35.4414C40.4345 32.3122 38.1786 30.7119 35.1953 30.7119ZM11.4971 31.2461C10.9884 31.2462 10.5754 31.6574 10.5752 32.167V47.5215C10.5754 48.0311 10.9884 48.4432 11.4971 48.4434H13.5107C14.0195 48.4434 14.4324 48.0312 14.4326 47.5215V32.167C14.4324 31.6573 14.0195 31.2461 13.5107 31.2461H11.4971ZM17.3916 31.2461C16.9069 31.2462 16.4944 31.6574 16.4941 32.167V47.5215C16.4943 48.0311 16.9069 48.4433 17.3916 48.4434H19.4297C19.9393 48.4432 20.3514 48.0311 20.3516 47.5215V39.1533L23.9414 47.5215C24.1593 48.0062 24.3774 48.4433 24.96 48.4434H27.3125C27.8213 48.4434 28.2342 48.0312 28.2344 47.5215V32.167C28.2341 31.6573 27.8213 31.2461 27.3125 31.2461H25.2988C24.7892 31.2462 24.3772 31.6574 24.377 32.167V40.7061L20.7393 32.167C20.5444 31.7063 20.3511 31.2463 19.7207 31.2461H17.3916ZM42.1787 31.2461C41.694 31.2461 41.3059 31.6335 41.3057 32.1182V33.7197C41.3059 34.1814 41.694 34.5693 42.1787 34.5693H44.0029V47.5215C44.003 48.0303 44.4165 48.4434 44.9014 48.4434H46.9385C47.4473 48.4434 47.8603 48.0303 47.8604 47.5215V34.5693H49.6797C50.1644 34.5693 50.5525 34.1814 50.5527 33.7197V32.1182C50.5525 31.6335 50.1644 31.2461 49.6797 31.2461H42.1787ZM53.0508 31.2461C52.5421 31.2462 52.1301 31.6574 52.1299 32.167V47.5215C52.1301 48.0311 52.5421 48.4432 53.0508 48.4434H55.0645C55.5733 48.4434 55.9861 48.0312 55.9863 47.5215V32.167C55.9861 31.6573 55.5732 31.2461 55.0645 31.2461H53.0508ZM58.209 31.2461C57.7242 31.2461 57.3362 31.6335 57.3359 32.1182V33.7197C57.3362 34.1814 57.7242 34.5693 58.209 34.5693H60.0332V47.5215C60.0333 48.0303 60.4449 48.4433 60.9297 48.4434H62.9688C63.4784 48.4431 63.8896 48.0302 63.8896 47.5215V34.5693H65.71C66.1946 34.5692 66.5828 34.1813 66.583 33.7197V32.1182C66.5828 31.6336 66.1946 31.2462 65.71 31.2461H58.209ZM81.374 31.2461C80.8902 31.2461 80.5012 31.6335 80.501 32.1182V33.7197C80.5012 34.1814 80.8902 34.5693 81.374 34.5693H83.1992V47.5215C83.1993 48.0302 83.611 48.4432 84.0957 48.4434H86.1338C86.6435 48.4433 87.0556 48.0303 87.0557 47.5215V34.5693H88.875C89.3598 34.5693 89.7488 34.1814 89.749 33.7197V32.1182C89.7488 31.6335 89.3597 31.2461 88.875 31.2461H81.374ZM92.0557 31.2461C91.5699 31.2461 91.1818 31.6334 91.1816 32.1182V47.5693C91.1817 48.0551 91.5699 48.4433 92.0557 48.4434H98.8799C99.3647 48.4434 99.7519 48.0551 99.752 47.5693V45.8477C99.752 45.3628 99.3648 44.9736 98.8799 44.9736H95.0391V41.1426H98.2246C98.7095 41.1426 99.0977 40.7535 99.0977 40.2686V38.6924C99.0977 38.2075 98.7095 37.8184 98.2246 37.8184H95.0391V34.7139H98.7578C99.2187 34.7139 99.6074 34.3267 99.6074 33.8398V32.1182C99.6073 31.6334 99.2186 31.2461 98.7578 31.2461H92.0557Z" fill="#231F20"/>
</svg>
